<svg width="388" height="50" viewBox="0 0 388 50" fill="none" xmlns="http://www.w3.org/2000/svg">
<rect width="50" height="50" rx="8" fill="#B89EEE"/>
<path d="M15.7651 27.7969H26.0303" stroke="#2E2149" stroke-width="2" stroke-linecap="round" stroke-linejoin="round"/>
<path d="M15.7651 21.7969H33.7651" stroke="#2E2149" stroke-width="2" stroke-linecap="round" stroke-linejoin="round"/>
<g clip-path="url(#clip0_241_1641)">
<rect x="338" width="50" height="50" rx="8" fill="#B89EEE"/>
<g clip-path="url(#clip1_241_1641)">
<path fill-rule="evenodd" clip-rule="evenodd" d="M365.141 32.6184L364.854 35.2387C364.843 35.345 364.856 35.448 364.888 35.5412C364.911 35.6078 364.943 35.6697 364.984 35.7251C365.12 35.9122 365.348 36.0258 365.597 35.9957L368.166 35.7035L373.984 29.7781L370.959 26.6973L365.141 32.6184ZM370.958 28.6786L366.452 33.2654L366.317 34.5009L367.537 34.3621L372.038 29.7781L370.958 28.6786ZM374.959 28.7894L376.705 27.0109C377.097 26.607 377.097 25.9582 376.705 25.5543L375.106 23.9258C374.713 23.5262 374.072 23.5262 373.68 23.9258L371.912 25.7261M372.886 26.7163L374.941 28.807L374.959 28.7894M374.941 26.826L375.474 26.2826L374.393 25.1813L373.859 25.7255L374.941 26.826ZM363.8 32.468L363.85 31.991L367.445 28.3301C367.439 28.3235 367.433 28.317 367.427 28.3104C367.286 28.1485 367.135 27.9946 366.977 27.8495C366.799 27.687 366.612 27.5355 366.416 27.3964C365.511 26.7551 364.417 26.375 363.23 26.375H362.525C361.589 26.8133 360.547 27.0625 359.45 27.0625C358.353 27.0625 357.315 26.8133 356.375 26.375H355.67C352.54 26.375 350 28.9617 350 32.15V33.9375C350 35.0762 350.907 36 352.025 36H363.622C363.522 35.7097 363.479 35.4024 363.512 35.0908L363.513 35.0858L363.513 35.0848L363.8 32.468ZM365.421 28.4091C364.779 28.009 364.031 27.7793 363.23 27.7793H362.811C361.778 28.2188 360.641 28.4668 359.45 28.4668C358.257 28.4668 357.124 28.2181 356.089 27.7793H355.67C353.292 27.7793 351.373 29.7429 351.373 32.15V33.9375C351.373 34.295 351.66 34.5957 352.025 34.5957H362.185L362.435 32.3164L362.435 32.3115L362.538 31.3461L365.421 28.4091ZM359.45 23.5957C361.68 23.5957 363.477 21.7567 363.477 19.5C363.477 17.2433 361.68 15.4043 359.45 15.4043C357.22 15.4043 355.423 17.2433 355.423 19.5C355.423 21.7567 357.22 23.5957 359.45 23.5957ZM364.85 19.5C364.85 22.5379 362.433 25 359.45 25C356.467 25 354.05 22.5379 354.05 19.5C354.05 16.4621 356.467 14 359.45 14C362.433 14 364.85 16.4621 364.85 19.5Z" fill="#2E2149"/>
</g>
</g>
<defs>
<clipPath id="clip0_241_1641">
<rect width="50" height="50" fill="white" transform="translate(338)"/>
</clipPath>
<clipPath id="clip1_241_1641">
<rect width="27" height="22" fill="white" transform="translate(350 14)"/>
</clipPath>
</defs>
</svg>
