<svg width="28" height="27" viewBox="0 0 28 27" fill="none" xmlns="http://www.w3.org/2000/svg">
<path d="M24.5372 14.7232C21.4414 12.848 17.3937 13.8656 15.4977 16.9958L13.629 15.8639L14.568 19.7816L14.5582 19.8962L18.6122 18.8823L16.7435 17.7504C18.2198 15.313 21.3636 14.5227 23.7742 15.9828C26.1848 17.4429 26.9404 20.5952 25.464 23.0326C23.9876 25.47 20.8439 26.2604 18.4333 24.8003C17.2311 24.0721 16.4424 22.9142 16.1421 21.639L14.7158 21.9975C15.1093 23.6391 16.1193 25.1204 17.6703 26.0599C20.7661 27.9351 24.8138 26.9174 26.7098 23.7872C28.6058 20.657 27.633 16.5983 24.5372 14.7232ZM22.0068 17.495L20.0994 20.644L21.7853 23.8347L22.7532 23.3191L21.358 20.6746L22.9412 18.0609L22.0068 17.495Z" fill="#515151"/>
<path fill-rule="evenodd" clip-rule="evenodd" d="M3.05867 10.1956C3.62176 10.1956 4.07823 10.652 4.07823 11.2151V20.3911H11.2151C11.7782 20.3911 12.2347 20.8476 12.2347 21.4107C12.2347 21.9738 11.7782 22.4303 11.2151 22.4303H3.05867C2.49559 22.4303 2.03911 21.9738 2.03911 21.4107V11.2151C2.03911 10.652 2.49559 10.1956 3.05867 10.1956Z" fill="#515151"/>
<path fill-rule="evenodd" clip-rule="evenodd" d="M0 6.11734C0 5.55426 0.456471 5.09779 1.01956 5.09779H21.4107C21.9738 5.09779 22.4303 5.55426 22.4303 6.11734V11.2151C22.4303 11.7782 21.9738 12.2347 21.4107 12.2347H1.01956C0.456471 12.2347 0 11.7782 0 11.2151V6.11734ZM2.03911 7.1369V10.1956H20.3911V7.1369H2.03911Z" fill="#515151"/>
<path fill-rule="evenodd" clip-rule="evenodd" d="M11.2151 5.09779C11.7782 5.09779 12.2347 5.55426 12.2347 6.11734V21.4107C12.2347 21.9738 11.7782 22.4303 11.2151 22.4303C10.652 22.4303 10.1956 21.9738 10.1956 21.4107V6.11734C10.1956 5.55426 10.652 5.09779 11.2151 5.09779Z" fill="#515151"/>
<path fill-rule="evenodd" clip-rule="evenodd" d="M6.62712 2.03911C6.22152 2.03911 5.83252 2.20024 5.54572 2.48705C5.25891 2.77385 5.09779 3.16284 5.09779 3.56845C5.09779 3.97406 5.25891 4.36305 5.54572 4.64985C5.83252 4.93666 6.22152 5.09779 6.62712 5.09779H9.84283C9.71836 4.77215 9.5608 4.41409 9.36594 4.05979C8.72467 2.89385 7.84437 2.03911 6.62712 2.03911ZM11.2151 6.11734C12.2149 5.91739 12.2148 5.91704 12.2147 5.91667L12.2146 5.91584L12.2142 5.91382L12.2131 5.90836L12.2096 5.89195C12.2068 5.8786 12.2029 5.86046 12.1979 5.83787C12.1878 5.79269 12.1731 5.72956 12.1535 5.65102C12.1142 5.49416 12.0549 5.27461 11.9721 5.01302C11.8075 4.49351 11.5448 3.79005 11.1526 3.07711C10.392 1.69415 8.97832 0 6.62712 0C5.68071 0 4.77306 0.375961 4.10385 1.04517C3.43463 1.71439 3.05867 2.62204 3.05867 3.56845C3.05867 4.51486 3.43463 5.42251 4.10385 6.09172C4.77306 6.76094 5.68071 7.1369 6.62712 7.1369H11.2151C11.5206 7.1369 11.8099 6.99995 12.0036 6.76373C12.1972 6.52751 12.2748 6.21691 12.2149 5.91739L11.2151 6.11734Z" fill="#515151"/>
<path fill-rule="evenodd" clip-rule="evenodd" d="M11.2776 3.07711C12.0382 1.69415 13.4519 0 15.8031 0C16.7496 0 17.6572 0.375961 18.3264 1.04517C18.9956 1.71439 19.3716 2.62204 19.3716 3.56845C19.3716 4.51486 18.9956 5.42251 18.3264 6.09172C17.6572 6.76094 16.7496 7.1369 15.8031 7.1369H11.2151C10.9097 7.1369 10.6203 6.99995 10.4267 6.76373C10.233 6.52751 10.1555 6.21691 10.2154 5.91739L11.2151 6.11734C10.2154 5.91739 10.2154 5.91704 10.2155 5.91667L10.2157 5.91584L10.2161 5.91382L10.2172 5.90836L10.2206 5.89195C10.2235 5.8786 10.2274 5.86046 10.2324 5.83787C10.2425 5.79269 10.2572 5.72956 10.2768 5.65102C10.316 5.49416 10.3754 5.27461 10.4582 5.01302C10.6227 4.49351 10.8855 3.79005 11.2776 3.07711ZM12.5874 5.09779H15.8031C16.2087 5.09779 16.5977 4.93666 16.8845 4.64985C17.1714 4.36305 17.3325 3.97406 17.3325 3.56845C17.3325 3.16284 17.1714 2.77385 16.8845 2.48705C16.5977 2.20024 16.2087 2.03911 15.8031 2.03911C14.5859 2.03911 13.7056 2.89385 13.0643 4.05979C12.8695 4.41409 12.7119 4.77215 12.5874 5.09779ZM12.2145 6.31901C12.2145 6.31928 12.2145 6.31926 12.2146 6.31893L12.2145 6.31901Z" fill="#515151"/>
</svg>
