<svg width="350" height="30" viewBox="0 0 350 30" fill="none" xmlns="http://www.w3.org/2000/svg">
<path d="M3.75 11.25L15 2.5L26.25 11.25V25C26.25 25.663 25.9866 26.2989 25.5178 26.7678C25.0489 27.2366 24.413 27.5 23.75 27.5H6.25C5.58696 27.5 4.95107 27.2366 4.48223 26.7678C4.01339 26.2989 3.75 25.663 3.75 25V11.25Z" stroke="#DCCFF5" stroke-width="2" stroke-linecap="round" stroke-linejoin="round"/>
<path d="M99.6461 11.6001C99.6461 14.2664 97.5432 16.3858 95.0004 16.3858C92.4576 16.3858 90.3547 14.2664 90.3547 11.6001C90.3547 8.93384 92.4576 6.81445 95.0004 6.81445C97.5432 6.81445 99.6461 8.93384 99.6461 11.6001Z" stroke="#DCCFF5" stroke-width="2"/>
<path d="M103.109 23.3305C103.109 23.9379 102.564 24.7797 101.008 25.5289C99.5219 26.2438 97.3994 26.7138 95.0005 26.7138C92.6017 26.7138 90.4791 26.2438 88.9935 25.5289C87.4367 24.7797 86.8921 23.9379 86.8921 23.3305C86.8921 22.7231 87.4367 21.8814 88.9935 21.1322C90.4791 20.4173 92.6017 19.9473 95.0005 19.9473C97.3994 19.9473 99.5219 20.4173 101.008 21.1322C102.564 21.8814 103.109 22.7231 103.109 23.3305Z" stroke="#DCCFF5" stroke-width="2"/>
<path d="M87.8588 3.5C88.8089 3.5 89.6941 3.79511 90.4331 4.30523C88.0781 5.84879 86.5212 8.54498 86.5212 11.6C86.5212 12.0414 86.5543 12.4748 86.6177 12.8981C84.6663 12.341 83.2128 10.5022 83.2131 8.2858V8.28565C83.2131 5.61963 85.3161 3.5 87.8588 3.5Z" stroke="#DCCFF5" stroke-width="2"/>
<path d="M99.5673 4.30512C100.306 3.79503 101.192 3.5 102.142 3.5C104.685 3.5 106.788 5.61922 106.788 8.28565C106.788 10.5022 105.334 12.341 103.383 12.8981C103.446 12.4749 103.479 12.0415 103.479 11.6C103.479 8.5449 101.922 5.84866 99.5673 4.30512Z" stroke="#DCCFF5" stroke-width="2"/>
<path d="M110.25 20.0159V20.0161C110.25 20.4575 109.976 21.0206 109.164 21.6132C108.598 22.0263 107.832 22.4023 106.905 22.7018C106.6 20.1197 104.424 18.2088 101.516 17.1299C101.647 16.9697 101.772 16.8047 101.89 16.6352C101.975 16.6337 102.058 16.6328 102.142 16.6328C104.541 16.6328 106.663 17.1029 108.149 17.8178C109.706 18.567 110.25 19.4087 110.25 20.0159Z" stroke="#DCCFF5" stroke-width="2"/>
<path d="M83.0952 22.7018C82.1681 22.4024 81.4024 22.0264 80.836 21.6132C80.0236 21.0206 79.75 20.4575 79.75 20.0161C79.75 19.4088 80.2946 18.5671 81.8514 17.8178C83.3371 17.1029 85.4596 16.6328 87.8584 16.6328C87.9421 16.6328 88.0259 16.6336 88.1098 16.6351C88.2288 16.8047 88.3536 16.9697 88.484 17.13C85.5767 18.209 83.4004 20.1201 83.0952 22.7018Z" stroke="#DCCFF5" stroke-width="2"/>
<path d="M185 15V27.5H165V15" stroke="#DCCFF5" stroke-width="2" stroke-linecap="round" stroke-linejoin="round"/>
<path d="M187.5 8.75H162.5V15H187.5V8.75Z" stroke="#DCCFF5" stroke-width="2" stroke-linecap="round" stroke-linejoin="round"/>
<path d="M175 27.5V8.75" stroke="#DCCFF5" stroke-width="2" stroke-linecap="round" stroke-linejoin="round"/>
<path d="M175 8.75H169.375C168.546 8.75 167.751 8.42076 167.165 7.83471C166.579 7.24866 166.25 6.4538 166.25 5.625C166.25 4.7962 166.579 4.00134 167.165 3.41529C167.751 2.82924 168.546 2.5 169.375 2.5C173.75 2.5 175 8.75 175 8.75Z" stroke="#DCCFF5" stroke-width="2" stroke-linecap="round" stroke-linejoin="round"/>
<path d="M175 8.75H180.625C181.454 8.75 182.249 8.42076 182.835 7.83471C183.421 7.24866 183.75 6.4538 183.75 5.625C183.75 4.7962 183.421 4.00134 182.835 3.41529C182.249 2.82924 181.454 2.5 180.625 2.5C176.25 2.5 175 8.75 175 8.75Z" stroke="#DCCFF5" stroke-width="2" stroke-linecap="round" stroke-linejoin="round"/>
<path d="M262.5 10C262.5 8.01088 261.71 6.10322 260.303 4.6967C258.897 3.29018 256.989 2.5 255 2.5C253.011 2.5 251.103 3.29018 249.697 4.6967C248.29 6.10322 247.5 8.01088 247.5 10C247.5 18.75 243.75 21.25 243.75 21.25H266.25C266.25 21.25 262.5 18.75 262.5 10Z" fill="#8357DB"/>
<path d="M257.162 26.25C256.943 26.6288 256.627 26.9433 256.248 27.1619C255.868 27.3805 255.438 27.4956 255 27.4956C254.562 27.4956 254.132 27.3805 253.752 27.1619C253.373 26.9433 253.057 26.6288 252.837 26.25" stroke="#8357DB" stroke-width="2" stroke-linecap="round" stroke-linejoin="round"/>
<path d="M339.594 9.95685C339.594 12.6944 337.375 14.9137 334.637 14.9137C331.9 14.9137 329.68 12.6944 329.68 9.95685C329.68 7.21926 331.9 5 334.637 5C337.375 5 339.594 7.21926 339.594 9.95685Z" stroke="#DCCFF5" stroke-width="2"/>
<path d="M325.158 20.8044C325.737 19.8258 327.1 18.2891 329.348 17.6933C330.384 18.3207 331.935 18.974 333.689 19.1832C335.558 19.4062 337.699 19.1261 339.657 17.7293C340.332 17.9573 341.208 18.3367 342.012 18.8564C342.943 19.4583 343.647 20.1628 343.95 20.9207C343.912 20.9803 343.858 21.0565 343.785 21.1491C343.526 21.4789 343.115 21.9031 342.599 22.3564C341.558 23.2701 340.223 24.1838 339.094 24.6276C336.826 25.5187 334.2 25.9002 331.69 25.3419C329.341 24.8194 327.032 23.4623 325.158 20.8044ZM344.029 20.7733C344.03 20.773 344.027 20.7807 344.02 20.7972C344.024 20.7819 344.028 20.7736 344.029 20.7733Z" stroke="#DCCFF5" stroke-width="2" stroke-linejoin="round"/>
</svg>
