<svg width="12" height="18" viewBox="0 0 12 18" fill="none" xmlns="http://www.w3.org/2000/svg">
<path d="M11.2975 4.37992C11.3324 3.99919 11.2179 3.6198 10.9782 3.32194C10.7385 3.02407 10.3924 2.83106 10.013 2.78369L9.76435 1.22195C9.71431 0.934583 9.58019 0.6685 9.37895 0.457348C9.1777 0.246196 8.91836 0.099457 8.63372 0.0356834C8.34909 -0.0280902 8.05193 -0.00603432 7.77982 0.0990623C7.50772 0.204159 7.27289 0.387577 7.10502 0.626126C6.93435 0.382174 6.69348 0.195935 6.41442 0.0921562C6.13537 -0.0116223 5.83134 -0.0280261 5.54274 0.0451248C5.25414 0.118276 4.99463 0.277517 4.7987 0.501689C4.60277 0.725861 4.4797 1.00435 4.44583 1.30014C4.23716 1.16874 3.99859 1.09236 3.75241 1.07813C3.50622 1.06389 3.26044 1.11227 3.03802 1.21874C2.81559 1.32522 2.62377 1.48632 2.48046 1.687C2.33716 1.88768 2.24704 2.1214 2.21851 2.36634C1.97699 2.2232 1.6995 2.15224 1.4189 2.16188C1.13831 2.17153 0.866346 2.26136 0.635211 2.42074C0.404077 2.58013 0.223446 2.8024 0.114698 3.06125C0.00594966 3.32009 -0.0263619 3.60468 0.0215873 3.88132L0.528132 7.06198C0.559526 7.24076 0.623867 7.41215 0.71788 7.56743C0.639608 7.95936 0.651574 8.36397 0.752873 8.75059L1.16952 10.3083C1.27556 10.8763 1.704 11.3362 2.10914 11.7111L2.52 12.0917L2.52174 16.9479C2.52222 17.2269 2.63329 17.4943 2.83059 17.6915C3.02789 17.8887 3.29534 17.9997 3.57431 18.0001H8.24011C8.38236 18.0001 8.52313 17.9713 8.65393 17.9154C8.78473 17.8595 8.90284 17.7777 9.00113 17.6748C9.09943 17.572 9.17586 17.4503 9.22582 17.3172C9.27577 17.184 9.29822 17.0421 9.2918 16.9L9.02625 11.0371L10.0235 10.1714C10.6192 9.65125 10.985 8.91669 11.0412 8.12791C11.0412 8.12791 11.2974 4.38158 11.2975 4.37992ZM8.15886 0.603466C8.38906 0.566043 8.62477 0.619885 8.81589 0.753544C9.00702 0.887203 9.13847 1.09014 9.1823 1.3192L9.42274 2.82866C9.23959 2.88017 9.06833 2.96713 8.91867 3.08462L7.80633 3.93469L7.43878 1.62765C7.39873 1.39638 7.45206 1.15867 7.58705 0.966668C7.72204 0.774664 7.92768 0.644045 8.15886 0.603466ZM5.75232 0.603466C5.98261 0.565489 6.21862 0.619105 6.4099 0.752854C6.60117 0.886602 6.73254 1.08987 6.77592 1.3192L7.25906 4.35313L6.35972 5.04061C6.22029 5.15161 6.10222 5.28705 6.01126 5.44031C5.8887 5.37915 5.78216 5.29013 5.70018 5.1804C5.6182 5.07066 5.56306 4.94325 5.53918 4.80837L5.03216 1.62765C4.9921 1.39637 5.04543 1.15864 5.18044 0.966628C5.31545 0.774617 5.52112 0.64401 5.75232 0.603466ZM2.95204 2.0427C3.01864 1.94743 3.10348 1.86632 3.20163 1.80406C3.29979 1.74179 3.40932 1.69961 3.52388 1.67996C3.75515 1.64047 3.99266 1.69351 4.18515 1.82764C4.27992 1.89378 4.3607 1.97798 4.42285 2.07541C4.48501 2.17284 4.52731 2.28159 4.54733 2.39541L5.05417 5.57607C5.09245 5.79426 5.04744 6.01888 4.92804 6.20548C4.80865 6.39208 4.62356 6.52707 4.40941 6.58376C4.19525 6.64044 3.96763 6.61468 3.77155 6.51157C3.57548 6.40847 3.42525 6.23553 3.35057 6.02696L2.8041 2.70379C2.78382 2.58929 2.78645 2.4719 2.81185 2.35843C2.83724 2.24495 2.88489 2.13764 2.95204 2.0427ZM0.751546 3.12321C0.818148 3.02795 0.902977 2.94684 1.00113 2.88457C1.09928 2.8223 1.2088 2.78011 1.32336 2.76044C1.52659 2.72668 1.73526 2.76409 1.91411 2.86636C2.09295 2.96863 2.23102 3.12949 2.30499 3.32178L2.85335 6.65663C2.89349 6.88748 2.84047 7.12482 2.70591 7.31663C2.57135 7.50845 2.36623 7.63909 2.13551 7.67991C1.90478 7.72074 1.66729 7.66841 1.47508 7.53442C1.28287 7.40042 1.15163 7.19568 1.11012 6.96508L0.603577 3.78442C0.583267 3.66991 0.585876 3.5525 0.611255 3.439C0.636634 3.3255 0.684278 3.21817 0.751428 3.12321H0.751546ZM10.4523 8.08796C10.4073 8.72023 10.1141 9.30907 9.63671 9.72603L8.54537 10.6735C7.97487 11.0845 7.30069 11.3277 6.59915 11.3754C6.5229 11.3807 6.45167 11.4153 6.40048 11.4721C6.34928 11.5289 6.32211 11.6033 6.32469 11.6797C6.32727 11.7561 6.35939 11.8285 6.4143 11.8817C6.4692 11.9348 6.5426 11.9646 6.61904 11.9648C6.62568 11.9648 6.63258 11.9645 6.63951 11.964C7.27612 11.9201 7.89528 11.7368 8.45317 11.427L8.70228 16.9268C8.70507 16.9892 8.69518 17.0516 8.67321 17.1101C8.65124 17.1686 8.61764 17.222 8.57445 17.2672C8.53126 17.3123 8.47937 17.3483 8.4219 17.3728C8.36444 17.3974 8.3026 17.41 8.24011 17.41H3.57431C3.45174 17.4098 3.33425 17.361 3.24757 17.2744C3.16089 17.1877 3.11209 17.0703 3.11184 16.9477L3.1101 11.9628C3.11011 11.9222 3.10172 11.882 3.08548 11.8448C3.06923 11.8076 3.04547 11.7742 3.01569 11.7466L2.51029 11.2782C2.14901 10.998 1.8819 10.6142 1.74472 10.1781L1.3228 8.59855C1.27873 8.43275 1.25568 8.26207 1.2542 8.09053C1.46357 8.21157 1.6997 8.2788 1.94143 8.2862C2.18316 8.2936 2.42296 8.24095 2.63935 8.13295C2.85574 8.02495 3.04198 7.86498 3.18139 7.66736C3.32079 7.46974 3.40902 7.24063 3.43817 7.00055C3.64849 7.12441 3.88638 7.19385 4.1303 7.20257C4.37422 7.2113 4.61646 7.15904 4.83509 7.05052C5.05371 6.94201 5.24182 6.78067 5.38236 6.58112C5.5229 6.38157 5.61145 6.15011 5.63997 5.9077C5.69579 5.94154 5.75381 5.97162 5.81363 5.99775C5.81234 6.0072 5.80874 6.01587 5.80773 6.02534C5.76332 6.39936 5.86493 6.7761 6.0914 7.07705C5.12806 7.4789 4.31642 8.17502 3.77252 9.06591C3.75243 9.09902 3.73905 9.13577 3.73316 9.17405C3.72726 9.21234 3.72897 9.25141 3.73817 9.28903C3.74737 9.32665 3.7639 9.3621 3.7868 9.39334C3.8097 9.42457 3.83853 9.451 3.87165 9.47109C3.90476 9.49119 3.94151 9.50456 3.97979 9.51046C4.01807 9.51635 4.05714 9.51465 4.09477 9.50545C4.13239 9.49624 4.16783 9.47972 4.19907 9.45681C4.23031 9.43391 4.25673 9.40508 4.27683 9.37197C4.76823 8.566 5.50797 7.94133 6.38486 7.59186L6.5962 7.5081C6.80614 7.61688 7.03902 7.67395 7.27547 7.67453C7.46936 7.67301 7.66103 7.63309 7.8394 7.55707L7.81719 7.86903C7.81439 7.90768 7.81924 7.9465 7.83145 7.98327C7.84367 8.02004 7.86301 8.05405 7.88838 8.08334C7.91375 8.11263 7.94464 8.13663 7.97929 8.15397C8.01394 8.17132 8.05167 8.18166 8.09031 8.18441C8.09754 8.18483 8.10474 8.18512 8.11165 8.18512C8.18619 8.18502 8.25793 8.15671 8.31245 8.10588C8.36697 8.05504 8.40023 7.98546 8.40555 7.91111L8.45987 7.14884L8.80579 6.88433L9.4022 6.87698C9.48046 6.87648 9.55531 6.84492 9.61029 6.78924C9.66527 6.73355 9.69588 6.65831 9.69538 6.58005C9.69489 6.5018 9.66332 6.42695 9.60764 6.37197C9.55195 6.31699 9.47671 6.28638 9.39846 6.28688H9.39471L8.7006 6.29552C8.63711 6.29635 8.57558 6.31762 8.52513 6.35618L7.82064 6.89471C7.68312 7.00309 7.51656 7.06824 7.34201 7.08194C7.16746 7.09565 6.99277 7.05727 6.84003 6.97168C6.68729 6.88609 6.56337 6.75712 6.48393 6.6011C6.4045 6.44507 6.37312 6.26898 6.39377 6.09512C6.40695 5.98029 6.44271 5.8692 6.49897 5.76823C6.55524 5.66726 6.63091 5.57841 6.72163 5.50679L9.28055 3.55092C9.41644 3.44382 9.58073 3.3789 9.75311 3.36419C9.92549 3.34947 10.0984 3.38561 10.2505 3.46812C10.4025 3.55064 10.5271 3.67592 10.6087 3.82846C10.6903 3.98101 10.7255 4.15414 10.7097 4.32643L10.4523 8.08796ZM5.75336 11.782C5.75336 11.8603 5.72227 11.9353 5.66694 11.9906C5.6116 12.046 5.53656 12.0771 5.4583 12.0771H4.88041C4.80216 12.0771 4.72711 12.046 4.67178 11.9906C4.61645 11.9353 4.58536 11.8603 4.58536 11.782C4.58536 11.7038 4.61645 11.6287 4.67178 11.5734C4.72711 11.518 4.80216 11.487 4.88041 11.487H5.45816C5.49692 11.487 5.53529 11.4946 5.5711 11.5094C5.60691 11.5243 5.63944 11.546 5.66684 11.5734C5.69424 11.6008 5.71597 11.6334 5.73079 11.6692C5.74561 11.705 5.75323 11.7434 5.75321 11.7822L5.75336 11.782Z" fill="#717171"/>
</svg>
