<svg width="122" height="141" viewBox="0 0 122 141" fill="none" xmlns="http://www.w3.org/2000/svg">
<path d="M113.193 25.8212C113.393 25.3208 113.994 23.8195 113.393 22.2182C112.993 21.0172 111.792 19.7162 110.391 19.6161C108.989 19.4159 107.889 20.4167 105.987 22.3183C98.1805 13.8113 89.0731 10.8089 85.3701 9.80804C81.1666 8.50697 76.763 7.8064 72.1592 7.8064C67.5554 7.8064 63.0517 8.50697 58.9484 9.80804C58.548 9.90813 58.2478 10.0082 57.8475 10.1083C53.7441 11.5094 49.8409 13.411 46.338 15.9131C44.0361 14.2117 42.4348 13.2108 41.1338 13.8113C39.5324 14.4118 39.032 17.114 39.1321 18.7154C39.2322 19.7162 39.4324 20.5168 39.8327 21.4176C39.1321 22.1181 38.5316 22.8187 37.9311 23.5193C36.0296 25.621 34.4282 27.9229 33.0271 30.425C30.3249 34.6284 28.023 39.1321 26.2215 43.836C25.1206 46.6383 24.2199 49.4406 23.4192 52.3429C22.5185 55.9459 21.7178 59.6489 21.3175 63.4521C21.0173 66.4545 20.8171 69.5571 20.8171 72.6596C20.8171 76.9631 21.1173 81.1666 21.8179 85.27C21.8179 85.37 21.918 85.4701 21.918 85.6703C22.4184 88.5727 23.0189 91.4751 23.8196 94.2774C28.4233 110.29 36.1296 119.498 36.1296 119.498C38.2314 121.9 40.1329 123.701 41.5341 124.802C44.3364 126.904 46.1379 128.005 47.3389 128.606C47.3389 128.606 47.3388 128.606 47.4389 128.606C48.4397 129.206 49.4406 129.806 50.4414 130.407C56.7466 133.71 63.7523 135.511 71.3586 135.511C78.8647 135.511 86.0706 133.71 92.2757 130.407C92.9763 130.007 93.6769 129.606 94.3775 129.206H94.4775C99.2815 126.704 103.585 123.401 107.288 119.498C111.692 114.894 115.195 109.49 117.496 103.485C118.497 100.783 119.398 97.9804 119.898 95.078C119.998 94.5776 120.399 94.2774 120.899 94.2774C121.4 94.2774 121.9 94.6777 121.9 95.2782V117.797C121.9 118.397 121.6 119.098 121.199 119.498C119.998 120.699 118.797 121.9 117.496 123.101C114.394 125.803 111.091 128.305 107.588 130.407C103.585 132.909 99.3816 134.911 94.8779 136.512C87.3717 139.214 79.165 140.715 70.658 140.715C66.1543 140.715 61.8508 140.315 57.6473 139.514C53.8442 138.814 50.041 137.713 46.4381 136.412C41.9344 134.811 37.731 132.709 33.7277 130.307C28.7236 127.204 24.2199 123.601 20.1165 119.398C13.2108 112.292 7.80642 103.785 4.30355 94.2774C3.20265 91.375 2.40198 88.3725 1.70141 85.37C0.800669 81.2667 0.300252 77.0632 0.100088 72.7597C6.10704e-06 71.959 0 71.2585 0 70.4578C0 68.1559 0.1001 65.854 0.300265 63.5521C1.00084 56.6465 2.60214 50.0411 5.10419 43.936C11.009 29.6243 21.4176 17.6145 34.7285 9.90813C44.5366 4.10337 55.8458 0.70057 67.9557 0.300242C68.7564 0.20016 69.6571 0.200161 70.4578 0.200161C78.6645 0.200161 86.6711 1.60131 94.0772 4.20345C95.4783 4.70386 96.8795 5.20427 98.1806 5.80476C99.0813 6.20509 99.882 6.50534 100.783 6.90567C100.783 6.90567 100.783 6.90567 100.883 6.90567C101.483 7.20591 101.984 7.50616 102.484 7.70632C103.785 8.20673 104.886 8.30681 105.587 8.30681C109.49 8.40689 113.393 5.90484 115.795 1.80147C116.396 0.70057 117.496 0 118.797 0C120.499 0 122 1.40115 122 3.20262V41.1337C122 42.635 120.799 43.7359 119.398 43.7359C118.797 43.7359 118.197 43.5357 117.697 43.1354C117.196 42.7351 116.896 42.2346 116.696 41.6342C115.895 38.4315 114.394 33.7277 111.291 28.8236C111.992 27.9229 112.793 26.822 113.193 25.8212Z" fill="#8357DB"/>
</svg>
