<svg width="23" height="23" viewBox="0 0 23 23" fill="none" xmlns="http://www.w3.org/2000/svg">
<path d="M17.25 7.66666C17.25 6.14166 16.6442 4.67913 15.5659 3.60079C14.4875 2.52246 13.025 1.91666 11.5 1.91666C9.97501 1.91666 8.51247 2.52246 7.43414 3.60079C6.3558 4.67913 5.75 6.14166 5.75 7.66666C5.75 14.375 2.875 16.2917 2.875 16.2917H20.125C20.125 16.2917 17.25 14.375 17.25 7.66666Z" stroke="#515151" stroke-width="2" stroke-linecap="round" stroke-linejoin="round"/>
<path d="M13.1579 20.125C12.9894 20.4154 12.7476 20.6565 12.4566 20.8241C12.1657 20.9917 11.8358 21.0799 11.5 21.0799C11.1642 21.0799 10.8343 20.9917 10.5434 20.8241C10.2524 20.6565 10.0106 20.4154 9.84209 20.125" stroke="#515151" stroke-width="2" stroke-linecap="round" stroke-linejoin="round"/>
</svg>
