<svg width="150" height="141" viewBox="0 0 150 141" fill="none" xmlns="http://www.w3.org/2000/svg">
<path d="M149.123 137.089C148.722 136.688 148.22 136.387 147.719 136.287C145.513 135.885 143.507 135.183 141.501 134.281C139.395 133.278 137.289 131.974 135.484 130.47C132.476 127.963 130.069 124.854 128.364 121.344C128.063 120.742 127.863 120.241 127.562 119.539L116.831 94.3677L113.021 85.4423L107.605 72.8065L103.694 63.5803L93.8662 40.4146L80.8292 9.72759L79.1244 5.8165L77.7204 2.40683L77.5199 1.90541C76.9182 0.802277 75.7147 0 74.411 0C73.0071 0 71.8036 0.802275 71.3022 2.00569L71.2019 2.20625L67.9928 9.6273L63.9815 19.1543L63.48 20.458C65.1849 22.564 66.3883 23.8677 65.7866 25.0711C65.2852 26.1742 63.2795 26.7759 61.8755 27.1771C61.3741 27.3777 60.9729 27.3776 60.4715 27.4779L46.8328 59.4687L45.0277 63.5803L41.1166 72.8065L35.7013 85.4423L31.8904 94.3677L21.16 119.639H20.9594C19.3549 123.851 16.7475 127.662 13.4381 130.57C11.633 132.175 9.62731 133.378 7.52133 134.481C5.31507 135.484 2.90825 136.287 0.501422 136.788H0.401138C0.200569 136.888 0 136.989 0 137.289V138.593C0 139.897 1.10313 141 2.40683 141H12.4353L12.6358 140.498C12.7361 140.599 12.9367 140.799 13.037 141H44.9274C46.1308 141 47.0334 139.997 47.0334 138.894C47.0334 138.292 46.8328 137.791 46.4317 137.39C46.0306 136.989 45.5291 136.788 44.9274 136.788H40.3143C36.0021 136.788 32.1913 134.281 30.3862 130.57C29.6842 129.166 29.2831 127.461 29.2831 125.757C29.2831 123.45 29.985 121.444 31.1885 119.639H30.9879L41.7183 94.3677H96.0725L106.803 119.639H106.602C107.806 121.444 108.407 123.45 108.407 125.656C108.407 127.462 108.006 129.066 107.304 130.47C105.499 134.08 101.789 136.587 97.4765 136.587C97.2759 136.587 97.0753 136.587 96.8748 136.587C95.4708 136.487 94.1671 137.49 94.1671 138.894C94.1671 139.496 94.3676 139.997 94.7688 140.298C95.1699 140.699 95.6713 140.9 96.1728 140.9H135.986C136.186 140.699 136.387 140.498 136.587 140.198L136.888 140.9H147.518C148.822 140.9 149.825 139.897 149.825 138.593C149.725 137.991 149.524 137.49 149.123 137.089ZM87.5483 85.4423H50.1422C48.4374 85.4423 47.0334 84.0384 47.0334 82.3335C47.0334 82.0327 47.1337 81.7318 47.1337 81.431C47.234 81.2304 47.3343 81.0298 47.4345 80.8293L50.8442 72.8065L54.7553 63.5803L65.7866 37.6067C65.8869 37.4061 65.9872 37.2055 65.9872 37.1052C66.4886 36.1024 67.5917 35.4004 68.7951 35.4004C69.9985 35.4004 71.0014 36.1024 71.6031 37.1052C71.6031 37.2055 71.6031 37.2055 71.6031 37.2055C71.7034 37.3058 71.7034 37.5064 71.8036 37.6067V37.707L82.8349 63.6806L86.746 72.9068L90.1557 80.8293C90.256 81.0298 90.3563 81.3307 90.4566 81.6315C90.5568 81.8321 90.5568 82.1329 90.5568 82.4338C90.7574 84.0383 89.2531 85.4423 87.5483 85.4423Z" fill="#8357DB"/>
</svg>
