<svg width="22" height="19" viewBox="0 0 22 19" fill="none" xmlns="http://www.w3.org/2000/svg">
<path fill-rule="evenodd" clip-rule="evenodd" d="M4.58328 3.95833C3.8867 3.95833 3.53566 4.42287 3.53566 4.75V15.8333C3.53566 16.1605 3.8867 16.625 4.58328 16.625H17.4166C18.1132 16.625 18.4642 16.1605 18.4642 15.8333V4.75C18.4642 4.42287 18.1132 3.95833 17.4166 3.95833H4.58328ZM1.96423 4.75C1.96423 3.32823 3.25481 2.375 4.58328 2.375H17.4166C18.7451 2.375 20.0357 3.32823 20.0357 4.75V15.8333C20.0357 17.2551 18.7451 18.2083 17.4166 18.2083H4.58328C3.25481 18.2083 1.96423 17.2551 1.96423 15.8333V4.75Z" fill="#FAFAFA"/>
<path fill-rule="evenodd" clip-rule="evenodd" d="M14.6667 0.791748C15.1006 0.791748 15.4524 1.14619 15.4524 1.58341V4.75008C15.4524 5.18731 15.1006 5.54175 14.6667 5.54175C14.2328 5.54175 13.881 5.18731 13.881 4.75008V1.58341C13.881 1.14619 14.2328 0.791748 14.6667 0.791748Z" fill="#FAFAFA"/>
<path fill-rule="evenodd" clip-rule="evenodd" d="M7.33332 0.791748C7.76726 0.791748 8.11904 1.14619 8.11904 1.58341V4.75008C8.11904 5.18731 7.76726 5.54175 7.33332 5.54175C6.89938 5.54175 6.54761 5.18731 6.54761 4.75008V1.58341C6.54761 1.14619 6.89938 0.791748 7.33332 0.791748Z" fill="#FAFAFA"/>
<path fill-rule="evenodd" clip-rule="evenodd" d="M1.96423 7.91667C1.96423 7.47944 2.31601 7.125 2.74995 7.125H19.2499C19.6839 7.125 20.0357 7.47944 20.0357 7.91667C20.0357 8.35389 19.6839 8.70833 19.2499 8.70833H2.74995C2.31601 8.70833 1.96423 8.35389 1.96423 7.91667Z" fill="#FAFAFA"/>
</svg>
