<svg width="23" height="36" viewBox="0 0 23 36" fill="none" xmlns="http://www.w3.org/2000/svg">
<path d="M22.7072 8.75982C22.7773 7.99835 22.5472 7.23958 22.0654 6.64385C21.5836 6.04812 20.888 5.6621 20.1254 5.56737L19.6256 2.4439C19.525 1.86916 19.2555 1.337 18.851 0.914693C18.4465 0.492391 17.9252 0.198913 17.3531 0.0713666C16.781 -0.0561801 16.1838 -0.0120686 15.6369 0.198124C15.0899 0.408316 14.618 0.775151 14.2805 1.25225C13.9375 0.764345 13.4534 0.391868 12.8925 0.184312C12.3316 -0.0232445 11.7206 -0.0560519 11.1405 0.0902493C10.5604 0.236551 10.0388 0.555033 9.64503 1.00337C9.25122 1.45172 9.00385 2.00869 8.93579 2.60028C8.51637 2.33748 8.03687 2.18471 7.54206 2.15624C7.04724 2.12778 6.55325 2.22453 6.10619 2.43748C5.65913 2.65043 5.27358 2.97262 4.98554 3.37398C4.69751 3.77534 4.51637 4.24279 4.45905 4.73267C3.97359 4.44637 3.41587 4.30447 2.85189 4.32375C2.28791 4.34303 1.74129 4.5227 1.27673 4.84147C0.812164 5.16024 0.449109 5.60478 0.230534 6.12247C0.0119584 6.64017 -0.0529854 7.20933 0.0433888 7.7626L1.06151 14.1239C1.12461 14.4815 1.25393 14.8243 1.44289 15.1348C1.28556 15.9187 1.30961 16.7279 1.51322 17.5011L2.35064 20.6164C2.56378 21.7526 3.42492 22.6723 4.23921 23.422L5.06501 24.1832L5.06851 33.8957C5.06948 34.4537 5.29271 34.9885 5.68927 35.3829C6.08584 35.7773 6.62338 35.9992 7.18409 36H16.562C16.8479 36 17.1308 35.9424 17.3937 35.8306C17.6566 35.7188 17.894 35.5552 18.0916 35.3495C18.2892 35.1439 18.4428 34.9006 18.5432 34.6342C18.6436 34.3678 18.6887 34.084 18.6758 33.7998L18.1421 22.0741L20.1465 20.3427C21.3437 19.3024 22.079 17.8333 22.192 16.2558C22.192 16.2558 22.7069 8.76312 22.7072 8.75982ZM16.3987 1.20693C16.8614 1.13208 17.3351 1.23977 17.7193 1.50708C18.1034 1.7744 18.3676 2.18027 18.4557 2.6384L18.939 5.6573C18.5709 5.76032 18.2267 5.93425 17.9259 6.16921L15.6901 7.86935L14.9514 3.25529C14.8709 2.79275 14.9781 2.31734 15.2494 1.93333C15.5207 1.54932 15.934 1.28809 16.3987 1.20693ZM11.5617 1.20693C12.0246 1.13097 12.499 1.23821 12.8834 1.5057C13.2679 1.7732 13.5319 2.17973 13.6191 2.6384L14.5902 8.70624L12.7825 10.0812C12.5023 10.3032 12.265 10.5741 12.0822 10.8806C11.8358 10.7583 11.6217 10.5802 11.4569 10.3608C11.2922 10.1413 11.1813 9.88646 11.1333 9.6167L10.1143 3.25529C10.0337 2.79272 10.1409 2.31727 10.4123 1.93325C10.6837 1.54923 11.097 1.28802 11.5617 1.20693ZM5.93338 4.08539C6.06724 3.89485 6.23775 3.73263 6.43504 3.6081C6.63232 3.48357 6.85247 3.39922 7.08274 3.35991C7.54756 3.28092 8.02495 3.38701 8.41184 3.65526C8.60233 3.78754 8.76468 3.95594 8.8896 4.1508C9.01452 4.34566 9.09954 4.56316 9.13979 4.79079L10.1585 11.1521C10.2354 11.5885 10.145 12.0377 9.90499 12.4109C9.66501 12.7841 9.29301 13.0541 8.86258 13.1675C8.43214 13.2808 7.97463 13.2293 7.58054 13.0231C7.18644 12.8169 6.88449 12.471 6.73439 12.0539L5.63604 5.40757C5.59527 5.17856 5.60056 4.94379 5.6516 4.71684C5.70264 4.48988 5.79842 4.27526 5.93338 4.08539ZM1.51055 6.2464C1.64442 6.05587 1.81491 5.89365 2.01219 5.76912C2.20946 5.64458 2.42959 5.56021 2.65985 5.52087C3.06834 5.45333 3.48774 5.52815 3.84721 5.7327C4.20668 5.93724 4.48419 6.25896 4.63286 6.64354L5.73501 13.3132C5.8157 13.7749 5.70914 14.2496 5.43868 14.6332C5.16822 15.0168 4.75594 15.2781 4.29221 15.3598C3.82847 15.4414 3.35112 15.3368 2.96479 15.0688C2.57846 14.8008 2.31468 14.3913 2.23126 13.9301L1.21314 7.56882C1.17232 7.33979 1.17757 7.10498 1.22858 6.87798C1.27959 6.65098 1.37535 6.43631 1.51031 6.2464H1.51055ZM21.0083 16.1759C20.9179 17.4404 20.3287 18.6181 19.3691 19.452L17.1756 21.3469C16.0289 22.169 14.6738 22.6553 13.2638 22.7507C13.1105 22.7612 12.9674 22.8306 12.8645 22.9441C12.7616 23.0576 12.707 23.2065 12.7121 23.3592C12.7173 23.512 12.7819 23.6569 12.8922 23.7632C13.0026 23.8696 13.1501 23.9292 13.3038 23.9294C13.3171 23.9294 13.331 23.9289 13.3449 23.928C14.6244 23.8402 15.8689 23.4735 16.9902 22.854L17.4909 33.8535C17.4965 33.9783 17.4766 34.103 17.4325 34.22C17.3883 34.337 17.3208 34.4439 17.234 34.5342C17.1472 34.6245 17.0429 34.6964 16.9274 34.7455C16.8119 34.7946 16.6876 34.8199 16.562 34.8199H7.18409C6.93774 34.8195 6.7016 34.722 6.52737 34.5486C6.35315 34.3753 6.25506 34.1404 6.25457 33.8953L6.25107 23.9256C6.25108 23.8443 6.23423 23.764 6.20157 23.6896C6.16892 23.6152 6.12116 23.5483 6.0613 23.4931L5.0455 22.5563C4.31934 21.996 3.78249 21.2284 3.50676 20.3561L2.65872 17.197C2.57014 16.8654 2.52382 16.5241 2.52084 16.181C2.94167 16.4231 3.41626 16.5575 3.90213 16.5723C4.38799 16.5871 4.86996 16.4818 5.30489 16.2658C5.73983 16.0498 6.11415 15.7299 6.39434 15.3347C6.67454 14.9394 6.85187 14.4812 6.91046 14.001C7.33318 14.2488 7.81132 14.3876 8.30158 14.4051C8.79184 14.4225 9.27873 14.318 9.71816 14.101C10.1576 13.884 10.5357 13.5613 10.8181 13.1622C11.1006 12.7631 11.2786 12.3002 11.3359 11.8154C11.4481 11.883 11.5647 11.9432 11.685 11.9955C11.6824 12.0143 11.6751 12.0317 11.6731 12.0506C11.5838 12.7987 11.7881 13.5521 12.2432 14.1541C10.307 14.9577 8.67568 16.35 7.58249 18.1318C7.5421 18.198 7.51521 18.2715 7.50336 18.348C7.49151 18.4246 7.49494 18.5027 7.51344 18.578C7.53194 18.6532 7.56515 18.7241 7.61118 18.7866C7.65721 18.8491 7.71516 18.9019 7.78172 18.9421C7.84827 18.9823 7.92213 19.0091 7.99908 19.0208C8.07602 19.0326 8.15455 19.0292 8.23017 19.0108C8.30579 18.9924 8.37703 18.9594 8.43982 18.9136C8.5026 18.8678 8.55571 18.8101 8.5961 18.7439C9.58377 17.1319 11.0706 15.8826 12.8331 15.1837L13.2579 15.0161C13.6798 15.2337 14.1479 15.3478 14.6231 15.349C15.0129 15.346 15.3981 15.2661 15.7566 15.1141L15.712 15.738C15.7063 15.8153 15.7161 15.8929 15.7406 15.9665C15.7652 16.04 15.8041 16.108 15.855 16.1666C15.906 16.2252 15.9681 16.2732 16.0378 16.3079C16.1074 16.3426 16.1832 16.3633 16.2609 16.3688C16.2754 16.3696 16.2899 16.3702 16.3038 16.3702C16.4536 16.37 16.5978 16.3134 16.7074 16.2117C16.817 16.11 16.8838 15.9709 16.8945 15.8222L17.0037 14.2976L17.699 13.7686L18.8977 13.7539C19.055 13.7529 19.2054 13.6898 19.316 13.5784C19.4265 13.4671 19.488 13.3166 19.487 13.1601C19.486 13.0036 19.4225 12.8539 19.3106 12.7439C19.1987 12.6339 19.0475 12.5727 18.8902 12.5737H18.8827L17.4875 12.591C17.3599 12.5927 17.2363 12.6352 17.1349 12.7123L15.7189 13.7894C15.4425 14.0061 15.1077 14.1364 14.7569 14.1638C14.4061 14.1912 14.0549 14.1145 13.7479 13.9433C13.441 13.7721 13.1919 13.5142 13.0322 13.2021C12.8726 12.8901 12.8095 12.5379 12.851 12.1902C12.8775 11.9605 12.9494 11.7384 13.0624 11.5364C13.1755 11.3345 13.3276 11.1568 13.51 11.0135L18.6532 7.10181C18.9263 6.88762 19.2565 6.75778 19.603 6.72835C19.9495 6.69892 20.297 6.77119 20.6027 6.93622C20.9083 7.10125 21.1586 7.35181 21.3227 7.6569C21.4868 7.96199 21.5573 8.30824 21.5257 8.65283L21.0083 16.1759ZM11.5638 23.5639C11.5638 23.7204 11.5013 23.8705 11.3901 23.9812C11.2789 24.0919 11.1281 24.154 10.9708 24.154H9.80926C9.65198 24.154 9.50114 24.0919 9.38993 23.9812C9.27871 23.8705 9.21623 23.7204 9.21623 23.5639C9.21623 23.4074 9.27871 23.2573 9.38993 23.1467C9.50114 23.036 9.65198 22.9738 9.80926 22.9738H10.9705C11.0484 22.9738 11.1255 22.9891 11.1975 23.0188C11.2695 23.0485 11.3349 23.092 11.3899 23.1468C11.445 23.2016 11.4887 23.2667 11.5185 23.3383C11.5482 23.41 11.5636 23.4867 11.5635 23.5642L11.5638 23.5639Z" fill="#F1F1F1"/>
</svg>
