<svg width="466" height="946" viewBox="0 0 466 946" fill="none" xmlns="http://www.w3.org/2000/svg">
<g filter="url(#filter0_ii_316_3705)">
<path d="M400.942 0.500151H64.5073C29.0653 0.500151 0.500151 29.0564 0.500151 64.4873V881.513C0.500151 916.944 29.0653 945.5 64.5073 945.5H400.942C436.384 945.5 464.949 916.944 464.949 881.513V64.4873C464.949 29.0564 436.384 0.500151 400.942 0.500151ZM205.746 27.4699H263.406C264.993 27.4699 266.051 28.5276 266.051 30.114C266.051 31.7005 264.993 32.7581 263.406 32.7581H205.746C204.159 32.7581 203.101 31.7005 203.101 30.114C203.101 29.0564 204.159 27.4699 205.746 27.4699ZM439.029 869.35C439.029 896.848 417.34 918.001 390.891 918.001H76.145C49.1668 918.001 28.0074 895.791 28.0074 869.35V71.3619C28.0074 43.8633 49.6958 22.7106 76.145 22.7106H117.935C117.406 33.8158 119.522 50.738 131.688 56.0262C134.333 57.0838 136.978 57.0838 139.623 57.0838H326.355C332.174 57.0838 337.464 56.555 341.167 51.7956C345.398 46.5074 350.159 37.5175 349.101 22.7106H390.891C418.398 22.7106 439.558 44.921 439.558 71.3619V869.35H439.029Z" fill="#F8F9FA"/>
</g>
<path d="M400.942 0.500151H64.5073C29.0653 0.500151 0.500151 29.0564 0.500151 64.4873V881.513C0.500151 916.944 29.0653 945.5 64.5073 945.5H400.942C436.384 945.5 464.949 916.944 464.949 881.513V64.4873C464.949 29.0564 436.384 0.500151 400.942 0.500151ZM205.746 27.4699H263.406C264.993 27.4699 266.051 28.5276 266.051 30.114C266.051 31.7005 264.993 32.7581 263.406 32.7581H205.746C204.159 32.7581 203.101 31.7005 203.101 30.114C203.101 29.0564 204.159 27.4699 205.746 27.4699ZM439.029 869.35C439.029 896.848 417.34 918.001 390.891 918.001H76.145C49.1668 918.001 28.0074 895.791 28.0074 869.35V71.3619C28.0074 43.8633 49.6958 22.7106 76.145 22.7106H117.935C117.406 33.8158 119.522 50.738 131.688 56.0262C134.333 57.0838 136.978 57.0838 139.623 57.0838H326.355C332.174 57.0838 337.464 56.555 341.167 51.7956C345.398 46.5074 350.159 37.5175 349.101 22.7106H390.891C418.398 22.7106 439.558 44.921 439.558 71.3619V869.35H439.029Z" stroke="#767676" stroke-opacity="0.3"/>
<defs>
<filter id="filter0_ii_316_3705" x="0" y="0" width="469.451" height="950.001" filterUnits="userSpaceOnUse" color-interpolation-filters="sRGB">
<feFlood flood-opacity="0" result="BackgroundImageFix"/>
<feBlend mode="normal" in="SourceGraphic" in2="BackgroundImageFix" result="shape"/>
<feColorMatrix in="SourceAlpha" type="matrix" values="0 0 0 0 0 0 0 0 0 0 0 0 0 0 0 0 0 0 127 0" result="hardAlpha"/>
<feOffset dx="4" dy="1"/>
<feGaussianBlur stdDeviation="3"/>
<feComposite in2="hardAlpha" operator="arithmetic" k2="-1" k3="1"/>
<feColorMatrix type="matrix" values="0 0 0 0 0 0 0 0 0 0 0 0 0 0 0 0 0 0 0.25 0"/>
<feBlend mode="normal" in2="shape" result="effect1_innerShadow_316_3705"/>
<feColorMatrix in="SourceAlpha" type="matrix" values="0 0 0 0 0 0 0 0 0 0 0 0 0 0 0 0 0 0 127 0" result="hardAlpha"/>
<feOffset dy="4"/>
<feGaussianBlur stdDeviation="6"/>
<feComposite in2="hardAlpha" operator="arithmetic" k2="-1" k3="1"/>
<feColorMatrix type="matrix" values="0 0 0 0 0 0 0 0 0 0 0 0 0 0 0 0 0 0 0.25 0"/>
<feBlend mode="normal" in2="effect1_innerShadow_316_3705" result="effect2_innerShadow_316_3705"/>
</filter>
</defs>
</svg>
