<svg width="36" height="33" viewBox="0 0 36 33" fill="none" xmlns="http://www.w3.org/2000/svg">
<path fill-rule="evenodd" clip-rule="evenodd" d="M20.8079 1.60235C21.5848 1.94317 22.3518 2.75695 23.5054 3.00147C24.9498 3.30711 26.2819 2.83104 27.4171 2.76005C28.5903 2.68595 29.4303 3.01442 30.0476 3.74732C30.6673 4.48393 31.1337 5.71574 31.0699 7.51063C31.0061 9.38209 31.9522 10.5016 32.9684 11.5784C33.8624 12.5243 34.0863 12.8299 34.2146 14.7112C34.3803 17.1291 34.4735 19.5476 34.719 21.9562C34.9074 23.8141 34.6325 25.4553 33.5936 26.613C32.3928 27.9473 31.2325 29.3273 29.9764 30.6097C28.9063 31.7032 27.3588 31.3432 26.1285 31.1475C23.8177 30.7801 21.5075 30.4071 19.1942 30.0379C18.4272 29.9163 17.9344 29.623 17.6086 29.2365C17.2852 28.8512 17.1196 28.3524 17.1098 27.7707C17.1042 27.2564 17.2349 26.684 17.4834 26.1142C18.0308 26.2524 18.6155 26.3141 19.2193 26.3141C20.4404 26.3141 21.5817 26.0598 22.4598 25.4491C22.8083 25.2108 23.1022 24.9058 23.336 24.5551C23.5182 24.8249 23.7318 25.0731 23.9748 25.2818C24.8031 25.9887 25.9052 26.3141 27.0778 26.3141C28.2473 26.3141 29.3573 25.9887 30.1844 25.2818C31.0091 24.5705 31.5172 23.4776 31.5172 22.1396V13.1078C31.5246 12.2792 30.2777 12.2792 30.2838 13.1078L30.2875 22.1384C30.2875 23.1769 29.9421 23.8623 29.3861 24.3347C28.8327 24.8101 28.0209 25.0743 27.0778 25.0743C26.1322 25.0743 25.3265 24.8101 24.7706 24.3347C24.2184 23.8617 23.8692 23.1769 23.8692 22.1384V10.5522C23.8729 10.2045 23.5913 9.92178 23.2427 9.92794C22.9071 9.93473 22.6389 10.2144 22.642 10.5522V22.139C22.642 23.0393 22.3769 23.9944 21.7541 24.4309C21.162 24.8496 20.2606 25.075 19.2193 25.075C18.1805 25.075 17.2411 24.8946 16.6851 24.4309C15.9979 23.8592 15.7801 23.2961 15.7801 22.5922V10.9671C15.7868 10.6194 15.5027 10.333 15.1542 10.3398C14.8118 10.3429 14.5406 10.6262 14.5473 10.9671V22.5922C14.5473 23.4764 14.2209 24.0197 13.6325 24.4309C13.0452 24.8428 12.15 25.075 11.1179 25.075C10.0858 25.075 9.19425 24.8428 8.60581 24.4309C8.01429 24.0191 7.6854 23.4764 7.6854 22.5922V12.9157C7.71731 12.0599 6.42628 12.0599 6.45819 12.9157V22.5922C6.45819 22.7527 6.46801 22.9108 6.48703 23.0651H3.80926C3.09318 23.0651 2.49246 22.7336 2.01937 22.0748C1.54322 21.4154 1.2266 20.4182 1.2266 19.187V11.4295C1.2266 9.58031 1.79234 7.76071 3.49632 7.481C4.40384 7.33343 5.70468 7.5996 6.88649 6.90436C8.22598 6.1233 8.70521 4.6692 9.38938 3.8023C9.80847 3.27131 10.8344 2.93046 11.6677 3.04285C12.5728 3.1614 13.7165 3.74369 15.0204 3.45163C16.3783 3.14971 17.1772 2.04939 18.0216 1.56717C18.9481 1.03617 19.9452 1.22262 20.8079 1.60235ZM17.3595 0.521277C16.3016 1.19059 15.5604 2.06488 14.7523 2.24515C13.9975 2.41249 13.017 1.97161 11.8303 1.81479C10.5976 1.65055 9.22002 2.02344 8.42418 3.03295C7.5547 4.13631 7.08775 5.35766 6.26736 5.83989C5.60221 6.23257 4.50263 6.00719 3.31101 6.2585C0.632627 6.82468 0 9.1882 0 11.4289V19.1858C0 20.6263 0.365096 21.8778 1.02963 22.8003C1.6911 23.7197 2.68882 24.2988 3.81049 24.2988H6.88158C7.1307 24.7625 7.4823 25.1509 7.90446 25.4473C8.77639 26.0579 9.91156 26.3123 11.1191 26.3123C12.331 26.3123 13.4588 26.0579 14.3307 25.4473C14.6504 25.225 14.9315 24.9447 15.1554 24.6242C15.4972 25.1064 15.8298 25.4152 16.3348 25.6652C16.0341 26.3604 15.8715 27.0841 15.8813 27.7855C15.8942 28.6055 16.1433 29.4026 16.6735 30.033C17.2049 30.6634 18.0068 31.1042 19.0064 31.2648C21.3172 31.6309 23.6311 31.9853 25.942 32.3681C27.7214 32.6639 29.7101 32.7257 30.8858 31.442C32.1007 30.1176 33.2825 28.7599 34.5005 27.4416C36.0671 25.7437 36.0824 23.8135 35.948 21.8686C35.7793 19.4538 35.6087 17.0384 35.4436 14.623C35.3056 12.607 34.8705 11.6777 33.8618 10.7256C32.7628 9.68339 32.3026 8.66404 32.2989 7.51006C32.2989 5.53177 31.8676 3.99496 30.9913 2.95027C30.1163 1.90802 28.8032 1.43566 27.3422 1.52828C25.9806 1.61535 24.7669 2.00124 23.7625 1.78822C23.0433 1.63756 22.3377 0.978132 21.3749 0.508886C20.0735 -0.128312 18.5235 -0.214096 17.3595 0.521277Z" fill="#C4C4C4"/>
</svg>
