<svg width="89" height="89" viewBox="0 0 89 89" fill="none" xmlns="http://www.w3.org/2000/svg">
<path d="M89 64.9679C88.7996 64.9679 88.499 64.9679 88.2986 64.9679C86.1946 65.0681 83.8902 64.6673 82.9885 65.9698C82.0868 67.3725 83.1889 69.9775 84.6917 71.5805C83.6898 71.7809 82.5877 71.9813 81.3854 71.9813C76.2757 72.0815 72.3682 69.9775 70.3644 68.7752C70.9656 71.8811 71.6669 75.0872 72.3682 78.2933C72.4684 78.6941 73.7709 83.7036 70.8654 86.6092C69.1621 88.3124 66.2566 89.4145 64.7537 88.3124C63.4512 87.3105 64.0524 85.1063 64.1526 83.0023C64.2528 76.8906 60.0447 72.2819 54.5342 66.1702C51.9293 63.2647 47.6211 58.8563 40.7079 55.4498C33.9951 52.1435 27.683 51.7427 23.475 51.4421C19.9683 51.2417 16.9626 51.2417 14.7584 51.3419C14.0571 51.6425 6.64294 54.6482 2.33472 50.9412C1.13243 49.8391 -0.470621 47.6349 0.130525 46.0318C0.63148 44.6291 2.63529 44.3286 5.54083 43.8276C9.14771 43.2265 12.0533 43.4268 12.3538 43.4268C12.3538 43.4268 19.5676 43.8276 29.0857 43.4268C30.0876 43.4268 30.8892 43.3267 31.6907 43.3267C30.0876 42.5251 28.685 41.423 27.5829 39.9202C23.8758 35.0108 25.0781 27.8972 30.1878 24.1902C35.2976 20.4831 42.3109 21.3848 46.018 26.3944C47.1201 27.797 47.7213 29.5003 48.0218 31.1033C48.2222 30.3018 48.4226 29.4001 48.7232 28.3982C49.5247 25.3925 50.6268 21.2846 51.1277 15.5737C51.3281 13.2693 51.5285 10.5642 51.4283 7.45827C51.4283 3.55082 51.2279 1.64719 52.5304 0.645279C53.6325 -0.156249 55.3358 -0.156249 56.5381 0.344706C58.0409 1.04604 58.6421 2.54891 58.8424 3.04986C60.9465 7.85903 57.9407 18.2789 57.2394 23.1883C56.5381 28.1978 57.1392 35.4116 63.1507 44.8295C64.1526 46.633 65.5553 49.0375 67.7595 51.6425C69.8635 54.0471 73.4703 58.4555 79.4818 61.361C84.0906 63.3649 87.7977 63.7656 89 64.9679Z" fill="#DAFF7C"/>
</svg>
