<svg width="242" height="148" viewBox="0 0 242 148" fill="none" xmlns="http://www.w3.org/2000/svg">
<path d="M39.8779 76.7518C39.5744 77.4203 38.3604 77.785 37.5107 78.0281C37.2072 78.1496 36.9644 78.1496 36.6609 78.2104L38.4211 74.017C39.5137 75.2325 40.242 76.0833 39.8779 76.7518Z" fill="#FAFAFA"/>
<path d="M33.3837 57.4862C33.323 58.641 33.2623 60.4034 33.5657 62.4698C33.8085 64.4145 34.2941 67.8179 36.4185 71.2821C37.0862 72.376 37.8146 73.2876 38.4822 74.0169L36.722 78.2103C36.4185 78.2711 36.115 78.2711 35.9329 78.3319C35.326 78.1496 34.5976 77.7849 33.8692 77.3595C31.2593 75.7794 29.9239 73.4699 29.3171 72.1329C28.6494 73.9561 27.9817 75.7794 27.2534 77.6026C27.1927 77.8457 26.2215 80.8237 23.6722 81.3706C22.3369 81.6745 20.3946 81.3098 20.0304 80.2767C19.6662 79.3651 20.698 78.3927 21.4264 77.3595C23.4901 74.3208 22.8832 70.5528 21.9727 65.63C21.5478 63.2598 20.8194 59.6741 18.3916 55.663C16.0244 51.8342 12.8681 49.5248 10.8651 48.0054C9.16557 46.7292 7.58744 45.7568 6.43419 45.149C6.00931 45.0275 1.21423 44.1766 0.243073 40.8948C0.000284059 39.9224 -0.121109 38.2815 0.728653 37.6738C1.45702 37.1876 2.54957 37.613 4.24909 38.2815C6.3128 39.1324 7.70884 40.1655 7.89093 40.2871C7.89093 40.2871 11.4721 42.8396 16.3885 45.696C17.1169 46.1214 17.6632 46.4253 18.1488 46.7292C17.5418 45.8175 17.1169 44.7236 17.0562 43.5081C16.8134 39.8009 19.6662 36.5191 23.4901 36.276C27.3141 36.0329 30.5916 38.8285 30.8951 42.5357C30.9558 43.3866 30.8344 44.1766 30.6523 44.9667C30.8344 44.7844 31.0772 44.6021 31.3199 44.359C32.716 43.0827 34.5976 41.3202 36.722 38.5854C37.5718 37.4914 38.5429 36.0936 39.5141 34.5135C40.7887 32.5079 41.2743 31.4748 42.3668 31.3532C43.2166 31.2924 44.0664 31.8394 44.4913 32.5079C45.0375 33.3588 44.9161 34.2704 44.8554 34.635C44.3699 37.7345 39.4534 42.1711 37.5111 44.4197C35.3867 46.7899 33.3837 50.7403 33.3837 57.4862Z" fill="#FAFAFA"/>
<path d="M96.6905 40.9558C96.7512 41.6851 95.9014 42.5968 95.3552 43.2653C94.9303 43.7515 94.4447 44.1161 94.1412 44.3592C94.0805 44.3592 93.9591 44.42 93.8984 44.42C92.9273 43.4476 92.3203 41.8675 92.8666 41.0166C93.4129 40.2266 94.8089 40.4697 96.0835 40.4089C96.2049 40.4089 96.387 40.4089 96.5084 40.4089C96.5691 40.5912 96.6905 40.7735 96.6905 40.9558Z" fill="#FAFAFA"/>
<path d="M96.4477 40.4087C96.3263 40.4087 96.1442 40.4087 96.0228 40.4087C94.7482 40.4695 93.3521 40.2264 92.8059 41.0164C92.2596 41.8673 92.9272 43.4474 93.8377 44.4198C93.2307 44.5413 92.5631 44.6629 91.8347 44.6629C88.7391 44.7237 86.3719 43.4474 85.158 42.7181C85.5222 44.6021 85.9471 46.5469 86.3719 48.4917C86.4326 48.7348 87.2217 51.7735 85.4615 53.536C84.4296 54.5691 82.6694 55.2377 81.759 54.5691C80.9699 53.9614 81.3341 52.6243 81.3948 51.3481C81.4555 47.6408 78.9062 44.8452 75.5678 41.138C73.9897 39.3755 71.3797 36.7014 67.1916 34.6351C63.1249 32.6296 59.301 32.3865 56.7517 32.2041C54.6273 32.0826 52.8063 32.0826 51.471 32.1434C51.0461 32.3257 46.5545 34.1489 43.9445 31.9003C43.2162 31.2317 42.245 29.8947 42.6092 28.9223C42.9127 28.0715 44.1266 27.8891 45.8869 27.5853C48.072 27.2206 49.8322 27.3422 50.0143 27.3422C50.0143 27.3422 54.3845 27.5853 60.1507 27.3422C60.7577 27.3422 61.2433 27.2814 61.7288 27.2814C60.7577 26.7952 59.9079 26.1267 59.2403 25.2151C56.9945 22.2371 57.7228 17.9221 60.8184 15.6735C63.914 13.4248 68.1628 13.9718 70.4086 17.0105C71.0762 17.8614 71.4404 18.8945 71.6225 19.8669C71.7439 19.3807 71.8653 18.8337 72.0474 18.226C72.533 16.4028 73.2006 13.911 73.5041 10.4469C73.6255 9.04906 73.7469 7.40815 73.6862 5.52414C73.6862 3.15394 73.5648 1.99922 74.3539 1.39148C75.0216 0.905284 76.0534 0.905284 76.7818 1.20916C77.6922 1.63458 78.0564 2.5462 78.1778 2.85007C79.4524 5.76724 77.6315 12.0878 77.2067 15.0657C76.7818 18.1045 77.146 22.4802 80.7878 28.193C81.3948 29.287 82.2445 30.7455 83.5799 32.3257C84.8545 33.7843 87.0396 36.4583 90.6815 38.2208C93.4735 39.4363 95.7193 39.6794 96.4477 40.4087Z" fill="#FAFAFA"/>
<path d="M96.4477 40.4089C96.5691 40.5304 96.6905 40.7128 96.6905 40.9558C96.7512 41.6851 95.9014 42.5968 95.3552 43.2653C94.9303 43.7515 94.4447 44.1161 94.1412 44.3592C94.0805 44.3592 93.9591 44.42 93.8984 44.42C92.9273 43.4476 92.3203 41.8675 92.8666 41.0166C93.4129 40.2266 94.8089 40.4697 96.0835 40.4089C96.1442 40.4697 96.3263 40.4697 96.4477 40.4089Z" fill="#FAFAFA"/>
<path d="M145.977 31.7179C145.977 32.0217 145.916 32.2648 145.855 32.5687C145.613 33.1765 145.188 33.6019 144.824 33.845C144.702 33.1765 144.763 32.5687 145.188 32.1433C145.37 31.8394 145.613 31.7179 145.977 31.7179Z" fill="#FAFAFA"/>
<path d="M145.127 32.0826C144.763 32.508 144.702 33.1765 144.763 33.7843C144.581 33.9058 144.399 34.0274 144.277 34.0881C141.485 35.5467 134.991 34.1489 132.016 33.9666C128.981 33.7843 124.611 34.4528 119.209 38.4031C118.177 39.0716 116.781 40.044 115.325 41.5026C113.929 42.8397 111.44 45.2706 109.923 48.9779C108.587 52.2597 108.709 54.873 107.495 55.0553C106.766 55.1769 105.795 54.3868 105.067 53.8398C104.52 53.4144 104.156 52.989 103.853 52.6851C103.671 52.0166 103.489 51.2873 103.428 50.4365C103.124 47.3977 104.217 44.906 104.885 43.6297C103.003 44.1767 101.121 44.7237 99.2398 45.2099C98.997 45.3314 96.0835 46.3038 94.0198 44.5413C93.9591 44.4806 93.8984 44.4198 93.7771 44.2982C93.8377 44.2982 93.9591 44.2375 94.0198 44.2375C94.3233 43.9944 94.8089 43.6297 95.2338 43.1435C95.8408 42.475 96.6905 41.5634 96.5691 40.8341C96.5691 40.6518 96.4477 40.4695 96.3263 40.2871C99.7861 39.9225 102.335 37.3092 105.734 33.7843C107.373 32.0826 109.862 29.3477 111.622 24.9719C113.322 20.7785 113.322 16.8889 113.322 14.3972C113.382 12.2093 113.2 10.386 113.018 9.10978C112.836 8.68436 110.712 4.3086 112.775 1.57375C113.382 0.783679 114.657 -0.249486 115.628 0.054386C116.478 0.297484 116.781 1.51297 117.206 3.27543C117.752 5.46331 117.752 7.165 117.752 7.40809C117.752 7.40809 117.813 11.7839 118.42 17.4967C118.481 18.2867 118.602 18.9552 118.663 19.5022C119.027 18.6514 119.634 17.8005 120.423 17.132C123.276 14.701 127.585 15.1265 130.074 18.0436C132.563 20.9608 132.259 25.2758 129.406 27.7068C128.981 28.0714 128.496 28.3753 128.01 28.6184C128.132 28.6184 128.253 28.6792 128.375 28.6792C130.256 29.0438 132.745 29.53 136.204 29.5908C137.6 29.6515 139.239 29.5908 141.121 29.4692C143.488 29.3477 144.641 29.1046 145.309 29.8946C145.673 30.3201 145.855 30.9279 145.795 31.4748C145.613 31.7179 145.37 31.8395 145.127 32.0826Z" fill="#FAFAFA"/>
<path d="M145.977 31.7179C145.977 32.0217 145.916 32.2648 145.855 32.5687C145.613 33.1765 145.188 33.6019 144.824 33.845C144.702 33.1765 144.763 32.5687 145.188 32.1433C145.37 31.8394 145.613 31.7179 145.977 31.7179Z" fill="#FAFAFA"/>
<path d="M191.075 63.0166C190.893 63.6851 189.74 64.2929 188.951 64.6575C188.344 64.9614 187.797 65.1437 187.373 65.2652C186.705 65.2045 185.916 65.0221 185.187 64.7183C182.274 63.6243 180.514 61.6188 179.664 60.4641C179.361 62.4088 178.996 64.3536 178.693 66.2376C178.632 66.4807 178.268 69.5802 175.961 70.6134C174.626 71.1604 172.745 71.1604 172.138 70.2487C171.652 69.3979 172.441 68.2432 172.987 67.0885C174.444 63.6851 173.109 60.1602 171.288 55.4198C170.438 53.1711 169.042 49.7678 165.886 46.3036C162.851 42.961 159.33 41.3201 157.085 40.2262C155.142 39.2538 153.443 38.7068 152.168 38.2814C151.743 38.2814 146.827 38.2814 145.249 35.3034C145.067 34.878 144.824 34.3311 144.763 33.7841C145.127 33.541 145.552 33.1156 145.795 32.5078C145.856 32.2647 145.916 31.9608 145.916 31.657C146.584 31.5962 147.495 31.7785 148.648 31.9608C150.833 32.3863 152.411 33.1763 152.654 33.2371C152.654 33.2371 156.66 35.0603 162.062 36.9444C162.73 37.1874 163.336 37.3698 163.822 37.5521C162.972 36.762 162.305 35.6681 162.001 34.4526C161.03 30.8061 163.215 27.0989 166.918 26.1265C170.62 25.1541 174.383 27.2812 175.355 30.8669C175.658 32.0216 175.658 33.1156 175.355 34.2095C175.658 33.7841 176.022 33.3587 176.447 32.7509C177.54 31.2316 179.057 29.1044 180.635 26.0657C181.242 24.7895 181.971 23.3309 182.638 21.5684C183.488 19.3805 183.852 18.2258 184.823 17.922C185.612 17.6789 186.583 18.0435 187.13 18.6512C187.797 19.3805 187.858 20.2922 187.858 20.6568C187.98 23.8171 183.974 29.0437 182.456 31.657C180.939 34.3918 179.725 38.5245 180.999 45.2097C181.121 46.4252 181.485 48.1269 182.153 50.0716C182.76 51.8949 183.852 55.1767 186.584 58.1546C189.011 60.8287 191.439 61.8011 191.075 63.0166Z" fill="#FAFAFA"/>
<path d="M196.113 71.1604C194.717 72.1328 193.381 73.2267 192.228 74.503C191.985 74.0168 191.864 73.4698 191.803 72.8621C191.743 71.8897 191.985 70.2487 193.017 69.8841C193.746 69.5194 194.717 70.188 196.113 71.1604Z" fill="#FAFAFA"/>
<path d="M236.658 77.1772C236.416 77.7849 235.93 78.4535 235.384 79.0612C234.595 77.8457 233.684 76.5695 232.592 75.354C232.531 75.2324 232.41 75.1716 232.349 75.1109C233.563 73.9562 234.17 73.3484 235.02 73.47C235.869 73.5307 236.537 74.3208 236.84 75.0501C237.144 75.9617 236.84 76.8733 236.658 77.1772Z" fill="#FAFAFA"/>
<path d="M235.384 79.0614C233.199 81.3708 229.193 83.6195 227.25 85.0173C224.762 86.8405 221.909 90.1831 220.392 96.7468C220.027 97.9015 219.663 99.5424 219.42 101.609C219.238 103.554 218.874 106.957 220.149 110.846C221.302 114.25 223.002 116.134 222.212 117.045C221.727 117.592 220.513 117.653 219.602 117.714C218.935 117.775 218.389 117.714 217.964 117.653C217.417 117.289 216.75 116.863 216.203 116.255C214.018 114.128 213.229 111.515 212.926 110.117C211.833 111.758 210.741 113.338 209.648 114.979C209.527 115.161 207.888 117.896 205.278 117.714C203.821 117.714 202.122 116.863 201.94 115.83C201.818 114.858 203.093 114.189 204.003 113.277C206.735 110.786 206.917 107.018 207.22 101.973C207.342 99.6032 207.524 95.8959 206.006 91.4594C204.55 87.1444 202.061 84.288 200.483 82.2825C199.087 80.6416 197.751 79.3653 196.78 78.4537C196.416 78.3321 193.321 76.9343 192.167 74.5033C193.381 73.2878 194.656 72.1939 196.052 71.1607C196.113 71.2215 196.173 71.2215 196.173 71.2823C197.994 72.6193 199.148 73.9564 199.269 74.0779C199.269 74.0779 202.182 77.4205 206.31 81.3708C206.917 81.9178 207.402 82.404 207.827 82.8294C207.524 81.857 207.463 80.8239 207.584 79.7907C208.191 76.0835 211.712 73.5917 215.475 74.1995C219.238 74.8072 221.848 78.3321 221.241 81.9786C221.12 82.5863 220.938 83.1333 220.695 83.6803C220.816 83.6195 220.938 83.5587 220.999 83.498C222.637 82.5863 224.944 81.3101 227.615 79.1222C228.707 78.2713 229.982 77.1774 231.317 75.8404C231.621 75.5365 231.863 75.2934 232.106 75.1111C232.167 75.1719 232.288 75.2934 232.349 75.3542C233.684 76.5697 234.595 77.8459 235.384 79.0614Z" fill="#FAFAFA"/>
<path d="M38.4817 74.017L36.7215 78.2104C36.9643 78.1496 37.2677 78.0889 37.5712 78.0281C38.421 77.785 39.6349 77.4203 39.9384 76.7518C40.2419 76.0833 39.5135 75.2325 38.4817 74.017Z" fill="#FAFAFA"/>
<path d="M90.2567 144.637C90.014 144.394 89.7105 144.211 89.407 144.15C88.0716 143.907 86.8577 143.482 85.6438 142.935C84.3691 142.327 83.0945 141.537 82.0019 140.626C80.181 139.106 78.7243 137.222 77.6924 135.095C77.5103 134.73 77.3889 134.427 77.2068 134.001L70.7122 118.747L68.4057 113.338L65.1281 105.68L62.7609 100.089L56.8126 86.05L48.9219 67.4531L47.8901 65.0829L47.0403 63.0165L46.9189 62.7127C46.5547 62.0441 45.8264 61.5579 45.0373 61.5579C44.1875 61.5579 43.4592 62.0441 43.1557 62.7734L43.095 62.895L41.1527 67.3923L38.7248 73.1659L38.4213 73.9559C39.4532 75.2322 40.1815 76.0223 39.8173 76.7516C39.5138 77.4201 38.2999 77.7847 37.4501 78.0278C37.1467 78.1494 36.9039 78.1494 36.6004 78.2101L28.3456 97.5972L27.2531 100.089L24.8859 105.68L21.6082 113.338L19.3017 118.747L12.8071 134.062H12.6857C11.7146 136.614 10.1364 138.924 8.13343 140.686C7.04088 141.659 5.82694 142.388 4.55229 143.056C3.21695 143.664 1.76022 144.15 0.303486 144.454H0.242788C0.121393 144.515 0 144.576 0 144.758V145.548C0 146.338 0.667668 147.007 1.45673 147.007H7.52646L7.64785 146.703C7.70855 146.764 7.82994 146.885 7.89064 147.007H27.1924C27.9207 147.007 28.467 146.399 28.467 145.731C28.467 145.366 28.3456 145.062 28.1028 144.819C27.86 144.576 27.5565 144.454 27.1924 144.454H24.4003C21.7903 144.454 19.4838 142.935 18.3913 140.686C17.9664 139.835 17.7236 138.802 17.7236 137.769C17.7236 136.371 18.1485 135.156 18.8768 134.062H18.7554L25.2501 118.747H58.1479L64.6425 134.062H64.5211C65.2495 135.156 65.6137 136.371 65.6137 137.708C65.6137 138.802 65.3709 139.775 64.946 140.626C63.8534 142.813 61.6076 144.333 58.9977 144.333C58.8763 144.333 58.7549 144.333 58.6335 144.333C57.7837 144.272 56.9947 144.88 56.9947 145.731C56.9947 146.095 57.1161 146.399 57.3588 146.581C57.6016 146.824 57.9051 146.946 58.2086 146.946H82.3054C82.4268 146.824 82.5482 146.703 82.6696 146.521L82.8517 146.946H89.2856C90.0747 146.946 90.6816 146.338 90.6816 145.548C90.6209 145.184 90.4995 144.88 90.2567 144.637ZM52.9886 113.338H30.3486C29.3168 113.338 28.467 112.487 28.467 111.454C28.467 111.271 28.5277 111.089 28.5277 110.907C28.5884 110.785 28.6491 110.664 28.7098 110.542L30.7734 105.68L33.1406 100.089L39.8173 84.3484C39.878 84.2268 39.9387 84.1053 39.9387 84.0445C40.2422 83.4367 40.9099 83.0113 41.6383 83.0113C42.3666 83.0113 42.9736 83.4367 43.3378 84.0445C43.3378 84.1053 43.3378 84.1053 43.3378 84.1053C43.3985 84.166 43.3985 84.2876 43.4592 84.3484V84.4091L50.1359 100.15L52.5031 105.741L54.5668 110.542C54.6275 110.664 54.6882 110.846 54.7489 111.028C54.8096 111.15 54.8095 111.332 54.8095 111.515C54.9309 112.487 54.0205 113.338 52.9886 113.338Z" fill="#FAFAFA"/>
<path d="M159.452 118.747C159.027 116.863 158.42 115.04 157.631 113.338C156.174 110.36 154.171 107.747 151.683 105.681C149.68 103.979 147.373 102.581 144.945 101.67C145.613 101.183 146.281 100.636 146.948 100.15C151.501 96.1391 154.353 90.244 154.353 83.6803C154.353 77.9068 152.108 72.6194 148.405 68.6691C148.041 68.3044 147.677 67.9398 147.252 67.5751C144.885 65.3872 142.092 63.7463 138.936 62.7132C136.326 61.8623 134.141 61.8015 132.259 61.7408C130.863 61.68 129.71 61.68 128.86 61.7408H95.9625V67.5751C99.6044 67.5751 102.579 70.5531 102.579 74.1995V137.77C102.579 138.438 102.457 139.107 102.275 139.775C102.154 140.079 102.032 140.444 101.911 140.748C100.818 142.935 98.5725 144.394 95.9625 144.455V147.068H136.508C140.393 147.068 144.035 146.156 147.252 144.516C149.194 143.482 150.954 142.267 152.532 140.808C154.535 138.924 156.235 136.676 157.51 134.184C158.906 131.449 159.755 128.41 159.937 125.129C159.937 124.642 159.998 124.156 159.998 123.67C159.937 121.847 159.816 120.267 159.452 118.747ZM115.143 67.4536H128.982C137.965 67.4536 145.309 74.7465 145.309 83.7411C145.309 92.7357 137.965 100.029 128.982 100.029H115.143V67.4536ZM142.699 134.002C139.482 138.013 134.505 140.626 128.982 140.626H115.082V105.62H130.317C135.841 106.045 140.575 108.963 143.488 113.278C144.581 114.918 145.431 116.742 145.916 118.686C146.281 120.084 146.463 121.543 146.463 123.062C146.523 127.256 145.127 131.024 142.699 134.002Z" fill="#FAFAFA"/>
<path d="M236.659 77.1772C236.78 76.8733 237.144 75.9617 236.78 74.9893C236.537 74.26 235.809 73.4699 234.959 73.4092C234.109 73.2876 233.442 73.8954 232.288 75.0501C227.554 69.8843 222.031 68.061 219.785 67.4533C217.236 66.6632 214.565 66.2378 211.773 66.2378C208.981 66.2378 206.249 66.6632 203.761 67.4533C203.518 67.514 203.336 67.5748 203.093 67.6356C200.604 68.4864 198.237 69.6412 196.113 71.1605C194.717 70.1274 193.746 69.5196 192.957 69.8843C191.985 70.2489 191.682 71.8898 191.743 72.8622C191.803 73.47 191.925 73.9561 192.168 74.5031C191.743 74.9285 191.378 75.354 191.014 75.7794C189.861 77.0556 188.89 78.4535 188.04 79.9728C186.401 82.5253 185.005 85.2602 183.913 88.1166C183.245 89.8183 182.699 91.52 182.213 93.2824C181.667 95.4703 181.181 97.719 180.939 100.028C180.756 101.852 180.635 103.736 180.635 105.62C180.635 108.233 180.817 110.785 181.242 113.277C181.242 113.338 181.303 113.399 181.303 113.52C181.606 115.283 181.97 117.045 182.456 118.747C185.248 128.471 189.922 134.062 189.922 134.062C191.196 135.521 192.35 136.615 193.199 137.283C194.899 138.559 195.991 139.228 196.72 139.593C196.72 139.593 196.72 139.593 196.781 139.593C197.388 139.957 197.994 140.322 198.601 140.687C202.425 142.692 206.674 143.786 211.287 143.786C215.839 143.786 220.21 142.692 223.973 140.687C224.398 140.443 224.823 140.2 225.248 139.957H225.308C228.222 138.438 230.832 136.432 233.078 134.062C235.748 131.266 237.873 127.985 239.269 124.338C239.876 122.697 240.422 120.996 240.725 119.233C240.786 118.929 241.029 118.747 241.332 118.747C241.636 118.747 241.939 118.99 241.939 119.355V133.029C241.939 133.394 241.757 133.819 241.514 134.062C240.786 134.791 240.058 135.521 239.269 136.25C237.387 137.891 235.384 139.41 233.26 140.687C230.832 142.206 228.282 143.421 225.551 144.394C220.999 146.035 216.022 146.946 210.862 146.946C208.131 146.946 205.521 146.703 202.972 146.217C200.665 145.792 198.359 145.123 196.174 144.333C193.442 143.361 190.893 142.084 188.465 140.626C185.43 138.742 182.699 136.554 180.21 134.001C176.022 129.686 172.744 124.52 170.62 118.747C169.952 116.984 169.467 115.161 169.042 113.338C168.496 110.846 168.192 108.294 168.071 105.68C168.01 105.194 168.01 104.769 168.01 104.283C168.01 102.885 168.071 101.487 168.192 100.089C168.617 95.8957 169.588 91.8846 171.106 88.1774C174.687 79.4866 180.999 72.1937 189.072 67.5141C195.02 63.9891 201.879 61.9228 209.223 61.6797C209.709 61.6189 210.255 61.6189 210.741 61.6189C215.718 61.6189 220.574 62.4698 225.065 64.0499C225.915 64.3538 226.765 64.6576 227.554 65.0223C228.1 65.2654 228.586 65.4477 229.132 65.6908C229.132 65.6908 229.132 65.6908 229.193 65.6908C229.557 65.8731 229.861 66.0555 230.164 66.177C230.953 66.4809 231.621 66.5417 232.046 66.5417C234.413 66.6024 236.78 65.0831 238.237 62.5913C238.601 61.9228 239.269 61.4974 240.058 61.4974C241.09 61.4974 242 62.3482 242 63.4422V86.4757C242 87.3873 241.272 88.0558 240.422 88.0558C240.058 88.0558 239.694 87.9343 239.39 87.6912C239.087 87.4481 238.904 87.1442 238.783 86.7796C238.297 84.8348 237.387 81.9784 235.505 79.0004C235.93 78.4535 236.416 77.7849 236.659 77.1772Z" fill="#FAFAFA"/>
<path d="M196.113 71.1604C194.717 72.1328 193.381 73.2267 192.228 74.503C191.985 74.0168 191.864 73.4698 191.803 72.8621C191.743 71.8897 191.985 70.2487 193.017 69.8841C193.746 69.5194 194.717 70.188 196.113 71.1604Z" fill="#FAFAFA"/>
<path d="M236.658 77.1772C236.416 77.7849 235.93 78.4535 235.384 79.0612C234.595 77.8457 233.684 76.5695 232.592 75.354C232.531 75.2324 232.41 75.1716 232.349 75.1109C233.563 73.9562 234.17 73.3484 235.02 73.47C235.869 73.5307 236.537 74.3208 236.84 75.0501C237.144 75.9617 236.84 76.8733 236.658 77.1772Z" fill="#FAFAFA"/>
</svg>
