<svg width="44" height="43" viewBox="0 0 44 43" fill="none" xmlns="http://www.w3.org/2000/svg">
<g clip-path="url(#clip0_271_1415)">
<path d="M36.2939 32.4281L38.2445 25.5099C38.8082 23.531 38.704 22.2538 38.1268 21.0177C37.5462 19.7908 37.349 19.2729 37.8275 17.9205C38.5061 16.0032 38.6612 14.2966 38.1841 12.8875C37.7071 11.4784 36.5401 10.5026 35.1079 10.1104L32.0237 9.25865L30.4313 7.44442C29.395 6.26471 27.844 5.68457 26.4121 6.06377L23.7318 6.77245L21.4652 5.59513C20.2962 4.98339 18.8157 4.86593 17.5627 5.70451L14.9122 7.48686L12.3781 7.03822C11.1473 6.82154 9.93027 7.17255 9.06254 7.97027C8.18286 8.77419 7.6311 9.89219 7.17219 11.189L4.60886 18.4323C4.10078 19.868 3.98988 21.2567 4.29604 22.4594C4.61087 23.6652 5.41656 24.6695 6.56115 25.0746L8.99775 25.9368C9.10287 26.4118 9.27969 26.8496 9.53475 27.2317C10.1811 28.19 11.1244 28.8052 12.3124 29.2256C13.8299 29.7626 15.2293 29.7784 16.3417 29.1715C16.428 29.3688 16.5262 29.5599 16.6397 29.7356C16.2424 30.2516 15.9167 30.8138 15.7155 31.4097C15.4194 32.2742 15.3627 33.2339 15.6664 34.1126C15.9669 35.0006 16.6267 35.7553 17.5389 36.2657L23.2709 39.4511C24.1289 39.9215 24.8927 40.3273 25.7406 40.5231C26.5884 40.7189 27.5499 40.6214 28.4212 40.1168L32.9245 37.5101C34.9931 36.3244 35.5024 35.2435 36.2939 32.4281ZM31.9337 35.5127L27.4303 38.1194C27.011 38.367 26.7614 38.3829 26.2908 38.2789C25.8235 38.1657 25.1788 37.8646 24.3641 37.4095L18.6289 34.2334C18.084 33.9259 17.8505 33.5931 17.7309 33.2694C17.6145 32.9364 17.6198 32.563 17.7685 32.1154C17.8701 31.8282 18.0369 31.5224 18.2622 31.2165C18.6262 31.4287 19.0173 31.6193 19.4368 31.7573C21.0248 32.288 22.3092 32.3256 23.5292 31.663C24.0964 33.0102 25.1891 33.7825 26.3564 34.206C27.4717 34.6112 28.6856 34.6551 29.7868 34.1901C30.888 33.7252 31.8192 32.7206 32.2956 31.3467L34.2243 24.5457C34.6534 23.03 33.1099 22.4838 32.6115 23.975L30.2579 30.6256C29.9596 31.4685 29.5497 31.8549 29.0436 32.0719C28.5375 32.2888 27.8638 32.2902 27.1267 32.0293C26.381 31.7654 25.8668 31.3437 25.6098 30.8567C25.3528 30.3697 25.2999 29.8299 25.5755 28.9685L29.08 18.0455C29.3993 17.0328 28.0433 16.5634 27.6666 17.5453L23.5378 28.2474C23.2844 28.9082 22.8727 29.5754 22.333 29.7492C21.8173 29.9107 21.0602 29.872 20.2191 29.5744C19.378 29.2767 18.7651 28.8305 18.4657 28.3806C18.163 27.94 18.1011 27.5637 18.3263 26.8721L21.9046 15.9335C22.2523 14.8684 20.946 14.4791 20.5606 15.4579L16.2886 26.151C16.02 26.8272 15.7438 27.0839 15.2314 27.236C14.7156 27.3975 13.9498 27.3558 13.1087 27.0581C12.2676 26.7605 11.6547 26.3143 11.3553 25.8644C11.0527 25.4237 10.9907 25.0474 11.2159 24.3559L14.0997 15.2143C14.4355 14.1554 13.2321 13.8338 12.8511 14.7725L9.20116 23.5699L7.32819 22.9071C6.85994 22.7414 6.5592 22.4057 6.40131 21.7765C6.23475 21.1444 6.26635 20.2279 6.64331 19.1627L9.20664 11.9193C9.59999 10.8078 10.0445 10.0479 10.4512 9.67074C10.8579 9.29353 11.1934 9.17254 11.9297 9.29762L14.8858 9.82258C15.1623 9.86832 15.4369 9.80917 15.6684 9.65136L18.6796 7.62148C19.01 7.40486 19.8812 7.36923 20.4273 7.64586L23.047 9.01071C23.2767 9.13368 23.5338 9.15169 23.7911 9.0864L26.7818 8.29999C27.5895 8.08553 28.3327 8.49445 28.8043 9.03657L30.599 11.0787C30.731 11.2297 30.9053 11.3435 31.0994 11.4017L34.4677 12.3332C35.4098 12.5936 35.8795 13.0308 36.1218 13.7523C36.3641 14.4739 36.3937 15.6308 35.7779 17.2056C34.8628 19.5708 35.5178 20.5322 36.113 21.9935C36.5712 23.125 36.6502 23.2051 36.1544 24.9369L34.2004 31.8644C33.5436 34.2168 33.4036 34.6675 31.9337 35.5127Z" fill="#AB8BDB"/>
<path d="M31.9335 35.5133L27.4302 38.1199C27.0108 38.3676 26.7613 38.3835 26.2907 38.2795C25.8234 38.1662 25.1787 37.8651 24.364 37.4101L18.6287 34.2339C18.0838 33.9264 17.8503 33.5937 17.7307 33.2699C17.6144 32.9369 17.6197 32.5636 17.7684 32.1159C17.87 31.8288 18.0367 31.523 18.2621 31.2171C18.626 31.4293 19.0172 31.6198 19.4367 31.7579C21.0247 32.2886 22.3091 32.3262 23.529 31.6635C24.0963 33.0108 25.189 33.7831 26.3563 34.2066C27.4716 34.6117 28.6854 34.6556 29.7867 34.1907C30.8879 33.7257 31.8191 32.7212 32.2955 31.3472L34.2242 24.5463C34.6533 23.0305 33.1098 22.4843 32.6113 23.9755L30.2578 30.6261C29.9595 31.469 29.5495 31.8555 29.0434 32.0725C28.5374 32.2894 27.8636 32.2907 27.1266 32.0299C26.3809 31.766 25.8666 31.3443 25.6097 30.8573C25.3527 30.3703 25.2998 29.8304 25.5754 28.9691L29.0799 18.046C29.3992 17.0334 28.0432 16.564 27.6665 17.5459L23.5376 28.2479C23.2843 28.9087 22.8725 29.576 22.3329 29.7498C21.8172 29.9112 21.0601 29.8726 20.219 29.5749C19.3779 29.2773 18.7649 28.8311 18.4656 28.3812C18.1629 27.9406 18.1009 27.5643 18.3262 26.8727L21.9045 15.9341C22.2521 14.869 20.9459 14.4796 20.5604 15.4585L16.2884 26.1516C16.0199 26.8278 15.7437 27.0844 15.2312 27.2366C14.7155 27.398 13.9497 27.3563 13.1086 27.0587C12.2675 26.761 11.6546 26.3148 11.3552 25.8649C11.0526 25.4243 10.9906 25.048 11.2158 24.3564L14.0996 15.2149C14.4353 14.156 13.232 13.8343 12.851 14.773L9.20103 23.5705L7.32806 22.9077C6.85982 22.742 6.55907 22.4062 6.40118 21.7771C6.23462 21.1449 6.26622 20.2285 6.64318 19.1633L9.20651 11.9199C9.59986 10.8084 10.0444 10.0485 10.4511 9.6713C10.8578 9.29409 11.1933 9.17311 11.9296 9.29818L14.8856 9.82314C15.1621 9.86889 15.4368 9.80973 15.6682 9.65192L18.6795 7.62205C19.0098 7.40543 19.8811 7.3698 20.4272 7.64642L23.0469 9.01127C23.2766 9.13424 23.5337 9.15226 23.7909 9.08697L26.7817 8.30055C27.5894 8.08609 28.3326 8.49501 28.8042 9.03713L30.5989 11.0793C30.7308 11.2302 30.9052 11.344 31.0992 11.4023L34.4676 12.3337C35.4097 12.5942 35.8794 13.0314 36.1217 13.7529C36.3639 14.4744 36.3936 15.6314 35.7777 17.2062C34.8627 19.5714 35.5177 20.5327 36.1128 21.9941C36.5711 23.1255 36.65 23.2056 36.1542 24.9375L34.2003 31.865C33.5435 34.2173 33.4035 34.6681 31.9335 35.5133Z" fill="white"/>
</g>
<defs>
<clipPath id="clip0_271_1415">
<rect width="34.4895" height="33.2577" fill="white" transform="translate(11.1318) scale(1.0033) rotate(19.4882)"/>
</clipPath>
</defs>
</svg>
