<svg width="350" height="30" viewBox="0 0 350 30" fill="none" xmlns="http://www.w3.org/2000/svg">
<path d="M3.75 11.25L15 2.5L26.25 11.25V25C26.25 25.663 25.9866 26.2989 25.5178 26.7678C25.0489 27.2366 24.413 27.5 23.75 27.5H6.25C5.58696 27.5 4.95107 27.2366 4.48223 26.7678C4.01339 26.2989 3.75 25.663 3.75 25V11.25Z" stroke="#DCCFF5" stroke-width="2" stroke-linecap="round" stroke-linejoin="round"/>
<path d="M95.0004 17.3858C98.1185 17.3858 100.646 14.7954 100.646 11.6001C100.646 8.40478 98.1185 5.81445 95.0004 5.81445C91.8824 5.81445 89.3547 8.40478 89.3547 11.6001C89.3547 14.7954 91.8824 17.3858 95.0004 17.3858Z" fill="#8357DB"/>
<path d="M95.0005 27.7133C100.031 27.7133 104.109 25.7509 104.109 23.33C104.109 20.9092 100.031 18.9468 95.0005 18.9468C89.9701 18.9468 85.8921 20.9092 85.8921 23.33C85.8921 25.7509 89.9701 27.7133 95.0005 27.7133Z" fill="#8357DB"/>
<path d="M87.8584 14.0718C87.88 14.0718 87.9011 14.0685 87.9232 14.0685C87.6644 13.2936 87.5212 12.4642 87.5212 11.6005C87.5212 8.41248 89.4317 5.67487 92.1402 4.5214C91.1046 3.28622 89.5726 2.50049 87.8588 2.50049C84.7408 2.50049 82.2131 5.09109 82.2131 8.28614C82.2127 11.4812 84.7403 14.0718 87.8584 14.0718Z" fill="#8357DB"/>
<path d="M102.479 11.6C102.479 12.4642 102.336 13.2931 102.077 14.068C102.099 14.0685 102.12 14.0713 102.142 14.0713C105.26 14.0713 107.788 11.4807 107.788 8.28565C107.788 5.09013 105.26 2.5 102.142 2.5C100.428 2.5 98.8957 3.28526 97.8606 4.52092C100.569 5.67438 102.479 8.41199 102.479 11.6Z" fill="#8357DB"/>
<path d="M102.142 15.6323C101.871 15.6323 101.605 15.6408 101.34 15.6516C100.885 16.395 100.31 17.0549 99.6411 17.5992C103.464 18.5432 105.942 20.6679 105.942 23.3299C105.942 23.5601 105.923 23.7864 105.886 24.0081C109.047 23.3205 111.25 21.7932 111.25 20.0156C111.25 17.595 107.172 15.6323 102.142 15.6323Z" fill="#8357DB"/>
<path d="M90.3593 17.5992C89.6906 17.0549 89.1157 16.3955 88.6601 15.6516C88.3957 15.6403 88.129 15.6323 87.8584 15.6323C82.828 15.6323 78.75 17.595 78.75 20.0156C78.75 21.7932 80.9531 23.3205 84.1139 24.0081C84.0777 23.7864 84.0585 23.5601 84.0585 23.3299C84.059 20.6684 86.5373 18.5432 90.3593 17.5992Z" fill="#8357DB"/>
<path d="M185 15V27.5H165V15" stroke="#DCCFF5" stroke-width="2" stroke-linecap="round" stroke-linejoin="round"/>
<path d="M187.5 8.75H162.5V15H187.5V8.75Z" stroke="#DCCFF5" stroke-width="2" stroke-linecap="round" stroke-linejoin="round"/>
<path d="M175 27.5V8.75" stroke="#DCCFF5" stroke-width="2" stroke-linecap="round" stroke-linejoin="round"/>
<path d="M175 8.75H169.375C168.546 8.75 167.751 8.42076 167.165 7.83471C166.579 7.24866 166.25 6.4538 166.25 5.625C166.25 4.7962 166.579 4.00134 167.165 3.41529C167.751 2.82924 168.546 2.5 169.375 2.5C173.75 2.5 175 8.75 175 8.75Z" stroke="#DCCFF5" stroke-width="2" stroke-linecap="round" stroke-linejoin="round"/>
<path d="M175 8.75H180.625C181.454 8.75 182.249 8.42076 182.835 7.83471C183.421 7.24866 183.75 6.4538 183.75 5.625C183.75 4.7962 183.421 4.00134 182.835 3.41529C182.249 2.82924 181.454 2.5 180.625 2.5C176.25 2.5 175 8.75 175 8.75Z" stroke="#DCCFF5" stroke-width="2" stroke-linecap="round" stroke-linejoin="round"/>
<path d="M262.5 10C262.5 8.01088 261.71 6.10322 260.303 4.6967C258.897 3.29018 256.989 2.5 255 2.5C253.011 2.5 251.103 3.29018 249.697 4.6967C248.29 6.10322 247.5 8.01088 247.5 10C247.5 18.75 243.75 21.25 243.75 21.25H266.25C266.25 21.25 262.5 18.75 262.5 10Z" stroke="#DCCFF5" stroke-width="2" stroke-linecap="round" stroke-linejoin="round"/>
<path d="M257.162 26.25C256.943 26.6288 256.627 26.9433 256.248 27.1619C255.868 27.3805 255.438 27.4956 255 27.4956C254.562 27.4956 254.132 27.3805 253.752 27.1619C253.373 26.9433 253.057 26.6288 252.837 26.25" stroke="#DCCFF5" stroke-width="2" stroke-linecap="round" stroke-linejoin="round"/>
<path d="M339.594 9.95685C339.594 12.6944 337.375 14.9137 334.637 14.9137C331.9 14.9137 329.68 12.6944 329.68 9.95685C329.68 7.21926 331.9 5 334.637 5C337.375 5 339.594 7.21926 339.594 9.95685Z" stroke="#DCCFF5" stroke-width="2"/>
<path d="M325.158 20.8039C325.737 19.8253 327.1 18.2886 329.348 17.6928C330.384 18.3202 331.935 18.9735 333.689 19.1827C335.558 19.4057 337.699 19.1256 339.657 17.7288C340.332 17.9569 341.208 18.3362 342.012 18.8559C342.943 19.4578 343.647 20.1623 343.95 20.9202C343.912 20.9798 343.858 21.056 343.785 21.1486C343.526 21.4784 343.115 21.9026 342.599 22.3559C341.558 23.2696 340.223 24.1833 339.094 24.6271C336.826 25.5182 334.2 25.8997 331.69 25.3414C329.341 24.8189 327.032 23.4618 325.158 20.8039ZM344.029 20.7728C344.03 20.7725 344.027 20.7802 344.02 20.7967C344.024 20.7814 344.028 20.7732 344.029 20.7728Z" stroke="#DCCFF5" stroke-width="2" stroke-linejoin="round"/>
</svg>
