<svg width="16" height="14" viewBox="0 0 16 14" fill="none" xmlns="http://www.w3.org/2000/svg">
<path fill-rule="evenodd" clip-rule="evenodd" d="M9.007 0.689289C9.34326 0.835904 9.67527 1.18597 10.1746 1.29116C10.7998 1.42263 11.3765 1.21784 11.8678 1.1873C12.3757 1.15543 12.7393 1.29673 13.0065 1.612C13.2748 1.92888 13.4766 2.45877 13.449 3.23088C13.4214 4.03594 13.831 4.51751 14.2708 4.98073C14.6578 5.38764 14.7547 5.51909 14.8102 6.32839C14.882 7.36851 14.9223 8.40889 15.0286 9.44502C15.1101 10.2442 14.9911 10.9502 14.5414 11.4483C14.0217 12.0222 13.5194 12.6159 12.9757 13.1675C12.5125 13.6379 11.8426 13.483 11.3101 13.3989C10.3098 13.2408 9.30979 13.0804 8.30845 12.9216C7.97644 12.8692 7.76316 12.7431 7.62212 12.5768C7.48215 12.4111 7.41043 12.1965 7.40618 11.9463C7.40379 11.725 7.46037 11.4788 7.56794 11.2337C7.80486 11.2931 8.05798 11.3197 8.31934 11.3197C8.8479 11.3197 9.34193 11.2103 9.72201 10.9476C9.87288 10.845 10.0001 10.7138 10.1013 10.563C10.1802 10.6791 10.2726 10.7858 10.3778 10.8756C10.7364 11.1797 11.2134 11.3197 11.721 11.3197C12.2272 11.3197 12.7077 11.1797 13.0657 10.8756C13.4227 10.5696 13.6426 10.0995 13.6426 9.52391V5.63863C13.6458 5.28219 13.1061 5.28219 13.1088 5.63863L13.1104 9.52338C13.1104 9.97014 12.9608 10.265 12.7202 10.4682C12.4806 10.6727 12.1292 10.7863 11.721 10.7863C11.3117 10.7863 10.9629 10.6727 10.7223 10.4682C10.4832 10.2647 10.3321 9.97014 10.3321 9.52338V4.53927C10.3337 4.38973 10.2118 4.2681 10.0609 4.27075C9.91564 4.27367 9.79957 4.39398 9.8009 4.53927V9.52366C9.8009 9.91091 9.68615 10.3218 9.41656 10.5096C9.16025 10.6897 8.77008 10.7866 8.31934 10.7866C7.86967 10.7866 7.46303 10.709 7.22238 10.5096C6.92491 10.2636 6.83061 10.0214 6.83061 9.71859V4.71775C6.83354 4.56822 6.71056 4.44499 6.5597 4.44792C6.41149 4.44924 6.29409 4.57114 6.29701 4.71775V9.71859C6.29701 10.099 6.15571 10.3327 5.90099 10.5096C5.6468 10.6867 5.25928 10.7866 4.81253 10.7866C4.36578 10.7866 3.97986 10.6867 3.72514 10.5096C3.46909 10.3324 3.32673 10.099 3.32673 9.71859V5.55601C3.34054 5.18788 2.7817 5.18788 2.79551 5.55601V9.71859C2.79551 9.78765 2.79976 9.85565 2.808 9.92205H1.64889C1.33892 9.92205 1.0789 9.77943 0.874113 9.49603C0.668002 9.21236 0.530948 8.78339 0.530948 8.25378V4.9167C0.530948 4.12121 0.775838 3.33846 1.51343 3.21814C1.90626 3.15465 2.46935 3.26916 2.98091 2.97008C3.56073 2.63409 3.76817 2.00857 4.06432 1.63566C4.24573 1.40723 4.68982 1.26061 5.05052 1.30896C5.44229 1.35995 5.93738 1.61044 6.50179 1.48481C7.08958 1.35492 7.4354 0.881595 7.80088 0.674155C8.20194 0.445735 8.63356 0.52594 9.007 0.689289ZM7.51429 0.22424C7.05638 0.51216 6.73553 0.888258 6.38572 0.965807C6.05903 1.03779 5.63459 0.848136 5.1209 0.780676C4.5873 0.710023 3.99101 0.870435 3.64652 1.3047C3.27015 1.77934 3.06803 2.30473 2.71291 2.51217C2.42499 2.68109 1.94902 2.58414 1.43322 2.69225C0.273841 2.93581 0 3.95253 0 4.91643V8.25326C0 8.87292 0.158037 9.41129 0.445689 9.80811C0.732013 10.2036 1.16389 10.4527 1.64942 10.4527H2.97878C3.08662 10.6522 3.23881 10.8193 3.42155 10.9468C3.79898 11.2095 4.29035 11.3189 4.81306 11.3189C5.33764 11.3189 5.82582 11.2095 6.20325 10.9468C6.34163 10.8512 6.46328 10.7306 6.56023 10.5927C6.70817 10.8002 6.85213 10.933 7.07072 11.0405C6.94058 11.3396 6.87019 11.6509 6.87444 11.9526C6.88002 12.3054 6.98785 12.6483 7.21734 12.9194C7.44735 13.1906 7.7945 13.3803 8.22718 13.4493C9.22745 13.6068 10.2291 13.7593 11.2293 13.9239C11.9996 14.0512 12.8604 14.0778 13.3693 13.5256C13.8952 12.9558 14.4068 12.3718 14.934 11.8047C15.6121 11.0743 15.6188 10.244 15.5606 9.40731C15.4875 8.36852 15.4137 7.32949 15.3423 6.29044C15.2825 5.42322 15.0942 5.02346 14.6575 4.6139C14.1818 4.16555 13.9826 3.72705 13.981 3.23064C13.981 2.37963 13.7943 1.71853 13.415 1.26913C13.0363 0.820782 12.4679 0.617585 11.8354 0.657428C11.2461 0.694883 10.7207 0.860882 10.2859 0.769249C9.9746 0.704439 9.66916 0.420768 9.25242 0.21891C8.68907 -0.0551966 8.01814 -0.0920988 7.51429 0.22424Z" fill="#717171"/>
</svg>
