<svg width="86" height="91" viewBox="0 0 86 91" fill="none" xmlns="http://www.w3.org/2000/svg">
<path d="M84.8773 52.9625C84.2754 53.6648 84.175 54.7684 84.2754 55.7717C83.9744 55.9724 83.6734 56.173 83.4727 56.2734C78.8577 58.6812 68.1226 56.3737 63.2065 56.0727C58.1901 55.7717 50.9665 56.8753 42.0374 63.3966C40.3318 64.5002 38.0242 66.1055 35.6164 68.5134C33.3088 70.7206 29.1954 74.7337 26.6872 80.8537C24.48 86.2714 24.6806 90.5855 22.6741 90.8865C21.4701 91.0871 19.8649 89.7829 18.661 88.8799C17.758 88.1776 17.156 87.4753 16.6544 86.9737C16.3534 85.8701 16.0524 84.6661 15.9521 83.2615C15.4505 78.2452 17.2564 74.1317 18.36 72.0248C15.2498 72.9278 12.1397 73.8307 9.0295 74.6334C8.62819 74.834 3.81245 76.4393 0.401305 73.5297C0.300977 73.4294 0.200656 73.3291 0 73.1284C0.100328 73.1284 0.300977 73.0281 0.401305 73.0281C0.902944 72.6268 1.70557 72.0248 2.40786 71.2222C3.41114 70.1186 4.81573 68.6137 4.61507 67.4098C4.61507 67.1088 4.41442 66.8078 4.21377 66.5068C9.93245 65.9048 14.1462 61.5907 19.7646 55.7717C22.4734 52.9625 26.5869 48.4478 29.4964 41.2242C32.3056 34.3016 32.3056 27.8806 32.3056 23.7671C32.4059 20.1553 32.1049 17.1455 31.8039 15.0386C31.5029 14.3363 27.9915 7.11273 31.4026 2.59798C32.4059 1.29372 34.5128 -0.411858 36.118 0.0897816C37.5226 0.491093 38.0242 2.49765 38.7265 5.40716C39.6295 9.01896 39.6295 11.8281 39.6295 12.2294C39.6295 12.2294 39.7298 19.4531 40.7331 28.8839C40.8334 30.1881 41.0341 31.2917 41.1344 32.1947C41.7364 30.7901 42.7396 29.3855 44.0439 28.2819C48.7593 24.2688 55.8826 24.9711 59.996 29.7868C64.1095 34.6026 63.6078 41.7258 58.8924 45.7389C58.1901 46.3409 57.3875 46.8425 56.5849 47.2439C56.7855 47.2439 56.9862 47.3442 57.1869 47.3442C60.297 47.9462 64.4105 48.7488 70.1291 48.8491C72.4367 48.9494 75.1455 48.8491 78.2557 48.6484C82.1685 48.4478 84.0747 48.0465 85.1783 49.3507C85.7803 50.053 86.0813 51.0563 85.9809 51.9593C85.68 52.3606 85.2786 52.5612 84.8773 52.9625Z" fill="#8357DB"/>
</svg>
