<svg width="350" height="30" viewBox="0 0 350 30" fill="none" xmlns="http://www.w3.org/2000/svg">
<path d="M3.75 11.25L15 2.5L26.25 11.25V25C26.25 25.663 25.9866 26.2989 25.5178 26.7678C25.0489 27.2366 24.413 27.5 23.75 27.5H6.25C5.58696 27.5 4.95107 27.2366 4.48223 26.7678C4.01339 26.2989 3.75 25.663 3.75 25V11.25Z" fill="#956FE0"/>
<path d="M99.6461 11.6C99.6461 14.2663 97.5432 16.3856 95.0004 16.3856C92.4576 16.3856 90.3547 14.2663 90.3547 11.6C90.3547 8.93372 92.4576 6.81433 95.0004 6.81433C97.5432 6.81433 99.6461 8.93372 99.6461 11.6Z" stroke="#DCCFF5" stroke-width="2"/>
<path d="M103.109 23.33C103.109 23.9374 102.564 24.7792 101.007 25.5284C99.5219 26.2433 97.3993 26.7133 95.0005 26.7133C92.6017 26.7133 90.4791 26.2433 88.9935 25.5284C87.4366 24.7792 86.892 23.9374 86.892 23.33C86.892 22.7227 87.4366 21.8809 88.9935 21.1317C90.4791 20.4168 92.6017 19.9468 95.0005 19.9468C97.3993 19.9468 99.5219 20.4168 101.007 21.1317C102.564 21.8809 103.109 22.7227 103.109 23.33Z" stroke="#DCCFF5" stroke-width="2"/>
<path d="M87.859 3.50024C88.8091 3.50024 89.6942 3.79535 90.4332 4.30547C88.0783 5.84904 86.5213 8.54522 86.5213 11.6002C86.5213 12.0416 86.5544 12.4751 86.6178 12.8983C84.6664 12.3413 83.2129 10.5024 83.2133 8.28604V8.2859C83.2133 5.61988 85.3162 3.50024 87.859 3.50024Z" stroke="#DCCFF5" stroke-width="2"/>
<path d="M99.5673 4.30512C100.306 3.79503 101.192 3.5 102.142 3.5C104.685 3.5 106.788 5.61922 106.788 8.28565C106.788 10.5022 105.334 12.341 103.383 12.8981C103.446 12.4749 103.479 12.0415 103.479 11.6C103.479 8.5449 101.922 5.84866 99.5673 4.30512Z" stroke="#DCCFF5" stroke-width="2"/>
<path d="M110.25 20.0155V20.0157C110.25 20.4571 109.976 21.0202 109.164 21.6129C108.598 22.026 107.832 22.402 106.905 22.7014C106.6 20.1193 104.424 18.2084 101.516 17.1295C101.647 16.9693 101.772 16.8043 101.89 16.6349C101.975 16.6333 102.058 16.6324 102.142 16.6324C104.541 16.6324 106.663 17.1025 108.149 17.8174C109.706 18.5667 110.25 19.4084 110.25 20.0155Z" stroke="#DCCFF5" stroke-width="2"/>
<path d="M83.0952 22.7015C82.1681 22.402 81.4024 22.026 80.836 21.6129C80.0236 21.0202 79.75 20.4571 79.75 20.0157C79.75 19.4085 80.2946 18.5667 81.8514 17.8174C83.3371 17.1025 85.4596 16.6324 87.8584 16.6324C87.9421 16.6324 88.0259 16.6333 88.1098 16.6348C88.2288 16.8043 88.3536 16.9694 88.484 17.1296C85.5767 18.2086 83.4004 20.1198 83.0952 22.7015Z" stroke="#DCCFF5" stroke-width="2"/>
<path d="M185 15V27.5H165V15" stroke="#DCCFF5" stroke-width="2" stroke-linecap="round" stroke-linejoin="round"/>
<path d="M187.5 8.75H162.5V15H187.5V8.75Z" stroke="#DCCFF5" stroke-width="2" stroke-linecap="round" stroke-linejoin="round"/>
<path d="M175 27.5V8.75" stroke="#DCCFF5" stroke-width="2" stroke-linecap="round" stroke-linejoin="round"/>
<path d="M175 8.75H169.375C168.546 8.75 167.751 8.42076 167.165 7.83471C166.579 7.24866 166.25 6.4538 166.25 5.625C166.25 4.7962 166.579 4.00134 167.165 3.41529C167.751 2.82924 168.546 2.5 169.375 2.5C173.75 2.5 175 8.75 175 8.75Z" stroke="#DCCFF5" stroke-width="2" stroke-linecap="round" stroke-linejoin="round"/>
<path d="M175 8.75H180.625C181.454 8.75 182.249 8.42076 182.835 7.83471C183.421 7.24866 183.75 6.4538 183.75 5.625C183.75 4.7962 183.421 4.00134 182.835 3.41529C182.249 2.82924 181.454 2.5 180.625 2.5C176.25 2.5 175 8.75 175 8.75Z" stroke="#DCCFF5" stroke-width="2" stroke-linecap="round" stroke-linejoin="round"/>
<path d="M262.5 10C262.5 8.01088 261.71 6.10322 260.303 4.6967C258.897 3.29018 256.989 2.5 255 2.5C253.011 2.5 251.103 3.29018 249.697 4.6967C248.29 6.10322 247.5 8.01088 247.5 10C247.5 18.75 243.75 21.25 243.75 21.25H266.25C266.25 21.25 262.5 18.75 262.5 10Z" stroke="#DCCFF5" stroke-width="2" stroke-linecap="round" stroke-linejoin="round"/>
<path d="M257.163 26.25C256.943 26.6288 256.627 26.9433 256.248 27.1619C255.868 27.3805 255.438 27.4956 255 27.4956C254.562 27.4956 254.132 27.3805 253.752 27.1619C253.373 26.9433 253.057 26.6288 252.838 26.25" stroke="#DCCFF5" stroke-width="2" stroke-linecap="round" stroke-linejoin="round"/>
<path d="M339.594 9.95685C339.594 12.6944 337.375 14.9137 334.637 14.9137C331.9 14.9137 329.68 12.6944 329.68 9.95685C329.68 7.21926 331.9 5 334.637 5C337.375 5 339.594 7.21926 339.594 9.95685Z" stroke="#DCCFF5" stroke-width="2"/>
<path d="M325.158 20.8042C325.737 19.8255 327.1 18.2889 329.348 17.6931C330.384 18.3205 331.935 18.9738 333.689 19.183C335.558 19.4059 337.699 19.1259 339.657 17.729C340.332 17.9571 341.208 18.3365 342.012 18.8561C342.943 19.458 343.647 20.1625 343.95 20.9205C343.912 20.9801 343.858 21.0562 343.785 21.1488C343.526 21.4787 343.115 21.9029 342.599 22.3561C341.558 23.2699 340.223 24.1835 339.094 24.6273C336.826 25.5185 334.2 25.8999 331.69 25.3417C329.341 24.8192 327.032 23.462 325.158 20.8042ZM344.029 20.7731C344.03 20.7728 344.027 20.7804 344.02 20.797C344.024 20.7817 344.028 20.7734 344.029 20.7731Z" stroke="#DCCFF5" stroke-width="2" stroke-linejoin="round"/>
</svg>
