<svg width="13" height="12" viewBox="0 0 13 12" fill="none" xmlns="http://www.w3.org/2000/svg">
<path fill-rule="evenodd" clip-rule="evenodd" d="M0.499998 5.50228C0.499998 0.0305418 8.00422 -1.45922 10.0802 3.60037L10.4791 4.57238L11.6277 1.80584C11.7241 1.57384 11.9896 1.46413 12.2208 1.5608C12.4519 1.65746 12.5613 1.92391 12.4649 2.15591L10.8952 5.9366C10.7989 6.1686 10.5334 6.27831 10.3022 6.18165L6.53479 4.60636C6.30361 4.50969 6.19428 4.24325 6.29061 4.01125C6.38694 3.77924 6.65244 3.66953 6.88363 3.7662L9.64043 4.91893L9.2416 3.94692C7.54384 -0.190771 1.40696 1.02755 1.40696 5.50228C1.40696 8.25818 4.07055 10.2233 6.69174 9.40133L8.07393 8.96787L8.34445 9.83661L6.96227 10.2701C3.75705 11.2752 0.499998 8.87222 0.499998 5.50228Z" stroke="#956FE0"/>
</svg>
