<svg width="276" height="143" viewBox="0 0 276 143" fill="none" xmlns="http://www.w3.org/2000/svg">
<path d="M21.0346 142.506C21.0346 142.506 -10.5886 108.55 15.6859 71.7953C38.9995 39.1731 66.1801 41.4113 86.1205 54.646C94.6159 60.2824 119.103 55.3415 139.945 22.1552C168.367 -23.1037 266.882 4.33979 248.926 73.9747C240.233 107.671 275.384 108.896 257.473 142.579L21.0346 142.506Z" fill="#E5DEFA"/>
<path d="M81.7617 76.8677C81.7617 76.8677 66.1189 54.6007 60.0135 57.4869C53.9082 60.3731 81.7617 76.8677 81.7617 76.8677Z" fill="#AD99FF"/>
<path d="M80.7672 70.8847C80.7672 70.8847 78.3795 54.1409 74.6121 54.8001C70.8446 55.4593 80.7672 70.8847 80.7672 70.8847Z" fill="#AD99FF"/>
<path d="M67.5416 123.071C67.5416 123.071 69.0459 115.62 63.2056 114.689C63.2056 114.689 59.2456 114.551 56.9122 116.048C56.9122 116.048 63.5363 119.872 62.748 121.062C61.9596 122.251 55.6753 116.252 55.6753 116.252C55.6753 116.252 48.5754 119.363 46.9919 121.614C46.9919 121.614 55.374 123.11 54.3251 124.068C53.2762 125.026 44.4659 123.875 44.4659 123.875C44.4659 123.875 38.8023 128.445 41.2649 132.081C43.7274 135.717 46.5547 135.705 47.4472 135.062C48.3398 134.419 52.7098 129.206 53.2649 129.917C53.8199 130.629 51.892 135.055 49.6266 136.471C49.6266 136.471 56.7695 138.875 58.9149 135.828C61.0602 132.781 60.0702 130.411 61.434 128.551C62.7978 126.691 64.3632 125.833 64.0823 127.097C63.8014 128.361 60.9537 131.052 60.9537 133.488C60.9537 135.923 60.7 137.699 63.4842 135.545C66.2685 133.39 69.9656 128.406 68.7582 125.738L67.5416 123.071Z" fill="#9583FF"/>
<path d="M44.4026 130.47C44.4026 130.47 61.0625 120.303 67.5417 123.071C67.5417 123.071 69.7641 125.096 73.5904 125.935L74.5963 126.8C74.5963 126.8 69.9091 125.337 68.7469 125.738C68.7469 125.738 67.0274 118.785 44.4026 130.47Z" fill="#9583FF"/>
<path d="M73.5904 125.935C73.5904 125.935 78.7556 126.596 81.7075 131.283L81.0777 131.714C81.0777 131.714 77.12 127.373 73.9189 126.598C70.7179 125.824 73.5904 125.935 73.5904 125.935Z" fill="#9583FF"/>
<path d="M72.6411 101.332C72.6411 101.332 84.7385 94.5584 79.0931 85.363C79.0931 85.363 74.5758 79.7176 69.7368 78.2677C69.7368 78.2677 72.3194 91.9781 69.7368 92.2998C67.1542 92.6215 67.963 76.8156 67.963 76.8156C67.963 76.8156 55.2222 70.6853 50.2201 71.1701C50.2201 71.1701 58.1242 84.5565 55.5439 84.2348C52.9636 83.9132 44.0921 70.3636 44.0921 70.3636C44.0921 70.3636 31.0274 67.9441 28.9296 75.6851C26.8318 83.4261 30.2209 87.3 32.1556 87.7825C34.0902 88.2651 46.5116 88.1065 46.1877 89.7195C45.8637 91.3325 37.4793 93.9128 32.8012 92.4606C32.8012 92.4606 37.9619 105.204 44.7378 104.558C51.5137 103.912 53.6092 99.7146 57.8025 99.3974C61.9959 99.0802 65.0519 100.204 62.9632 101.332C60.8745 102.46 53.7701 101.701 50.3832 104.581C46.9964 107.46 44.253 109.236 50.5441 110.525C56.8352 111.814 68.1239 111.01 70.3825 106.171L72.6411 101.332Z" fill="#C1B6FF"/>
<path d="M34.9013 78.1046C34.9013 78.1046 68.7696 89.0671 72.6412 101.332C72.6412 101.332 72.4803 106.817 75.8672 113.112V115.527C75.8672 115.527 72.3195 107.299 70.3825 106.171C70.3825 106.171 77.965 95.5258 34.9013 78.1046Z" fill="#C1B6FF"/>
<path d="M75.8671 113.108C75.8671 113.108 81.0911 121.037 78.1121 130.694L76.7687 130.334C76.7687 130.334 78.0736 119.698 75.3415 114.349C72.6094 109.001 75.8671 113.108 75.8671 113.108Z" fill="#C1B6FF"/>
<path d="M84.9357 44.6646L66.8439 138.227C66.7574 138.673 66.7707 139.134 66.8829 139.574C66.9951 140.015 67.2034 140.425 67.4929 140.776C67.7824 141.127 68.1459 141.409 68.5573 141.603C68.9688 141.797 69.418 141.897 69.8728 141.897H79.4171L84.9357 44.6646Z" fill="#ED7D2B"/>
<path d="M205.262 71.4397C205.262 71.4397 197.106 66.245 201.411 60.0695C201.411 60.0695 204.777 56.3224 208.207 55.5069C208.207 55.5069 205.864 64.9379 207.645 65.2641C209.426 65.5903 209.498 54.569 209.498 54.569C209.498 54.569 218.603 50.8152 222.06 51.3521C222.06 51.3521 216.029 60.3458 217.837 60.2235C219.645 60.1012 226.355 51.0349 226.355 51.0349C226.355 51.0349 235.537 49.875 236.686 55.3392C237.834 60.8035 235.326 63.3634 233.967 63.6216C232.608 63.8799 223.97 63.2728 224.131 64.4078C224.291 65.5427 230.021 67.6722 233.331 66.8499C233.331 66.8499 229.232 75.5038 224.547 74.7789C219.863 74.054 218.571 71.0591 215.669 70.6671C212.767 70.2752 210.59 70.939 212.004 71.7999C213.417 72.6607 218.381 72.4251 220.612 74.5614C222.844 76.6977 224.69 78.0434 220.263 78.689C215.837 79.3347 208.019 78.3243 206.641 74.8695L205.262 71.4397Z" fill="#C1B6FF"/>
<path d="M232.422 56.7959C232.422 56.7959 208.434 63.0689 205.262 71.4397C205.262 71.4397 205.155 75.2592 202.543 79.4978L202.448 81.181C202.448 81.181 205.244 75.6013 206.635 74.8944C206.621 74.8944 201.78 67.1897 232.422 56.7959Z" fill="#C1B6FF"/>
<path d="M202.543 79.4979C202.543 79.4979 198.595 84.8058 200.278 91.6383L201.227 91.4412C201.227 91.4412 200.744 83.9948 202.858 80.3837C204.972 76.7726 202.543 79.4979 202.543 79.4979Z" fill="#C1B6FF"/>
<path d="M183.33 48.8963C183.33 48.8963 170.827 46.1484 173.349 36.509C173.349 36.509 175.827 30.3085 179.715 27.7281C179.715 27.7281 181.108 40.5392 183.475 40.1336C185.843 39.7281 180.895 25.9702 180.895 25.9702C180.895 25.9702 190.516 17.135 195.067 16.2288C195.067 16.2288 191.669 30.1793 193.862 29.2029C196.055 28.2265 200.278 13.8705 200.278 13.8705C200.278 13.8705 211.179 8.22955 215.107 14.5116C219.036 20.7936 217.078 25.1252 215.497 26.0653C213.916 27.0055 202.892 30.1975 203.61 31.5363C204.328 32.8752 212.446 32.9115 216.179 30.3742C216.179 30.3742 215.03 43.0221 208.871 44.2658C202.711 45.5095 199.732 42.3651 195.937 43.2033C192.143 44.0415 189.728 45.8675 191.896 46.3024C194.064 46.7374 200.122 44.1661 203.889 45.804C207.656 47.4419 210.554 48.2756 205.339 51.1029C200.124 53.9301 189.934 56.2409 186.633 52.5686L183.33 48.8963Z" fill="#C1B6FF"/>
<path d="M210.472 18.2495C210.472 18.2495 183.468 37.0232 183.332 48.8963C183.332 48.8963 184.943 53.7013 183.636 60.1691L184.284 62.3077C184.284 62.3077 185.217 54.0841 186.624 52.5663C186.622 52.5686 177.069 45.19 210.472 18.2495Z" fill="#C1B6FF"/>
<path d="M183.634 60.1691C183.634 60.1691 181.142 68.5807 186.352 76.3194L187.444 75.6398C187.444 75.6398 183.441 66.5781 184.422 61.1274C185.403 55.6768 183.634 60.1691 183.634 60.1691Z" fill="#C1B6FF"/>
<path d="M85.1532 44.2748L73.1577 136.149C73.0639 136.867 73.1243 137.597 73.335 138.289C73.5456 138.982 73.9015 139.621 74.3791 140.165C74.8566 140.709 75.4447 141.145 76.1041 141.444C76.7635 141.742 77.479 141.897 78.2028 141.897H95.803L85.8736 43.9418L85.1532 44.2748Z" fill="#78ACEA"/>
<path d="M85.1531 44.2749L79.784 135.572C79.7345 136.386 79.8523 137.203 80.1301 137.97C80.4078 138.737 80.8397 139.44 81.3991 140.034C81.9585 140.628 82.6336 141.102 83.3828 141.425C84.1321 141.749 84.9396 141.915 85.7557 141.915H112.003L85.1531 44.2749Z" fill="#699DEE"/>
<path d="M84.9515 45.0201L87.5635 135.563C87.5144 136.377 87.6324 137.193 87.9103 137.96C88.1882 138.728 88.6201 139.43 89.1794 140.024C89.7387 140.618 90.4137 141.092 91.1628 141.415C91.9118 141.739 92.7192 141.906 93.5352 141.906H119.783L84.9515 45.0201Z" fill="#5288D8"/>
<path d="M210.622 141.897H107.128C105.876 141.897 104.664 141.457 103.702 140.656C102.74 139.854 102.09 138.74 101.865 137.509L86.1159 51.3861C85.9482 50.4681 85.9844 49.5246 86.2217 48.6221C86.4591 47.7197 86.8919 46.8805 87.4895 46.1638C88.0871 45.4471 88.8348 44.8706 89.6799 44.4748C90.525 44.0791 91.4467 43.874 92.3798 43.8739H194.655C195.908 43.8737 197.121 44.313 198.083 45.1153C199.045 45.9176 199.695 47.032 199.92 48.2643L215.887 135.583C216.028 136.355 215.998 137.148 215.798 137.906C215.599 138.665 215.235 139.37 214.733 139.973C214.23 140.575 213.602 141.06 212.891 141.392C212.181 141.725 211.406 141.897 210.622 141.897Z" fill="#D7E9FF"/>
<path d="M88.1661 62.5614H202.607L199.673 46.3024C199.55 45.6185 199.191 44.9997 198.658 44.5541C198.125 44.1084 197.452 43.8644 196.757 43.8647H85.9075C85.7651 43.8648 85.6244 43.8961 85.4955 43.9564C85.3665 44.0168 85.2524 44.1048 85.1612 44.2142C85.07 44.3235 85.0039 44.4516 84.9677 44.5893C84.9315 44.727 84.9259 44.871 84.9515 45.0111L88.1661 62.5614Z" fill="#F99746"/>
<path d="M90.8416 38.9828C90.1898 38.9822 89.5442 39.11 88.9418 39.3589C88.3393 39.6078 87.7918 39.9729 87.3305 40.4334C86.8692 40.8939 86.5031 41.4407 86.2531 42.0427C86.0031 42.6447 85.8741 43.29 85.8735 43.9418H86.825C86.8246 43.2054 87.027 42.483 87.41 41.8541C87.7931 41.2251 88.3419 40.7137 88.9964 40.3761C89.6509 40.0384 90.3857 39.8876 91.1203 39.94C91.8549 39.9924 92.5608 40.2461 93.1607 40.6733C93.7606 41.1005 94.2313 41.6846 94.5211 42.3617C94.8109 43.0387 94.9087 43.7824 94.8037 44.5114C94.6986 45.2403 94.3949 45.9262 93.9258 46.4939C93.4567 47.0616 92.8403 47.4891 92.1442 47.7296C91.7966 47.856 91.4327 47.9323 91.0636 47.9562V48.9099C92.1185 48.8621 93.1306 48.4785 93.9522 47.8151C94.7738 47.1516 95.3619 46.243 95.6307 45.2218C95.7413 44.808 95.7969 44.3814 95.7961 43.9531C95.7973 42.6373 95.2762 41.3748 94.3473 40.4428C93.4183 39.5109 92.1574 38.9858 90.8416 38.9828Z" fill="#78ACEA"/>
<path d="M92.3753 48.3866C92.3753 48.4838 92.3623 48.5805 92.3368 48.6743C92.2722 48.9073 92.1308 49.1116 91.9355 49.2543C91.7403 49.3969 91.5026 49.4694 91.261 49.4602C91.0194 49.4509 90.788 49.3604 90.6043 49.2033C90.4205 49.0462 90.2951 48.8316 90.2485 48.5944C90.2018 48.3571 90.2366 48.1111 90.3472 47.8961C90.4578 47.681 90.6377 47.5096 90.8578 47.4096C91.0779 47.3095 91.3254 47.2867 91.5601 47.3448C91.7948 47.4029 92.003 47.5385 92.1511 47.7296C92.2973 47.9173 92.3763 48.1487 92.3753 48.3866Z" fill="#78ACEA"/>
<path d="M108.63 38.9828C107.315 38.9834 106.053 39.506 105.123 40.4358C104.193 41.3656 103.67 42.6266 103.668 43.9418H104.62C104.62 42.8783 105.042 41.8584 105.794 41.1065C106.546 40.3545 107.566 39.932 108.63 39.932C109.693 39.932 110.713 40.3545 111.465 41.1065C112.217 41.8584 112.64 42.8783 112.64 43.9418C112.64 44.3733 112.57 44.8019 112.431 45.2105C112.236 45.793 111.91 46.323 111.478 46.7597C111.046 47.1964 110.52 47.5282 109.939 47.7296C109.59 47.8563 109.225 47.9326 108.854 47.9562V48.9099C110.143 48.8429 111.355 48.2761 112.233 47.3298C113.111 46.3836 113.586 45.1325 113.556 43.842C113.527 42.5515 112.996 41.3234 112.075 40.4182C111.155 39.5131 109.918 39.0022 108.627 38.9941L108.63 38.9828Z" fill="#78ACEA"/>
<path d="M110.163 48.3866C110.163 48.4838 110.15 48.5805 110.125 48.6743C110.06 48.9065 109.918 49.1099 109.723 49.2516C109.528 49.3934 109.29 49.4651 109.049 49.4552C108.808 49.4453 108.578 49.3544 108.395 49.1972C108.212 49.04 108.087 48.8256 108.041 48.5889C107.995 48.3521 108.031 48.1067 108.141 47.8925C108.252 47.6782 108.432 47.5076 108.652 47.4082C108.872 47.3088 109.118 47.2865 109.352 47.3448C109.586 47.4031 109.794 47.5387 109.941 47.7296C110.085 47.9185 110.163 48.1493 110.163 48.3866Z" fill="#78ACEA"/>
<path d="M126.425 38.9828C125.11 38.984 123.849 39.5068 122.919 40.4364C121.989 41.3661 121.465 42.6268 121.463 43.9418H122.417C122.417 43.2054 122.619 42.483 123.002 41.854C123.385 41.2251 123.934 40.7137 124.589 40.3761C125.243 40.0384 125.978 39.8876 126.713 39.94C127.447 39.9924 128.153 40.2461 128.753 40.6733C129.353 41.1005 129.823 41.6846 130.113 42.3617C130.403 43.0387 130.501 43.7824 130.396 44.5114C130.291 45.2403 129.987 45.9262 129.518 46.4939C129.049 47.0616 128.432 47.4891 127.736 47.7296C127.388 47.856 127.023 47.9323 126.654 47.9562V48.9099C127.943 48.8429 129.155 48.2761 130.033 47.3298C130.911 46.3836 131.385 45.1325 131.356 43.842C131.326 42.5515 130.795 41.3234 129.875 40.4182C128.955 39.5131 127.718 39.0022 126.427 38.9941L126.425 38.9828Z" fill="#78ACEA"/>
<path d="M127.952 48.3866C127.952 48.4838 127.939 48.5805 127.913 48.6743C127.84 48.9397 127.67 49.1676 127.435 49.3119C127.201 49.4561 126.92 49.506 126.651 49.4512C126.381 49.3965 126.142 49.2414 125.983 49.0172C125.823 48.793 125.754 48.5166 125.791 48.2438C125.827 47.971 125.966 47.7223 126.179 47.548C126.392 47.3737 126.663 47.2868 126.938 47.305C127.213 47.3231 127.47 47.4449 127.658 47.6458C127.847 47.8466 127.951 48.1114 127.952 48.3866Z" fill="#78ACEA"/>
<path d="M144.206 38.9828C142.891 38.984 141.631 39.5068 140.701 40.4366C139.771 41.3663 139.248 42.627 139.247 43.9418H140.199C140.198 43.2054 140.401 42.483 140.784 41.854C141.167 41.2251 141.716 40.7137 142.37 40.3761C143.024 40.0384 143.759 39.8876 144.494 39.94C145.228 39.9924 145.934 40.2461 146.534 40.6733C147.134 41.1005 147.605 41.6846 147.895 42.3617C148.184 43.0387 148.282 43.7824 148.177 44.5114C148.072 45.2403 147.769 45.9262 147.299 46.4939C146.83 47.0616 146.214 47.4891 145.518 47.7296C145.169 47.8563 144.805 47.9326 144.435 47.9562V48.9099C145.724 48.8429 146.936 48.2761 147.814 47.3298C148.692 46.3836 149.167 45.1325 149.137 43.842C149.108 42.5515 148.576 41.3234 147.656 40.4182C146.736 39.5131 145.499 39.0022 144.208 38.9941L144.206 38.9828Z" fill="#78ACEA"/>
<path d="M145.742 48.3866C145.742 48.4838 145.729 48.5805 145.704 48.6743C145.631 48.9385 145.461 49.1654 145.228 49.3089C144.994 49.4524 144.715 49.5019 144.446 49.4473C144.178 49.3928 143.94 49.2383 143.781 49.015C143.622 48.7918 143.554 48.5166 143.59 48.245C143.627 47.9734 143.765 47.7258 143.977 47.5522C144.189 47.3786 144.459 47.2921 144.732 47.3101C145.006 47.3281 145.262 47.4493 145.45 47.6491C145.637 47.849 145.742 48.1126 145.742 48.3866Z" fill="#78ACEA"/>
<path d="M161.992 38.9828C160.677 38.9834 159.416 39.506 158.485 40.4358C157.555 41.3656 157.032 42.6266 157.031 43.9418H157.982C157.982 43.2054 158.184 42.483 158.567 41.854C158.95 41.2251 159.499 40.7137 160.154 40.3761C160.808 40.0384 161.543 39.8876 162.278 39.94C163.012 39.9924 163.718 40.2461 164.318 40.6733C164.918 41.1005 165.389 41.6846 165.678 42.3617C165.968 43.0387 166.066 43.7824 165.961 44.5114C165.856 45.2403 165.552 45.9262 165.083 46.4939C164.614 47.0616 163.998 47.4891 163.301 47.7296C162.953 47.8563 162.589 47.9326 162.219 47.9562V48.9099C163.274 48.863 164.287 48.4797 165.109 47.8162C165.931 47.1526 166.519 46.2435 166.788 45.2218C166.899 44.808 166.954 44.3814 166.953 43.9531C166.954 43.3009 166.827 42.655 166.578 42.0521C166.329 41.4493 165.964 40.9014 165.503 40.4398C165.042 39.9782 164.495 39.6119 163.892 39.3619C163.29 39.1119 162.644 38.9831 161.992 38.9828Z" fill="#78ACEA"/>
<path d="M163.53 48.3866C163.53 48.4838 163.517 48.5805 163.492 48.6743C163.419 48.9385 163.249 49.1654 163.016 49.3089C162.782 49.4524 162.503 49.5019 162.235 49.4473C161.966 49.3928 161.728 49.2383 161.569 49.015C161.41 48.7918 161.342 48.5166 161.379 48.245C161.415 47.9734 161.553 47.7258 161.765 47.5522C161.977 47.3786 162.247 47.2921 162.521 47.3101C162.794 47.3281 163.05 47.4493 163.238 47.6491C163.425 47.849 163.53 48.1126 163.53 48.3866Z" fill="#78ACEA"/>
<path d="M179.785 38.9828C178.469 38.9834 177.208 39.506 176.278 40.4358C175.348 41.3656 174.825 42.6266 174.823 43.9418H175.775C175.775 43.2054 175.977 42.483 176.36 41.854C176.743 41.2251 177.292 40.7137 177.946 40.3761C178.601 40.0384 179.336 39.8876 180.07 39.94C180.805 39.9924 181.511 40.2461 182.111 40.6733C182.711 41.1005 183.181 41.6846 183.471 42.3617C183.761 43.0387 183.859 43.7824 183.754 44.5114C183.649 45.2403 183.345 45.9262 182.876 46.4939C182.407 47.0616 181.79 47.4891 181.094 47.7296C180.747 47.8563 180.383 47.9326 180.014 47.9562V48.9099C181.068 48.8621 182.081 48.4785 182.902 47.8151C183.724 47.1516 184.312 46.243 184.581 45.2218C184.691 44.808 184.747 44.3814 184.746 43.9531C184.747 43.301 184.619 42.6552 184.37 42.0525C184.121 41.4498 183.755 40.902 183.295 40.4404C182.834 39.9789 182.287 39.6126 181.685 39.3625C181.082 39.1124 180.437 38.9834 179.785 38.9828Z" fill="#78ACEA"/>
<path d="M181.318 48.3866C181.318 48.4838 181.305 48.5805 181.28 48.6743C181.215 48.9073 181.074 49.1116 180.879 49.2543C180.683 49.3969 180.446 49.4694 180.204 49.4602C179.963 49.4509 179.731 49.3604 179.547 49.2033C179.364 49.0462 179.238 48.8316 179.192 48.5944C179.145 48.3571 179.18 48.1111 179.29 47.8961C179.401 47.681 179.581 47.5096 179.801 47.4096C180.021 47.3095 180.268 47.2867 180.503 47.3448C180.738 47.4029 180.946 47.5385 181.094 47.7296C181.24 47.9173 181.319 48.1487 181.318 48.3866Z" fill="#78ACEA"/>
<path d="M197.573 38.9828C196.258 38.9834 194.997 39.506 194.066 40.4358C193.136 41.3656 192.613 42.6266 192.612 43.9418H193.565C193.565 43.2054 193.767 42.483 194.15 41.854C194.534 41.2251 195.082 40.7137 195.737 40.3761C196.391 40.0384 197.126 39.8876 197.861 39.94C198.595 39.9924 199.301 40.2461 199.901 40.6733C200.501 41.1005 200.972 41.6846 201.262 42.3617C201.551 43.0387 201.649 43.7824 201.544 44.5114C201.439 45.2403 201.135 45.9262 200.666 46.4939C200.197 47.0616 199.581 47.4891 198.885 47.7296C198.536 47.8563 198.172 47.9326 197.802 47.9562V48.9099C199.091 48.8429 200.303 48.2761 201.181 47.3298C202.059 46.3836 202.534 45.1325 202.504 43.842C202.475 42.5515 201.943 41.3234 201.023 40.4182C200.103 39.5131 198.866 39.0022 197.575 38.9941L197.573 38.9828Z" fill="#78ACEA"/>
<path d="M199.107 48.3866C199.106 48.4837 199.094 48.5803 199.07 48.6744C198.999 48.9452 198.828 49.1788 198.591 49.3278C198.353 49.4769 198.069 49.5302 197.794 49.4769C197.519 49.4237 197.274 49.268 197.11 49.0412C196.946 48.8145 196.874 48.5337 196.909 48.2559C196.944 47.9781 197.083 47.7239 197.299 47.545C197.514 47.3661 197.789 47.2758 198.069 47.2925C198.348 47.3091 198.611 47.4314 198.804 47.6346C198.997 47.8378 199.105 48.1066 199.107 48.3866Z" fill="#78ACEA"/>
<path d="M154.346 93.1176H148.56C148.218 93.1035 147.89 92.9765 147.628 92.7564C147.366 92.5363 147.184 92.2355 147.11 91.901L145.993 86.1219C145.957 85.9748 145.954 85.8211 145.987 85.6729C146.02 85.5248 146.086 85.3863 146.181 85.2683C146.277 85.1503 146.398 85.0561 146.536 84.9931C146.674 84.9301 146.825 84.9001 146.977 84.9054H152.76C153.103 84.9194 153.431 85.0463 153.694 85.2663C153.956 85.4864 154.139 85.7873 154.212 86.1219L155.327 91.9056C155.364 92.0522 155.366 92.2054 155.333 92.353C155.3 92.5005 155.234 92.6385 155.139 92.756C155.044 92.8735 154.922 92.9673 154.785 93.0301C154.647 93.0928 154.497 93.1228 154.346 93.1176Z" fill="#AFCDFB"/>
<path d="M168.945 93.1176H163.159C162.817 93.1035 162.489 92.9765 162.226 92.7564C161.964 92.5363 161.782 92.2355 161.709 91.901L160.592 86.1219C160.555 85.9748 160.553 85.8211 160.585 85.6729C160.618 85.5248 160.685 85.3863 160.78 85.2683C160.875 85.1503 160.997 85.0561 161.135 84.9931C161.273 84.9301 161.424 84.9001 161.575 84.9054H167.359C167.701 84.9197 168.029 85.0468 168.292 85.2668C168.554 85.4868 168.737 85.7874 168.811 86.1219L169.921 91.901C169.958 92.0476 169.961 92.2009 169.929 92.3487C169.897 92.4965 169.831 92.6348 169.736 92.7528C169.642 92.8708 169.521 92.9651 169.383 93.0284C169.246 93.0917 169.096 93.1222 168.945 93.1176Z" fill="#AFCDFB"/>
<path d="M183.543 93.1176H177.757C177.415 93.1035 177.087 92.9765 176.825 92.7564C176.563 92.5363 176.381 92.2355 176.307 91.901L175.191 86.1219C175.154 85.9748 175.151 85.8211 175.184 85.6729C175.217 85.5248 175.283 85.3863 175.379 85.2683C175.474 85.1503 175.595 85.0561 175.733 84.9931C175.871 84.9301 176.022 84.9001 176.174 84.9054H181.957C182.3 84.9197 182.628 85.0468 182.89 85.2668C183.153 85.4868 183.335 85.7874 183.41 86.1219L184.524 91.9056C184.561 92.0522 184.563 92.2054 184.53 92.353C184.497 92.5005 184.431 92.6385 184.336 92.756C184.241 92.8735 184.12 92.9673 183.982 93.0301C183.845 93.0928 183.694 93.1228 183.543 93.1176Z" fill="#78ACEA"/>
<path d="M110.551 93.1176H104.765C104.423 93.1035 104.095 92.9765 103.833 92.7564C103.57 92.5363 103.388 92.2355 103.315 91.901L102.198 86.1219C102.161 85.9748 102.159 85.8211 102.192 85.6729C102.224 85.5248 102.291 85.3863 102.386 85.2683C102.482 85.1503 102.603 85.0561 102.741 84.9931C102.879 84.9301 103.03 84.9001 103.181 84.9054H108.965C109.307 84.9197 109.635 85.0468 109.898 85.2668C110.161 85.4868 110.343 85.7874 110.417 86.1219L111.532 91.9056C111.568 92.0522 111.57 92.2054 111.538 92.353C111.505 92.5005 111.439 92.6385 111.343 92.756C111.248 92.8735 111.127 92.9673 110.99 93.0301C110.852 93.0928 110.702 93.1228 110.551 93.1176Z" fill="#AFCDFB"/>
<path d="M104.21 75.7484H101.732C101.585 75.7428 101.444 75.6886 101.331 75.5943C101.218 75.5 101.14 75.371 101.109 75.2274L100.628 72.7354C100.612 72.6724 100.611 72.6063 100.624 72.5426C100.638 72.479 100.667 72.4194 100.708 72.3687C100.749 72.3181 100.801 72.2777 100.86 72.2509C100.92 72.2241 100.985 72.2116 101.05 72.2144H103.542C103.688 72.2221 103.828 72.277 103.941 72.371C104.054 72.4649 104.133 72.5927 104.167 72.7354L104.645 75.2274C104.662 75.2916 104.663 75.359 104.648 75.4238C104.634 75.4886 104.604 75.549 104.562 75.5999C104.519 75.6509 104.465 75.691 104.404 75.7168C104.343 75.7427 104.276 75.7535 104.21 75.7484Z" fill="#F99746"/>
<path d="M125.149 93.1176H119.363C119.021 93.1035 118.693 92.9765 118.431 92.7564C118.169 92.5363 117.987 92.2355 117.913 91.901L116.797 86.1219C116.76 85.9748 116.757 85.8211 116.79 85.6729C116.823 85.5248 116.889 85.3863 116.985 85.2683C117.08 85.1503 117.201 85.0561 117.339 84.9931C117.477 84.9301 117.628 84.9001 117.78 84.9054H123.563C123.906 84.9197 124.234 85.0468 124.496 85.2668C124.759 85.4868 124.942 85.7874 125.016 86.1219L126.13 91.9056C126.167 92.0522 126.169 92.2054 126.136 92.353C126.103 92.5005 126.037 92.6385 125.942 92.756C125.847 92.8735 125.726 92.9673 125.588 93.0301C125.451 93.0928 125.3 93.1228 125.149 93.1176Z" fill="#AFCDFB"/>
<path d="M139.748 93.1176H133.962C133.62 93.1035 133.292 92.9765 133.03 92.7564C132.767 92.5363 132.585 92.2355 132.512 91.901L131.395 86.1219C131.358 85.9748 131.356 85.8211 131.389 85.6729C131.421 85.5248 131.488 85.3863 131.583 85.2683C131.679 85.1503 131.8 85.0561 131.938 84.9931C132.076 84.9301 132.227 84.9001 132.378 84.9054H138.162C138.504 84.9197 138.832 85.0468 139.095 85.2668C139.357 85.4868 139.54 85.7874 139.614 86.1219L140.729 91.9056C140.765 92.0522 140.767 92.2054 140.735 92.353C140.702 92.5005 140.635 92.6385 140.54 92.756C140.445 92.8735 140.324 92.9673 140.187 93.0301C140.049 93.0928 139.899 93.1228 139.748 93.1176Z" fill="#AFCDFB"/>
<path d="M198.142 93.1176H192.349C192.007 93.1035 191.679 92.9765 191.417 92.7564C191.154 92.5363 190.972 92.2355 190.899 91.901L189.789 86.1219C189.752 85.9748 189.75 85.8211 189.782 85.6729C189.815 85.5248 189.882 85.3863 189.977 85.2683C190.072 85.1503 190.194 85.0561 190.332 84.9931C190.47 84.9301 190.62 84.9001 190.772 84.9054H196.556C196.899 84.9188 197.228 85.0454 197.491 85.2655C197.755 85.4855 197.938 85.7867 198.012 86.1219L199.127 91.9056C199.164 92.0526 199.166 92.2062 199.133 92.3541C199.1 92.5021 199.033 92.6403 198.937 92.7579C198.842 92.8755 198.72 92.9692 198.582 93.0316C198.444 93.0941 198.293 93.1235 198.142 93.1176Z" fill="#78ACEA"/>
<path d="M151.922 80.5535H146.134C145.792 80.539 145.464 80.4118 145.202 80.1918C144.94 79.9718 144.758 79.6712 144.684 79.3369L143.567 73.551C143.53 73.404 143.528 73.2504 143.561 73.1023C143.593 72.9543 143.66 72.8159 143.755 72.698C143.851 72.5802 143.972 72.4862 144.11 72.4235C144.248 72.3608 144.399 72.3311 144.55 72.3367H150.334C150.676 72.3502 151.004 72.4767 151.267 72.6964C151.53 72.9161 151.712 73.2166 151.786 73.551L152.901 79.3369C152.938 79.4837 152.94 79.637 152.908 79.7847C152.875 79.9325 152.809 80.0708 152.714 80.1887C152.619 80.3066 152.498 80.4009 152.361 80.4642C152.224 80.5275 152.073 80.558 151.922 80.5535Z" fill="#AFCDFB"/>
<path d="M166.523 80.5535H160.735C160.393 80.539 160.065 80.4118 159.803 80.1918C159.541 79.9718 159.359 79.6712 159.285 79.3369L158.168 73.551C158.131 73.404 158.129 73.2504 158.161 73.1023C158.194 72.9543 158.261 72.8159 158.356 72.698C158.451 72.5802 158.573 72.4862 158.711 72.4235C158.849 72.3608 159 72.3311 159.151 72.3367H164.937C165.279 72.3502 165.608 72.4767 165.87 72.6964C166.133 72.9161 166.315 73.2166 166.389 73.551L167.504 79.3369C167.541 79.4839 167.543 79.6374 167.511 79.7853C167.478 79.9333 167.412 80.0717 167.317 80.1896C167.221 80.3075 167.1 80.4018 166.963 80.4649C166.825 80.5281 166.674 80.5584 166.523 80.5535Z" fill="#AFCDFB"/>
<path d="M181.119 80.5535H175.333C174.991 80.539 174.663 80.4118 174.401 80.1918C174.139 79.9718 173.957 79.6712 173.883 79.3369L172.766 73.551C172.729 73.404 172.727 73.2504 172.76 73.1023C172.792 72.9543 172.859 72.8159 172.954 72.698C173.05 72.5802 173.171 72.4862 173.309 72.4235C173.447 72.3608 173.598 72.3311 173.75 72.3367H179.533C179.875 72.3502 180.204 72.4767 180.466 72.6964C180.729 72.9161 180.912 73.2166 180.985 73.551L182.1 79.3369C182.137 79.4839 182.139 79.6374 182.107 79.7853C182.074 79.9333 182.008 80.0717 181.913 80.1896C181.818 80.3075 181.696 80.4018 181.559 80.4649C181.421 80.5281 181.27 80.5584 181.119 80.5535Z" fill="#78ACEA"/>
<path d="M195.718 80.5535H189.932C189.59 80.539 189.262 80.4118 189 80.1918C188.738 79.9718 188.555 79.6712 188.482 79.3369L187.365 73.551C187.328 73.404 187.326 73.2504 187.358 73.1023C187.391 72.9543 187.458 72.8159 187.553 72.698C187.648 72.5802 187.77 72.4862 187.908 72.4235C188.046 72.3608 188.197 72.3311 188.348 72.3367H194.132C194.474 72.3502 194.802 72.4767 195.065 72.6964C195.328 72.9161 195.51 73.2166 195.584 73.551L196.699 79.3369C196.735 79.4839 196.738 79.6374 196.705 79.7853C196.673 79.9333 196.606 80.0717 196.511 80.1896C196.416 80.3075 196.295 80.4018 196.157 80.4649C196.02 80.5281 195.869 80.5584 195.718 80.5535Z" fill="#78ACEA"/>
<path d="M156.915 106.436H151.129C150.787 106.422 150.46 106.294 150.197 106.074C149.935 105.854 149.753 105.554 149.679 105.219L148.563 99.4336C148.526 99.2866 148.523 99.1329 148.556 98.9849C148.589 98.8368 148.655 98.6984 148.751 98.5806C148.846 98.4628 148.968 98.3688 149.106 98.3061C149.244 98.2434 149.394 98.2137 149.546 98.2193H155.329C155.672 98.2332 155.999 98.3598 156.262 98.5794C156.525 98.799 156.707 99.0993 156.782 99.4336L157.896 105.219C157.933 105.366 157.935 105.52 157.903 105.668C157.87 105.816 157.804 105.954 157.709 106.072C157.614 106.19 157.493 106.284 157.355 106.348C157.217 106.411 157.067 106.441 156.915 106.436Z" fill="#AFCDFB"/>
<path d="M171.507 106.436H165.728C165.386 106.422 165.058 106.294 164.796 106.074C164.534 105.854 164.352 105.554 164.278 105.219L163.161 99.4336C163.124 99.2866 163.122 99.1329 163.154 98.9849C163.187 98.8368 163.254 98.6984 163.349 98.5806C163.444 98.4628 163.566 98.3688 163.704 98.3061C163.842 98.2434 163.993 98.2137 164.144 98.2193H169.921C170.263 98.2332 170.591 98.3598 170.854 98.5794C171.116 98.799 171.299 99.0993 171.373 99.4336L172.488 105.219C172.525 105.366 172.527 105.52 172.494 105.668C172.462 105.816 172.396 105.954 172.3 106.072C172.205 106.19 172.084 106.284 171.946 106.348C171.809 106.411 171.658 106.441 171.507 106.436Z" fill="#AFCDFB"/>
<path d="M186.112 106.436H180.326C179.984 106.422 179.657 106.294 179.394 106.074C179.132 105.854 178.95 105.554 178.876 105.219L177.76 99.4336C177.722 99.2866 177.72 99.1329 177.753 98.9849C177.785 98.8368 177.852 98.6984 177.947 98.5806C178.043 98.4628 178.164 98.3688 178.302 98.3061C178.44 98.2434 178.591 98.2137 178.743 98.2193H184.526C184.868 98.2332 185.196 98.3598 185.459 98.5794C185.722 98.799 185.904 99.0993 185.979 99.4336L187.093 105.219C187.13 105.366 187.132 105.52 187.1 105.668C187.067 105.816 187.001 105.954 186.906 106.072C186.811 106.19 186.689 106.284 186.552 106.348C186.414 106.411 186.264 106.441 186.112 106.436Z" fill="#78ACEA"/>
<path d="M113.12 106.436H107.334C106.992 106.422 106.664 106.294 106.402 106.074C106.14 105.854 105.958 105.554 105.884 105.219L104.767 99.4336C104.73 99.2866 104.728 99.1329 104.76 98.9849C104.793 98.8368 104.86 98.6984 104.955 98.5806C105.051 98.4628 105.172 98.3688 105.31 98.3061C105.448 98.2434 105.599 98.2137 105.75 98.2193H111.534C111.876 98.2332 112.204 98.3598 112.467 98.5794C112.729 98.799 112.912 99.0993 112.986 99.4336L114.101 105.219C114.138 105.366 114.14 105.52 114.107 105.668C114.075 105.816 114.009 105.954 113.913 106.072C113.818 106.19 113.697 106.284 113.559 106.348C113.422 106.411 113.271 106.441 113.12 106.436Z" fill="#AFCDFB"/>
<path d="M127.718 106.436H121.932C121.59 106.422 121.263 106.294 121.001 106.074C120.738 105.854 120.556 105.554 120.483 105.219L119.366 99.4336C119.329 99.2866 119.326 99.1329 119.359 98.9849C119.392 98.8368 119.458 98.6984 119.554 98.5806C119.649 98.4628 119.771 98.3688 119.909 98.3061C120.047 98.2434 120.197 98.2137 120.349 98.2193H126.133C126.475 98.2332 126.803 98.3598 127.065 98.5794C127.328 98.799 127.511 99.0993 127.585 99.4336L128.69 105.219C128.727 105.366 128.729 105.518 128.697 105.666C128.665 105.813 128.6 105.951 128.506 106.068C128.412 106.186 128.292 106.281 128.155 106.344C128.018 106.408 127.869 106.44 127.718 106.436Z" fill="#AFCDFB"/>
<path d="M142.317 106.436H136.531C136.189 106.422 135.861 106.294 135.599 106.074C135.337 105.854 135.155 105.554 135.081 105.219L133.964 99.4336C133.927 99.2866 133.925 99.1329 133.957 98.9849C133.99 98.8368 134.057 98.6984 134.152 98.5806C134.247 98.4628 134.369 98.3688 134.507 98.3061C134.645 98.2434 134.796 98.2137 134.947 98.2193H140.731C141.073 98.2332 141.401 98.3598 141.664 98.5794C141.926 98.799 142.109 99.0993 142.183 99.4336L143.298 105.219C143.335 105.366 143.337 105.52 143.304 105.668C143.272 105.816 143.205 105.954 143.11 106.072C143.015 106.19 142.894 106.284 142.756 106.348C142.619 106.411 142.468 106.441 142.317 106.436Z" fill="#AFCDFB"/>
<path d="M200.711 106.436H194.925C194.583 106.422 194.255 106.294 193.993 106.074C193.731 105.854 193.548 105.554 193.475 105.219L192.349 99.4336C192.312 99.2866 192.31 99.1329 192.342 98.9849C192.375 98.8368 192.441 98.6984 192.537 98.5806C192.632 98.4628 192.754 98.3688 192.892 98.3061C193.03 98.2434 193.181 98.2137 193.332 98.2193H199.116C199.458 98.2329 199.785 98.3594 200.048 98.5791C200.31 98.7989 200.492 99.0993 200.566 99.4336L201.683 105.219C201.719 105.366 201.722 105.518 201.69 105.666C201.658 105.813 201.592 105.951 201.498 106.068C201.404 106.186 201.284 106.281 201.147 106.344C201.011 106.408 200.861 106.44 200.711 106.436Z" fill="#78ACEA"/>
<path d="M159.484 119.752H153.698C153.356 119.738 153.029 119.612 152.767 119.392C152.504 119.172 152.322 118.872 152.248 118.538L151.132 112.752C151.095 112.605 151.092 112.452 151.125 112.304C151.157 112.156 151.224 112.017 151.319 111.899C151.414 111.781 151.535 111.687 151.673 111.624C151.811 111.561 151.961 111.531 152.112 111.536H157.898C158.241 111.55 158.569 111.677 158.831 111.897C159.094 112.117 159.276 112.418 159.351 112.752L160.465 118.538C160.502 118.685 160.504 118.838 160.472 118.986C160.439 119.134 160.373 119.272 160.278 119.39C160.183 119.508 160.061 119.602 159.924 119.665C159.786 119.728 159.635 119.758 159.484 119.752Z" fill="#AFCDFB"/>
<path d="M174.083 119.752H168.297C167.955 119.738 167.627 119.612 167.365 119.392C167.103 119.172 166.921 118.872 166.847 118.538L165.73 112.752C165.693 112.605 165.691 112.452 165.723 112.304C165.756 112.156 165.822 112.017 165.917 111.899C166.012 111.781 166.134 111.687 166.271 111.624C166.409 111.561 166.56 111.531 166.711 111.536H172.497C172.839 111.55 173.167 111.677 173.429 111.897C173.691 112.117 173.873 112.418 173.947 112.752L175.064 118.538C175.101 118.685 175.103 118.838 175.07 118.986C175.038 119.134 174.971 119.272 174.876 119.39C174.781 119.508 174.66 119.602 174.522 119.665C174.384 119.728 174.234 119.758 174.083 119.752Z" fill="#AFCDFB"/>
<path d="M188.681 119.752H182.895C182.553 119.738 182.226 119.612 181.964 119.392C181.701 119.172 181.519 118.872 181.445 118.538L180.328 112.752C180.291 112.605 180.289 112.451 180.322 112.303C180.354 112.155 180.421 112.016 180.516 111.898C180.612 111.78 180.733 111.686 180.871 111.623C181.009 111.56 181.16 111.53 181.312 111.536H187.095C187.437 111.55 187.765 111.677 188.028 111.897C188.29 112.117 188.472 112.418 188.545 112.752L189.662 118.538C189.699 118.685 189.701 118.838 189.669 118.986C189.636 119.134 189.57 119.272 189.475 119.39C189.38 119.508 189.258 119.602 189.121 119.665C188.983 119.728 188.832 119.758 188.681 119.752Z" fill="#78ACEA"/>
<path d="M115.689 119.752H109.903C109.561 119.738 109.234 119.612 108.971 119.392C108.709 119.172 108.527 118.872 108.453 118.538L107.336 112.752C107.299 112.605 107.297 112.452 107.33 112.304C107.362 112.156 107.429 112.017 107.524 111.899C107.619 111.781 107.74 111.687 107.878 111.624C108.015 111.561 108.166 111.531 108.317 111.536H114.103C114.445 111.55 114.773 111.677 115.035 111.897C115.298 112.117 115.48 112.418 115.553 112.752L116.67 118.538C116.707 118.685 116.709 118.838 116.677 118.986C116.644 119.134 116.578 119.272 116.483 119.39C116.387 119.508 116.266 119.602 116.128 119.665C115.991 119.728 115.84 119.758 115.689 119.752Z" fill="#AFCDFB"/>
<path d="M130.287 119.752H124.501C124.16 119.738 123.832 119.612 123.57 119.392C123.307 119.172 123.125 118.872 123.051 118.538L121.935 112.752C121.898 112.605 121.895 112.452 121.928 112.304C121.96 112.156 122.027 112.017 122.122 111.899C122.217 111.781 122.338 111.687 122.476 111.624C122.614 111.561 122.764 111.531 122.916 111.536H128.701C129.044 111.55 129.371 111.677 129.634 111.897C129.896 112.117 130.078 112.418 130.151 112.752L131.268 118.538C131.305 118.685 131.308 118.838 131.275 118.986C131.243 119.134 131.176 119.272 131.081 119.39C130.986 119.508 130.865 119.602 130.727 119.665C130.589 119.728 130.439 119.758 130.287 119.752Z" fill="#F99746"/>
<path d="M144.886 119.752H139.111C138.769 119.738 138.442 119.612 138.18 119.392C137.917 119.172 137.735 118.872 137.661 118.538L136.545 112.752C136.508 112.605 136.505 112.451 136.538 112.303C136.571 112.155 136.637 112.016 136.733 111.898C136.828 111.78 136.949 111.686 137.087 111.623C137.225 111.56 137.376 111.53 137.528 111.536H143.311C143.653 111.55 143.981 111.677 144.244 111.897C144.506 112.117 144.688 112.418 144.761 112.752L145.878 118.538C145.915 118.686 145.918 118.84 145.884 118.989C145.851 119.138 145.784 119.277 145.687 119.395C145.591 119.513 145.468 119.607 145.329 119.669C145.19 119.731 145.038 119.759 144.886 119.752Z" fill="#AFCDFB"/>
<path d="M203.28 119.752H197.494C197.152 119.738 196.824 119.612 196.562 119.392C196.3 119.172 196.118 118.872 196.044 118.538L194.927 112.752C194.89 112.605 194.888 112.452 194.92 112.304C194.953 112.156 195.019 112.017 195.114 111.899C195.209 111.781 195.331 111.687 195.468 111.624C195.606 111.561 195.756 111.531 195.908 111.536H201.694C202.036 111.55 202.364 111.677 202.626 111.897C202.888 112.117 203.07 112.418 203.144 112.752L204.261 118.538C204.298 118.685 204.3 118.838 204.267 118.986C204.235 119.134 204.168 119.272 204.073 119.39C203.978 119.508 203.857 119.602 203.719 119.665C203.581 119.728 203.431 119.758 203.28 119.752Z" fill="#78ACEA"/>
<path d="M161.908 132.319H156.122C155.78 132.304 155.453 132.177 155.19 131.957C154.928 131.737 154.746 131.436 154.672 131.102L153.556 125.314C153.519 125.167 153.516 125.014 153.549 124.866C153.581 124.718 153.648 124.58 153.743 124.462C153.838 124.344 153.959 124.25 154.097 124.187C154.235 124.124 154.385 124.094 154.536 124.1H160.322C160.663 124.115 160.989 124.242 161.25 124.462C161.511 124.681 161.692 124.981 161.765 125.314L162.898 131.102C162.935 131.25 162.937 131.404 162.904 131.553C162.871 131.701 162.804 131.84 162.708 131.958C162.612 132.077 162.49 132.171 162.351 132.233C162.212 132.296 162.06 132.325 161.908 132.319Z" fill="#AFCDFB"/>
<path d="M176.507 132.319H170.721C170.379 132.304 170.051 132.177 169.789 131.957C169.527 131.737 169.345 131.436 169.271 131.102L168.154 125.314C168.117 125.167 168.115 125.014 168.147 124.866C168.18 124.718 168.246 124.58 168.341 124.462C168.437 124.344 168.558 124.25 168.695 124.187C168.833 124.124 168.984 124.094 169.135 124.1H174.921C175.263 124.114 175.59 124.24 175.853 124.46C176.115 124.68 176.297 124.98 176.371 125.314L177.488 131.1C177.525 131.247 177.528 131.401 177.495 131.549C177.463 131.697 177.397 131.836 177.301 131.954C177.206 132.072 177.085 132.167 176.947 132.23C176.809 132.293 176.658 132.324 176.507 132.319Z" fill="#AFCDFB"/>
<path d="M191.105 132.319H185.326C184.984 132.304 184.656 132.177 184.394 131.957C184.132 131.737 183.95 131.436 183.876 131.102L182.752 125.314C182.715 125.167 182.713 125.014 182.746 124.866C182.778 124.718 182.845 124.58 182.94 124.462C183.035 124.344 183.156 124.25 183.294 124.187C183.432 124.124 183.582 124.094 183.733 124.1H189.519C189.861 124.114 190.189 124.24 190.451 124.46C190.713 124.68 190.895 124.98 190.969 125.314L192.086 131.1C192.123 131.247 192.126 131.401 192.094 131.549C192.061 131.697 191.995 131.836 191.9 131.954C191.805 132.072 191.683 132.167 191.545 132.23C191.407 132.293 191.257 132.324 191.105 132.319Z" fill="#78ACEA"/>
<path d="M118.113 132.319H112.327C111.985 132.304 111.657 132.177 111.395 131.957C111.133 131.737 110.951 131.436 110.877 131.102L109.76 125.314C109.723 125.167 109.721 125.014 109.753 124.866C109.786 124.718 109.852 124.58 109.948 124.462C110.043 124.344 110.164 124.25 110.302 124.187C110.439 124.124 110.59 124.094 110.741 124.1H116.527C116.869 124.114 117.197 124.24 117.459 124.46C117.721 124.68 117.903 124.98 117.977 125.314L119.094 131.1C119.131 131.247 119.134 131.401 119.101 131.549C119.069 131.697 119.003 131.836 118.908 131.954C118.813 132.072 118.691 132.167 118.553 132.23C118.415 132.293 118.265 132.324 118.113 132.319Z" fill="#AFCDFB"/>
<path d="M132.711 132.319H126.925C126.583 132.304 126.256 132.177 125.994 131.957C125.731 131.737 125.549 131.436 125.475 131.102L124.359 125.314C124.322 125.167 124.319 125.014 124.352 124.866C124.384 124.718 124.451 124.58 124.546 124.462C124.641 124.344 124.762 124.25 124.9 124.187C125.038 124.124 125.188 124.094 125.34 124.1H131.125C131.467 124.114 131.795 124.24 132.057 124.46C132.319 124.68 132.502 124.98 132.575 125.314L133.692 131.1C133.73 131.247 133.732 131.401 133.7 131.549C133.668 131.697 133.601 131.836 133.506 131.954C133.411 132.072 133.29 132.167 133.152 132.23C133.014 132.293 132.863 132.324 132.711 132.319Z" fill="#AFCDFB"/>
<path d="M147.31 132.319H141.524C141.182 132.304 140.854 132.177 140.592 131.957C140.33 131.737 140.148 131.436 140.074 131.102L138.957 125.314C138.92 125.167 138.918 125.014 138.95 124.866C138.983 124.718 139.049 124.58 139.144 124.462C139.24 124.344 139.361 124.25 139.499 124.187C139.636 124.124 139.787 124.094 139.938 124.1H145.724C146.066 124.114 146.393 124.24 146.656 124.46C146.918 124.68 147.1 124.98 147.174 125.314L148.291 131.1C148.328 131.247 148.331 131.401 148.298 131.549C148.266 131.697 148.2 131.836 148.105 131.954C148.009 132.072 147.888 132.167 147.75 132.23C147.612 132.293 147.461 132.324 147.31 132.319Z" fill="#AFCDFB"/>
<path d="M121.744 73.4673H106.419C106.31 73.4667 106.205 73.423 106.128 73.3458C106.051 73.2686 106.007 73.1641 106.006 73.0549C106.007 72.946 106.051 72.8417 106.128 72.7649C106.205 72.688 106.31 72.6449 106.419 72.6449H121.744C121.853 72.6455 121.957 72.6889 122.034 72.7656C122.11 72.8424 122.154 72.9464 122.154 73.0549C122.154 73.1639 122.111 73.2684 122.034 73.3457C121.958 73.4229 121.853 73.4667 121.744 73.4673Z" fill="#AFCDFB"/>
<path d="M122.211 75.3226H106.883C106.775 75.322 106.671 75.2786 106.594 75.2018C106.517 75.1251 106.474 75.0211 106.473 74.9125C106.473 74.8036 106.516 74.6991 106.593 74.6218C106.67 74.5445 106.774 74.5008 106.883 74.5002H122.211C122.32 74.5008 122.424 74.5445 122.501 74.6218C122.578 74.6991 122.621 74.8036 122.621 74.9125C122.621 75.0211 122.577 75.1251 122.5 75.2018C122.424 75.2786 122.32 75.322 122.211 75.3226Z" fill="#AFCDFB"/>
<path d="M105.306 59.6435H100.048C99.8408 59.6435 99.6417 59.5613 99.4948 59.4148C99.3479 59.2683 99.265 59.0695 99.2644 58.862C99.2644 58.759 99.2847 58.6571 99.3241 58.562C99.3635 58.4669 99.4212 58.3805 99.494 58.3077C99.5668 58.2349 99.6532 58.1772 99.7483 58.1378C99.8434 58.0984 99.9453 58.0781 100.048 58.0781H105.306C105.514 58.0787 105.713 58.1615 105.86 58.3084C106.007 58.4552 106.09 58.6543 106.09 58.862C106.089 59.0693 106.006 59.2677 105.859 59.4141C105.712 59.5605 105.514 59.6429 105.306 59.6435Z" fill="white"/>
<path d="M119.74 59.6435H114.479C114.272 59.6429 114.073 59.5605 113.926 59.4141C113.78 59.2677 113.697 59.0693 113.695 58.862C113.696 58.6543 113.779 58.4552 113.926 58.3084C114.072 58.1615 114.272 58.0787 114.479 58.0781H119.74C119.947 58.0787 120.146 58.1616 120.292 58.3085C120.439 58.4554 120.521 58.6545 120.521 58.862C120.521 59.0691 120.438 59.2675 120.292 59.414C120.145 59.5604 119.947 59.6429 119.74 59.6435Z" fill="white"/>
<path d="M134.17 59.6435H128.917C128.71 59.6429 128.511 59.5604 128.365 59.414C128.218 59.2675 128.136 59.0691 128.135 58.862C128.135 58.6545 128.217 58.4554 128.364 58.3085C128.51 58.1616 128.709 58.0787 128.917 58.0781H134.177C134.385 58.0787 134.584 58.1615 134.731 58.3084C134.878 58.4552 134.96 58.6543 134.961 58.862C134.96 58.9652 134.939 59.0673 134.899 59.1625C134.859 59.2576 134.801 59.3439 134.727 59.4165C134.654 59.4891 134.567 59.5465 134.471 59.5854C134.376 59.6244 134.273 59.6441 134.17 59.6435Z" fill="white"/>
<path d="M148.601 59.6435H143.343C143.136 59.6435 142.937 59.5613 142.79 59.4148C142.643 59.2683 142.56 59.0695 142.559 58.862C142.559 58.759 142.58 58.6571 142.619 58.562C142.658 58.4669 142.716 58.3805 142.789 58.3077C142.862 58.2349 142.948 58.1772 143.043 58.1378C143.138 58.0984 143.24 58.0781 143.343 58.0781H148.601C148.809 58.0787 149.008 58.1615 149.155 58.3084C149.302 58.4552 149.384 58.6543 149.385 58.862C149.384 59.0693 149.301 59.2677 149.154 59.4141C149.007 59.5605 148.808 59.6429 148.601 59.6435Z" fill="white"/>
<path d="M163.034 59.6435H157.774C157.567 59.6429 157.368 59.5605 157.221 59.4141C157.074 59.2677 156.991 59.0693 156.99 58.862C156.991 58.6543 157.073 58.4552 157.22 58.3084C157.367 58.1615 157.566 58.0787 157.774 58.0781H163.034C163.242 58.0787 163.441 58.1616 163.587 58.3085C163.734 58.4554 163.816 58.6545 163.816 58.862C163.815 59.0691 163.733 59.2675 163.586 59.414C163.44 59.5604 163.241 59.6429 163.034 59.6435Z" fill="white"/>
<path d="M177.465 59.6435H172.205C171.997 59.6429 171.799 59.5604 171.653 59.414C171.506 59.2675 171.424 59.0691 171.423 58.862C171.423 58.6545 171.505 58.4554 171.652 58.3085C171.798 58.1616 171.997 58.0787 172.205 58.0781H177.465C177.673 58.0787 177.872 58.1615 178.018 58.3084C178.165 58.4552 178.248 58.6543 178.249 58.862C178.248 59.0693 178.164 59.2677 178.018 59.4141C177.871 59.5605 177.672 59.6429 177.465 59.6435Z" fill="white"/>
<path d="M191.896 59.6435H186.638C186.43 59.6429 186.232 59.5605 186.085 59.4141C185.938 59.2677 185.855 59.0693 185.854 58.862C185.855 58.6543 185.937 58.4552 186.084 58.3084C186.231 58.1615 186.43 58.0787 186.638 58.0781H191.896C191.999 58.0781 192.101 58.0984 192.196 58.1378C192.291 58.1772 192.377 58.2349 192.45 58.3077C192.523 58.3805 192.581 58.4669 192.62 58.562C192.659 58.6571 192.68 58.759 192.68 58.862C192.679 59.0695 192.596 59.2683 192.449 59.4148C192.302 59.5613 192.103 59.6435 191.896 59.6435Z" fill="white"/>
<path d="M158.632 80.6667C157.47 80.6667 156.625 80.2975 156.165 79.5838C155.282 78.211 155.964 76.2876 158.204 73.8659C159.296 72.7111 160.483 71.6502 161.752 70.6943C161.787 70.6701 161.83 70.6602 161.872 70.6665C161.914 70.6729 161.952 70.6949 161.979 70.7283C162.002 70.7637 162.011 70.8066 162.004 70.8486C161.998 70.8905 161.976 70.9284 161.942 70.9548C161.868 71.0092 154.539 76.4349 156.449 79.4003C157.053 80.3405 158.349 80.4017 159.332 80.2884C161.145 80.08 163.514 79.1013 165.676 77.6741C167.9 76.1948 169.468 74.5297 169.98 73.1024C170.313 72.1668 170.207 71.5166 169.672 71.1338C168.979 70.6535 167.531 70.6535 165.798 71.1338C164.137 71.5869 162.468 72.4183 161.439 73.2905C161.406 73.3152 161.364 73.3268 161.322 73.323C161.281 73.3193 161.242 73.3004 161.213 73.2701C161.187 73.2367 161.175 73.1948 161.179 73.1528C161.182 73.1108 161.202 73.0718 161.233 73.0435C162.298 72.1374 164.017 71.2901 165.719 70.8189C167.574 70.3069 169.09 70.325 169.876 70.8687C170.34 71.1904 170.793 71.861 170.306 73.227C169.774 74.72 168.159 76.4462 165.875 77.9641C163.684 79.4207 161.26 80.4175 159.396 80.6327C159.142 80.6602 158.887 80.6716 158.632 80.6667Z" fill="#C65447"/>
<path d="M189.001 71.1293L188.405 69.9966C188.405 69.9966 188.699 67.9894 186.185 66.7208C186.185 66.7208 185.265 66.347 184.746 67.0946C184.268 67.7742 185.652 67.6609 185.584 68.8435C185.516 70.026 186.069 70.717 186.851 71.1089L187.494 71.8565L189.001 71.1293Z" fill="#FFB27D"/>
<path d="M212.769 68.4379C212.769 68.4379 210.608 79.0379 198.724 82.5017C195.013 83.5823 186.586 71.3671 186.586 71.3671C186.586 71.3671 186.88 70.2344 188.738 70.5017C188.738 70.5017 196.945 75.9388 197.978 76.5233C198.885 77.0488 204.924 69.7926 207.672 68.6214C209.288 67.9236 211.107 67.8581 212.769 68.4379Z" fill="#233862"/>
<path d="M178.028 68.2504L178.505 70.8232L191.443 68.4277L190.966 65.8549L178.028 68.2504Z" fill="#C65447"/>
<path d="M175.245 70.0895L178.491 70.8189L178.015 68.2477L175.245 70.0895Z" fill="#FFB27D"/>
<path d="M192.614 66.4263L192.766 67.2396C192.81 67.4799 192.757 67.728 192.619 67.9293C192.48 68.1307 192.267 68.2688 192.027 68.3134L191.429 68.4244L190.953 65.8509L191.603 65.7308C191.83 65.6891 192.063 65.739 192.253 65.8694C192.442 65.9998 192.572 66.2001 192.614 66.4263Z" fill="#FFB27D"/>
<path d="M226.958 135.076C226.958 135.076 228.433 136.421 228.145 137.377C227.857 138.333 226.527 138.963 226.346 140.139C226.165 141.315 225.44 141.951 224.801 141.951H221.713C221.713 141.951 221.238 141.129 222.393 140.88C223.548 140.631 223.979 139.26 223.906 137.984C223.876 136.992 223.913 135.998 224.015 135.01L226.459 134.444L226.958 135.076Z" fill="#233862"/>
<path d="M208.868 138.558C208.868 138.558 209.133 141.618 208.486 141.938L200.203 141.92C200.203 141.92 200.203 140.964 201.533 140.753C202.863 140.542 205.201 139.761 205.597 138.034C205.994 136.308 208.868 138.558 208.868 138.558Z" fill="#233862"/>
<path d="M201.875 95.2992C201.875 95.2992 202.312 100.666 202.827 107.12C203.524 115.885 204.363 126.651 204.446 128.689C204.589 132.233 205.167 137.898 205.167 137.898C205.167 137.898 206.526 139.244 209.265 138.675C209.265 138.675 211.703 130.588 212.398 122.031C212.398 121.891 212.418 121.75 212.43 121.61C213.078 112.897 214.083 94.5562 214.083 94.5562L201.875 95.2992Z" fill="#F99746"/>
<path d="M201.875 95.2992C201.875 95.2992 202.312 100.666 202.827 107.12L212.398 122.031C212.398 121.891 212.418 121.75 212.43 121.61C213.078 112.897 214.083 94.5562 214.083 94.5562L201.875 95.2992Z" fill="#ED7D2B"/>
<path d="M203.871 95.9358C203.871 95.9358 211.745 115.375 216.924 124.512C222.103 133.648 223.721 136.197 223.721 136.197C223.721 136.197 226.686 135.03 226.956 134.233C226.956 134.233 224.976 116.594 221.519 112.297C219.559 109.866 217.257 102.576 217.151 100.027C217.044 97.4785 216.449 92.4312 216.449 92.4312L203.871 95.9358Z" fill="#F99746"/>
<path d="M214.233 65.9777C214.233 65.9777 208.905 68.549 205.833 67.5952C206.417 66.9163 207.122 66.3517 207.912 65.9302C207.806 65.314 207.722 64.7793 207.675 64.324C207.601 63.78 207.558 63.2325 207.545 62.6838L209.6 61.0685L211.551 59.5212C211.397 63.8709 214.233 65.9777 214.233 65.9777Z" fill="#FFB27D"/>
<path d="M201.54 95.741C201.628 95.8218 201.744 95.8656 201.864 95.8633C203.021 95.8384 206.395 96.4795 209.235 96.1872C211.646 95.9607 213.766 95.2584 216.052 94.2571C216.36 94.1189 217.058 93.7451 217.044 93.4212C217.044 93.0474 216.999 92.515 216.952 91.849C216.856 90.5191 216.725 88.632 216.68 86.3938C216.646 84.7355 216.664 82.8846 216.786 80.925C216.786 80.7914 216.8 80.66 216.804 80.5263C216.838 79.8082 216.856 79.0832 216.856 78.3764C216.876 76.2359 216.711 74.0977 216.363 71.9856C215.783 68.6101 214.697 65.9709 213.091 64.7951C212.865 64.632 211.553 65.2709 210.325 65.8644C209.298 66.3626 208.133 66.5022 207.018 66.2609L205.955 67.192C204.664 68.3655 203.237 69.983 202.62 72.4274C202.102 74.498 201.794 78.2428 201.628 82.1302C201.547 83.8973 201.488 85.6666 201.463 87.3407V87.3996C201.463 87.5741 201.463 87.7508 201.463 87.9252C201.397 92.2522 201.456 95.6843 201.54 95.741Z" fill="#2B478B"/>
<path d="M211.587 61.184C211.587 61.184 210.239 63.6397 207.675 64.3239C207.601 63.78 207.558 63.2324 207.545 62.6837L209.6 61.0685L211.587 61.184Z" fill="#ED985F"/>
<path d="M206.607 62.6136C206.607 62.6136 211.691 63.445 212.169 60.321C212.647 57.1969 213.623 55.1965 210.398 54.535C207.172 53.8735 206.358 54.97 205.941 55.9759C205.525 56.9817 205.298 62.3168 206.607 62.6136Z" fill="#FFB27D"/>
<path d="M214.016 54.1612C214.063 54.1068 214.17 54.0638 214.405 54.0525C214.271 53.9747 214.119 53.9319 213.963 53.9279C213.914 53.5971 213.737 53.0217 213.171 52.8722C213.263 52.9263 213.342 53.0007 213.402 53.0898C213.461 53.1788 213.5 53.2803 213.515 53.3864C212.86 52.7068 211.453 52.2197 207.557 52.5278C202.421 52.9333 204.113 56.2205 204.779 56.6056C205.445 56.9907 207.117 55.926 208.354 56.0211C209.591 56.1163 209.829 57.9105 210.25 58.1552C210.672 58.3998 210.504 57.9671 211.073 57.7021C211.641 57.437 211.696 58.3817 211.526 59.0002C211.356 59.6186 212.144 60.4206 212.144 60.4206L212.933 59.5711C213.721 58.7193 214.466 55.1195 214.106 54.3606C214.079 54.2971 214.05 54.2292 214.016 54.1612Z" fill="#2C3A64"/>
<path d="M188.393 69.9513C188.393 69.9513 188.568 69.2603 188.088 68.9499C187.607 68.6396 187.168 67.7946 186.955 67.9078C186.536 68.1344 187.181 68.882 187.066 69.8017C187.036 70.1234 187.784 70.9662 188.393 69.9513Z" fill="#FFB27D"/>
<path d="M216.675 86.4005C216.641 84.7422 216.659 82.8914 216.782 80.9318C216.782 80.7981 216.795 80.6667 216.8 80.5331C216.317 78.1385 215.585 76.0158 214.509 75.9456C214.509 75.9456 211.304 80.9839 216.675 86.4005Z" fill="#233862"/>
<path d="M220.914 95.0885C220.914 95.0885 220.646 97.6847 220.354 98.1763C220.062 98.6679 218.811 100.238 218.281 100.546C217.751 100.854 218.605 98.4776 218.508 98.0154C218.41 97.5533 218.071 98.8582 217.828 98.8899C217.586 98.9216 217.654 97.7436 217.645 97.3177C217.636 96.8918 218.777 95.8316 219.19 94.9209C219.602 94.0102 220.914 95.0885 220.914 95.0885Z" fill="#FFB27D"/>
<path d="M213.091 64.7679C213.091 64.7679 216.308 66.2926 217.849 68.6328C220.241 72.2575 223.014 85.5012 223.059 86.7268C223.104 87.9524 221.034 96.6064 221.034 96.6064C221.034 96.6064 218.929 96.4681 218.388 95.4057C218.388 95.4057 218.807 86.5138 218.542 85.943C218.277 85.3721 209.768 74.0154 210.724 71.5937C211.68 69.1719 213.091 64.7679 213.091 64.7679Z" fill="#2B478B"/>
<path d="M176.91 68.9839L177.078 70.5017L175.245 70.0894L176.91 68.9839Z" fill="#C65447"/>
<path d="M246.509 141.897H237.238C236.742 141.475 237.583 140.519 238.462 140.454C238.938 140.448 239.413 140.505 239.875 140.621C240.005 138.927 240.732 131.31 243.477 131.619C246.565 131.961 243.477 134.971 242.605 136.754C241.988 138.094 241.441 139.465 240.965 140.862C241.217 140.916 241.475 140.97 241.74 141.018C242.15 139.763 243.672 135.538 245.607 135.782C247.872 136.072 246.966 137.765 245.355 138.771C244.173 139.511 242.723 140.563 242.032 141.07C242.631 141.174 243.237 141.222 243.844 141.215C245.433 141.172 246.207 141.645 246.509 141.897Z" fill="#9583FF"/>
<path d="M34.9148 141.457C34.4232 140.685 32.9462 138.682 30.9775 138.947C28.8321 139.235 33.3471 140.651 34.7291 141.462C34.4707 141.475 34.2119 141.445 33.9633 141.374C33.039 141.043 31.4578 141.675 30.9503 141.897H39.7493C39.6489 141.559 39.4238 141.271 39.1195 141.093C38.861 140.997 38.582 140.972 38.3107 141.02C38.834 140.404 39.1965 138.433 37.7398 138.941C36.6773 139.312 36.6796 140.526 36.7838 141.226C36.5573 141.263 36.3307 141.299 36.1042 141.331C35.6647 139.099 34.1151 132.557 30.9752 132.382C27.8036 132.205 33.6756 139.167 35.633 141.394C35.3815 141.423 35.1391 141.446 34.9148 141.457Z" fill="#9583FF"/>
<path d="M275.633 141.804H0.366999C0.16431 141.804 0 141.968 0 142.17C0 142.372 0.16431 142.536 0.366999 142.536H275.633C275.836 142.536 276 142.372 276 142.17C276 141.968 275.836 141.804 275.633 141.804Z" fill="#9583FF"/>
</svg>
