<svg width="74" height="83" viewBox="0 0 74 83" fill="none" xmlns="http://www.w3.org/2000/svg">
<path d="M54.9792 43.0738C54.879 44.9768 54.7789 47.8812 55.2796 51.2865C55.6803 54.4914 56.4815 60.1 59.9869 65.8088C61.0886 67.6116 62.2904 69.1139 63.3921 70.3157L60.4876 77.2263C59.9869 77.3265 59.4861 77.3265 59.1856 77.4266C58.1841 77.1262 56.9823 76.5253 55.7804 75.8242C51.4738 73.2202 49.2704 69.4143 48.2689 67.2109C47.1672 70.2156 46.0655 73.2202 44.8636 76.2248C44.7635 76.6254 43.161 81.533 38.9545 82.4343C36.7512 82.9351 33.5462 82.3342 32.9453 80.6316C32.3444 79.1293 34.047 77.5268 35.2488 75.8242C38.6541 70.8165 37.6525 64.6069 36.1502 56.4945C35.4491 52.5884 34.2473 46.6794 30.2411 40.0692C26.3351 33.7595 21.1271 29.9537 17.8221 27.4498C15.0177 25.3466 12.4137 23.7441 10.5108 22.7426C9.80973 22.5423 1.89757 21.1401 0.295105 15.7318C-0.105511 14.1293 -0.305819 11.4252 1.09634 10.4236C2.29818 9.6224 4.10096 10.3235 6.90527 11.4252C10.3105 12.8273 12.614 14.5299 12.9145 14.7303C12.9145 14.7303 18.8236 18.9367 26.9361 23.644C28.1379 24.345 29.0393 24.8458 29.8405 25.3466C28.839 23.8443 28.1379 22.0415 28.0378 20.0384C27.6371 13.929 32.3444 8.5207 38.6541 8.12009C44.9638 7.71947 50.3721 12.3266 50.8729 18.4359C50.973 19.8381 50.7727 21.1401 50.4722 22.4421C50.7727 22.1416 51.1733 21.8412 51.5739 21.4406C53.8775 19.3373 56.9823 16.4329 60.4876 11.9259C61.8898 10.1232 63.4923 7.81963 65.0947 5.21562C67.198 1.91054 67.9992 0.207923 69.802 0.00761482C71.2041 -0.0925392 72.6063 0.808848 73.3074 1.91054C74.2087 3.3127 74.0084 4.81501 73.9083 5.41593C73.107 10.5238 64.9946 17.835 61.7896 21.5407C58.2843 25.4467 54.9792 31.9567 54.9792 43.0738Z" fill="#FFA551"/>
</svg>
