<svg width="12" height="10" viewBox="0 0 12 10" fill="none" xmlns="http://www.w3.org/2000/svg">
<path fill-rule="evenodd" clip-rule="evenodd" d="M0 5.00133C0 -0.470435 7.50425 -1.96021 9.58029 3.09941L9.97913 4.07143L11.1278 1.30487C11.2241 1.07287 11.4896 0.963159 11.7208 1.05983C11.952 1.1565 12.0613 1.42294 11.965 1.65494L10.3952 5.43565C10.2989 5.66766 10.0334 5.77737 9.80223 5.6807L6.03482 4.1054C5.80364 4.00873 5.69431 3.74229 5.79064 3.51029C5.88697 3.27829 6.15247 3.16857 6.38366 3.26524L9.14047 4.41797L8.74164 3.44596C7.04387 -0.691749 0.906968 0.526574 0.906968 5.00133C0.906968 7.75724 3.57057 9.72242 6.19178 8.90039L7.57396 8.46694L7.84449 9.33568L6.4623 9.76914C3.25707 10.7743 0 8.37128 0 5.00133Z" fill="#515151"/>
</svg>
