<svg width="15" height="25" viewBox="0 0 15 25" fill="none" xmlns="http://www.w3.org/2000/svg">
<g clip-path="url(#clip0_271_1222)">
<path d="M14.568 4.61113C14.2517 4.19577 13.7915 3.9309 13.2854 3.86468L12.9576 1.69757C12.8713 1.16181 12.578 0.686254 12.1581 0.373227C11.7267 0.0602003 11.2034 -0.0601945 10.6915 0.0301016C10.1796 0.120398 9.72522 0.427405 9.42614 0.866846C9.1213 0.415365 8.65543 0.108358 8.13204 0.0240819C7.60865 -0.0601945 7.07376 0.0782596 6.6539 0.415365C6.23403 0.752471 5.95796 1.25211 5.90045 1.80593C5.3368 1.4327 4.62936 1.39056 4.0312 1.69155C3.43304 1.99254 3.01893 2.59451 2.94416 3.28678C2.51279 3.02191 2.00091 2.93764 1.51778 3.05201C1.0289 3.16639 0.603284 3.4734 0.32721 3.91284C0.0511363 4.34626 -0.0581428 4.876 0.0281302 5.38767L0.70106 9.80617C0.74132 10.053 0.827593 10.2938 0.954127 10.5105C0.8506 11.0523 0.867854 11.6181 1.00014 12.1539L1.55229 14.315C1.69032 15.1035 2.25973 15.7416 2.80037 16.2654L3.34677 16.7951V23.5372C3.34677 23.7298 3.38703 23.9225 3.45604 24.097C3.52506 24.2716 3.62859 24.4341 3.76088 24.5726C4.02545 24.8495 4.37629 25 4.75014 25H10.9445C11.3241 25 11.6922 24.8375 11.9568 24.5485C12.2214 24.2596 12.3594 23.8743 12.3422 23.471L11.9913 15.3263L13.3142 14.1223C14.1021 13.4 14.591 12.3826 14.6658 11.287C14.6658 11.287 15.0051 6.08597 15.0051 6.07995C15.0396 5.55623 14.8843 5.02649 14.568 4.61113ZM10.0646 1.34241C10.2429 1.07754 10.5189 0.896945 10.8238 0.836747C11.1286 0.78257 11.4449 0.860826 11.698 1.04744C11.9511 1.23405 12.1236 1.51698 12.1811 1.83603L12.5032 3.9309C12.2616 4.00313 12.0316 4.12353 11.836 4.28606L10.3579 5.46593L9.869 2.26343C9.81724 1.93836 9.88626 1.60727 10.0646 1.34241ZM6.87246 1.34241C7.05075 1.07754 7.32683 0.896945 7.63166 0.836747C7.93649 0.78257 8.25282 0.860826 8.50589 1.04142C8.75896 1.22803 8.9315 1.51096 8.98902 1.83001L9.63319 6.04383L8.43687 7.00097C8.25282 7.15748 8.09753 7.34409 7.97675 7.55478C7.64891 7.38021 7.4131 7.05514 7.34983 6.6759L6.6769 2.25741C6.62514 1.93836 6.69416 1.60727 6.87246 1.34241ZM3.91617 2.8353C4.09446 2.57043 4.37054 2.38382 4.67537 2.32964C4.9802 2.27547 5.29653 2.3477 5.55535 2.53432C5.80842 2.72093 5.98097 3.00386 6.03848 3.3229L6.71141 7.74139C6.78043 8.15074 6.64815 8.5661 6.36057 8.84903C6.07299 9.13196 5.66463 9.24633 5.27928 9.15001C4.89393 9.0537 4.58334 8.75873 4.45106 8.36745L3.72061 3.75632C3.6631 3.43126 3.73787 3.10619 3.91617 2.8353ZM1.47177 9.67373L0.798836 5.25524C0.787333 5.183 0.781581 5.11077 0.781581 5.04455C0.781581 4.79172 0.856351 4.54491 0.994388 4.34024C1.17269 4.07537 1.44876 3.88876 1.75359 3.83458C2.02391 3.78642 2.29999 3.8406 2.5358 3.98507C2.77161 4.12955 2.95566 4.35228 3.05344 4.61715L3.77813 9.24633C3.84715 9.67975 3.69761 10.1192 3.37552 10.3961C3.05344 10.679 2.61632 10.7573 2.21946 10.6128C1.83411 10.4623 1.54654 10.1072 1.47177 9.67373ZM14.2114 6.00771L13.8721 11.2328C13.8146 12.1117 13.4235 12.9304 12.7908 13.5083L11.3414 14.8206C10.5822 15.3925 9.69071 15.7296 8.75896 15.7958C8.54615 15.8079 8.38511 16.0005 8.39661 16.2172C8.40236 16.4399 8.57491 16.6145 8.78772 16.6145C8.79922 16.6145 8.80497 16.6145 8.81647 16.6145C9.23634 16.5844 9.6562 16.5061 10.0588 16.3797C10.4614 16.2533 10.8525 16.0848 11.2206 15.8681L11.5485 23.5071C11.5542 23.6817 11.4967 23.8502 11.3817 23.9766C11.2666 24.1031 11.1056 24.1753 10.9388 24.1753H4.74439C4.40505 24.1753 4.12897 23.8864 4.12897 23.5312V16.6085C4.12897 16.4941 4.08296 16.3857 4.00244 16.3075L3.32951 15.6574C2.85213 15.2661 2.49554 14.7363 2.31149 14.1283L1.75359 11.9311C1.69607 11.7024 1.66732 11.4616 1.66157 11.2268C2.22522 11.57 2.9154 11.588 3.50206 11.287C4.08296 10.98 4.48557 10.3901 4.56034 9.71587C5.12974 10.065 5.82568 10.0891 6.41233 9.78811C6.99899 9.4811 7.4016 8.88515 7.48212 8.1989C7.55689 8.24705 7.63166 8.28919 7.71218 8.32531C7.71218 8.33735 7.70643 8.34939 7.70643 8.36143C7.64891 8.87913 7.7812 9.40284 8.08028 9.82423C6.80344 10.3841 5.72215 11.3472 5.00321 12.5873C4.88818 12.7799 4.95144 13.0328 5.13549 13.1471C5.31954 13.2675 5.56111 13.2013 5.67614 13.0087C6.32606 11.889 7.30957 11.0222 8.47138 10.5346L8.75321 10.4202C8.89124 10.4924 9.04078 10.5526 9.19032 10.5948C9.33986 10.6309 9.49515 10.655 9.6562 10.655C9.91502 10.655 10.1681 10.6008 10.4039 10.4924L10.3751 10.9258C10.3751 10.9379 10.3751 10.9439 10.3751 10.9559C10.3751 11.0523 10.4096 11.1486 10.4729 11.2268C10.5419 11.3111 10.6397 11.3593 10.7432 11.3653C10.7547 11.3653 10.7605 11.3653 10.772 11.3653C10.9791 11.3653 11.1458 11.1967 11.1631 10.986L11.2379 9.92656L11.698 9.55936L12.4917 9.54732C12.7103 9.54732 12.8828 9.36071 12.8828 9.13798C12.8828 8.90923 12.7045 8.72863 12.486 8.72863H12.4802L11.56 8.74067C11.4737 8.74067 11.3932 8.77077 11.3299 8.82495L10.3981 9.5714C10.1566 9.77607 9.84025 9.86636 9.53542 9.82423C9.22483 9.78811 8.94301 9.61956 8.75321 9.36673C8.56341 9.1139 8.47138 8.78281 8.51164 8.45774C8.54615 8.1387 8.70144 7.84373 8.94876 7.63906L12.3422 4.92415C12.5837 4.7255 12.8886 4.62919 13.1991 4.66531C13.504 4.70142 13.7858 4.85794 13.9814 5.11077C14.1424 5.36962 14.2402 5.68866 14.2114 6.00771Z" fill="#664500"/>
<path d="M14.212 6.00758L13.8726 11.2327C13.8151 12.1116 13.424 12.9303 12.7913 13.5082L11.3419 14.8205C10.5827 15.3924 9.69125 15.7295 8.7595 15.7957C8.5467 15.8077 8.38565 16.0004 8.39716 16.2171C8.40291 16.4398 8.57545 16.6144 8.78826 16.6144C8.79976 16.6144 8.80551 16.6144 8.81702 16.6144C9.23688 16.5843 9.65674 16.506 10.0593 16.3796C10.462 16.2532 10.8531 16.0846 11.2212 15.8679L11.549 23.507C11.5547 23.6816 11.4972 23.8501 11.3822 23.9765C11.2672 24.1029 11.1061 24.1752 10.9393 24.1752H4.74493C4.40559 24.1752 4.12952 23.8862 4.12952 23.5311V16.6084C4.12952 16.494 4.0835 16.3856 4.00298 16.3074L3.33005 15.6572C2.85268 15.266 2.49608 14.7362 2.31203 14.1282L1.75413 11.931C1.69662 11.7023 1.66786 11.4615 1.66211 11.2267C2.22576 11.5698 2.91594 11.5879 3.5026 11.2869C4.08351 10.9799 4.48611 10.39 4.56088 9.71575C5.13028 10.0649 5.82622 10.089 6.41288 9.78798C6.99953 9.48098 7.40214 8.88502 7.48266 8.19877C7.55743 8.24693 7.6322 8.28907 7.71272 8.32519C7.71272 8.33723 7.70697 8.34927 7.70697 8.3613C7.64946 8.879 7.78174 9.40272 8.08082 9.8241C6.80398 10.3839 5.72269 11.3471 5.00375 12.5872C4.88872 12.7798 4.95199 13.0326 5.13604 13.147C5.32009 13.2674 5.56165 13.2012 5.67668 13.0085C6.3266 11.8889 7.31012 11.022 8.47193 10.5344L8.75375 10.4201C8.89179 10.4923 9.04133 10.5525 9.19087 10.5946C9.34041 10.6307 9.4957 10.6548 9.65674 10.6548C9.91556 10.6548 10.1686 10.6007 10.4044 10.4923L10.3757 10.9257C10.3757 10.9378 10.3757 10.9438 10.3757 10.9558C10.3757 11.0521 10.4102 11.1484 10.4735 11.2267C10.5425 11.311 10.6403 11.3591 10.7438 11.3652C10.7553 11.3652 10.761 11.3652 10.7725 11.3652C10.9796 11.3652 11.1464 11.1966 11.1636 10.9859L11.2384 9.92644L11.6985 9.55923L12.4922 9.5472C12.7108 9.5472 12.8834 9.36058 12.8834 9.13785C12.8834 8.9091 12.7051 8.72851 12.4865 8.72851H12.4807L11.5605 8.74055C11.4742 8.74055 11.3937 8.77065 11.3304 8.82483L10.3987 9.57127C10.1571 9.77595 9.84079 9.86624 9.53596 9.8241C9.22538 9.78798 8.94355 9.61943 8.75375 9.3666C8.56395 9.11377 8.47193 8.78269 8.51219 8.45762C8.5467 8.13857 8.70199 7.84361 8.9493 7.63894L12.3427 4.92403C12.5843 4.72538 12.8891 4.62906 13.1997 4.66518C13.5045 4.7013 13.7863 4.85781 13.9819 5.11064C14.1429 5.36949 14.2407 5.68854 14.212 6.00758Z" fill="#FFCC4D"/>
<path d="M12.504 3.93081C12.2624 4.00304 12.0324 4.12344 11.8368 4.28597L10.3587 5.46584L9.86978 2.26334C9.81802 1.94429 9.88703 1.61321 10.0653 1.34232C10.2436 1.07745 10.5197 0.896856 10.8245 0.836659C11.1294 0.782481 11.4457 0.860738 11.6988 1.04735C11.9518 1.23396 12.1244 1.51689 12.1819 1.83594L12.504 3.93081Z" fill="#FFCC4D"/>
<path d="M9.63393 6.04395L8.43761 7.00109C8.25356 7.15761 8.09827 7.34422 7.97749 7.55491C7.64965 7.38034 7.41384 7.05527 7.35057 6.67603L6.67764 2.25753C6.62588 1.93849 6.6949 1.6074 6.87319 1.33651C7.05149 1.07164 7.32757 0.891052 7.6324 0.830855C7.93723 0.776677 8.25356 0.854934 8.50663 1.03553C8.7597 1.22214 8.93224 1.50507 8.98976 1.82411L9.63393 6.04395Z" fill="#FFCC4D"/>
<path d="M6.35541 8.84901C6.06784 9.13194 5.65948 9.24632 5.27412 9.15C4.88877 9.05369 4.57819 8.75872 4.4459 8.36744L3.72121 3.75631C3.66369 3.43726 3.73846 3.10618 3.91676 2.84131C4.09506 2.57644 4.37113 2.38983 4.67597 2.33565C4.9808 2.28147 5.29713 2.35371 5.55595 2.54032C5.80902 2.72693 5.98156 3.00986 6.03908 3.32891L6.71201 7.7474C6.77528 8.15072 6.64299 8.56609 6.35541 8.84901Z" fill="#FFCC4D"/>
<path d="M3.38192 10.3961C3.05983 10.679 2.62272 10.7572 2.22586 10.6128C1.83476 10.4623 1.54718 10.1071 1.47241 9.67369L0.799481 5.2552C0.787978 5.18296 0.782227 5.11073 0.782227 5.04451C0.782227 4.79168 0.856996 4.54487 0.995033 4.3402C1.17333 4.07533 1.4494 3.88872 1.75424 3.83454C2.02456 3.78638 2.30063 3.84056 2.53644 3.98503C2.77226 4.12951 2.95631 4.35224 3.05408 4.61711L3.77878 9.24629C3.8593 9.67971 3.70401 10.1131 3.38192 10.3961Z" fill="#FFCC4D"/>
</g>
<defs>
<clipPath id="clip0_271_1222">
<rect width="15" height="25" fill="white"/>
</clipPath>
</defs>
</svg>
