<svg width="17" height="17" viewBox="0 0 17 17" fill="none" xmlns="http://www.w3.org/2000/svg">
<path fill-rule="evenodd" clip-rule="evenodd" d="M8.49992 2.12492C4.9791 2.12492 2.12492 4.9791 2.12492 8.49992C2.12492 12.0207 4.9791 14.8749 8.49992 14.8749C12.0207 14.8749 14.8749 12.0207 14.8749 8.49992C14.8749 4.9791 12.0207 2.12492 8.49992 2.12492ZM0.708252 8.49992C0.708252 4.1967 4.1967 0.708252 8.49992 0.708252C12.8031 0.708252 16.2916 4.1967 16.2916 8.49992C16.2916 12.8031 12.8031 16.2916 8.49992 16.2916C4.1967 16.2916 0.708252 12.8031 0.708252 8.49992Z" fill="#FAFAFA"/>
<path fill-rule="evenodd" clip-rule="evenodd" d="M8.50008 3.54175C8.89128 3.54175 9.20841 3.85888 9.20841 4.25008V8.06231L11.6502 9.28319C12.0001 9.45815 12.1419 9.88362 11.967 10.2335C11.792 10.5834 11.3665 10.7253 11.0166 10.5503L8.18331 9.13363C7.94333 9.01365 7.79175 8.76838 7.79175 8.50008V4.25008C7.79175 3.85888 8.10888 3.54175 8.50008 3.54175Z" fill="#FAFAFA"/>
</svg>
