<svg width="72" height="77" viewBox="0 0 72 77" fill="none" xmlns="http://www.w3.org/2000/svg">
<path d="M71.5332 13.0608C67.9163 16.8786 61.2854 20.5959 58.0705 22.9067C53.9513 25.9207 49.2293 31.4465 46.7176 42.297C46.1148 44.2059 45.512 46.9185 45.1101 50.3344C44.8087 53.5494 44.2059 59.1756 46.3157 65.6056C48.2246 71.2318 51.0377 74.3463 49.7316 75.8533C48.9279 76.7575 46.9185 76.858 45.4115 76.9584C44.3063 77.0589 43.4022 76.9584 42.6989 76.858C41.7947 76.2552 40.6895 75.5519 39.7853 74.5472C36.1684 71.0308 34.8624 66.7107 34.36 64.3999C32.5516 67.1126 30.7432 69.7248 28.9348 72.4374C28.7338 72.7388 26.0212 77.2598 21.7011 76.9584C19.2898 76.9584 16.4767 75.5519 16.1753 73.8439C15.9744 72.2365 18.0842 71.1313 19.5913 69.6243C24.1123 65.5051 24.4137 59.2761 24.916 50.9372C25.117 47.019 25.4184 40.8904 22.9067 33.5563C20.4954 26.4231 16.3763 21.7011 13.7641 18.3856C11.4533 15.673 9.24303 13.5632 7.63554 12.0562C7.03273 11.8552 1.90889 9.54446 0 5.52574C2.00936 3.51638 4.11918 1.70796 6.42994 0C6.53041 0.100468 6.63086 0.100465 6.63086 0.200933C9.6449 2.41123 11.5538 4.62152 11.7547 4.82246C11.7547 4.82246 16.5772 10.3482 23.409 16.8786C24.4137 17.7828 25.2174 18.5866 25.9207 19.2898C25.4184 17.6824 25.3179 15.9744 25.5189 14.2664C26.5235 8.1379 32.3507 4.01872 38.5797 5.0234C44.8087 6.02808 49.1288 11.8552 48.1241 17.8833C47.9232 18.888 47.6218 19.7922 47.2199 20.6964C47.4209 20.5959 47.6218 20.4955 47.7223 20.395C50.4349 18.888 54.2527 16.7781 58.6733 13.1613C60.4817 11.7547 62.5915 9.94632 64.8018 7.73603C65.3042 7.23369 65.706 6.83182 66.1079 6.53042C66.2084 6.63088 66.4093 6.83181 66.5098 6.93228C68.7201 8.94164 70.2271 11.0515 71.5332 13.0608Z" fill="#AFCDFB"/>
</svg>
