<svg width="156" height="24" viewBox="0 0 156 24" fill="none" xmlns="http://www.w3.org/2000/svg">
<path d="M19 3H5C3.89543 3 3 3.89543 3 5V19C3 20.1046 3.89543 21 5 21H19C20.1046 21 21 20.1046 21 19V5C21 3.89543 20.1046 3 19 3Z" stroke="#B89EEE" stroke-width="2" stroke-linecap="round" stroke-linejoin="round"/>
<path d="M8.5 10C9.32843 10 10 9.32843 10 8.5C10 7.67157 9.32843 7 8.5 7C7.67157 7 7 7.67157 7 8.5C7 9.32843 7.67157 10 8.5 10Z" stroke="#B89EEE" stroke-width="2" stroke-linecap="round" stroke-linejoin="round"/>
<path d="M21 15L16 10L5 21" stroke="#B89EEE" stroke-width="2" stroke-linecap="round" stroke-linejoin="round"/>
<path d="M62 2H59C57.6739 2 56.4021 2.52678 55.4645 3.46447C54.5268 4.40215 54 5.67392 54 7V10H51V14H54V22H58V14H61L62 10H58V7C58 6.73478 58.1054 6.48043 58.2929 6.29289C58.4804 6.10536 58.7348 6 59 6H62V2Z" stroke="#B89EEE" stroke-width="2" stroke-linecap="round" stroke-linejoin="round"/>
<path d="M105 2H95C92.2386 2 90 4.23858 90 7V17C90 19.7614 92.2386 22 95 22H105C107.761 22 110 19.7614 110 17V7C110 4.23858 107.761 2 105 2Z" stroke="#B89EEE" stroke-width="2" stroke-linecap="round" stroke-linejoin="round"/>
<path d="M104 11.3701C104.123 12.2023 103.981 13.0523 103.594 13.7991C103.206 14.5459 102.593 15.1515 101.842 15.5297C101.09 15.908 100.238 16.0397 99.4077 15.906C98.5771 15.7723 97.8097 15.3801 97.2148 14.7852C96.6199 14.1903 96.2277 13.4229 96.094 12.5923C95.9604 11.7616 96.092 10.91 96.4703 10.1584C96.8485 9.40691 97.4541 8.7938 98.2009 8.4063C98.9477 8.0188 99.7977 7.87665 100.63 8.00006C101.479 8.12594 102.265 8.52152 102.872 9.12836C103.478 9.73521 103.874 10.5211 104 11.3701Z" stroke="#B89EEE" stroke-width="2" stroke-linecap="round" stroke-linejoin="round"/>
<path d="M105.5 6.5H105.51" stroke="#B89EEE" stroke-width="2" stroke-linecap="round" stroke-linejoin="round"/>
<path d="M154.54 6.42C154.421 5.94541 154.179 5.51057 153.839 5.15941C153.498 4.80824 153.071 4.55318 152.6 4.42C150.88 4 144 4 144 4C144 4 137.12 4 135.4 4.46C134.929 4.59318 134.502 4.84824 134.161 5.19941C133.821 5.55057 133.579 5.98541 133.46 6.46C133.145 8.20556 132.991 9.97631 133 11.75C132.989 13.537 133.143 15.3213 133.46 17.08C133.591 17.5398 133.838 17.9581 134.178 18.2945C134.518 18.6308 134.939 18.8738 135.4 19C137.12 19.46 144 19.46 144 19.46C144 19.46 150.88 19.46 152.6 19C153.071 18.8668 153.498 18.6118 153.839 18.2606C154.179 17.9094 154.421 17.4746 154.54 17C154.852 15.2676 155.006 13.5103 155 11.75C155.011 9.96295 154.857 8.1787 154.54 6.42V6.42Z" stroke="#B89EEE" stroke-width="2" stroke-linecap="round" stroke-linejoin="round"/>
<path d="M141.75 15.02L147.5 11.75L141.75 8.47998V15.02Z" stroke="#B89EEE" stroke-width="2" stroke-linecap="round" stroke-linejoin="round"/>
</svg>
