<svg width="19" height="18" viewBox="0 0 19 18" fill="none" xmlns="http://www.w3.org/2000/svg">
<g clip-path="url(#clip0_271_1399)">
<path d="M18.9646 11.9621L18.7071 8.09284C18.6364 6.98507 18.3485 6.35432 17.8232 5.82959C17.298 5.31015 17.101 5.08224 17.101 4.30839C17.101 3.21122 16.8687 2.31546 16.3636 1.68471C15.8586 1.05397 15.0758 0.767752 14.2626 0.826056L12.5101 0.947964L11.3535 0.311922C10.601 -0.101506 9.69192 -0.117407 9.0202 0.333123L7.76263 1.17588L6.37374 0.985067C5.65657 0.88436 4.86869 1.09107 4.37374 1.74302L3.32828 3.12641L1.93434 3.35432C1.25758 3.46563 0.691919 3.86316 0.388889 4.425C0.0808081 4.99213 0 5.65998 0 6.40203V10.5469C0 11.3685 0.19697 12.0946 0.575758 12.6511C0.959596 13.2077 1.56061 13.5734 2.22727 13.5734H3.64646C3.78788 13.796 3.9596 13.9868 4.16162 14.1352C4.67172 14.5063 5.27273 14.6494 5.96465 14.6494C6.84848 14.6494 7.57576 14.4056 8.0404 13.8967C8.12121 13.9815 8.20707 14.061 8.29798 14.1299C8.18687 14.4639 8.12121 14.8084 8.12626 15.1476C8.13131 15.6405 8.27778 16.1388 8.59596 16.531C8.91414 16.9285 9.39394 17.1935 9.95959 17.289L13.5101 17.8773C14.0404 17.9621 14.5101 18.031 14.9848 17.978C15.4596 17.925 15.9394 17.7024 16.298 17.289L18.1515 15.1529C19.005 14.1776 19.0707 13.5363 18.9646 11.9621ZM17.2727 14.3155L15.4192 16.4515C15.2475 16.6529 15.1212 16.7059 14.8586 16.7377C14.596 16.7642 14.2071 16.7271 13.702 16.6423L10.1515 16.0593C9.81313 16.001 9.63131 15.8738 9.5101 15.7306C9.38889 15.5822 9.32323 15.3914 9.31818 15.137C9.31818 14.9727 9.34848 14.7872 9.40909 14.5911C9.63636 14.6335 9.87374 14.66 10.1162 14.6547C11.0354 14.6388 11.7071 14.4268 12.2172 13.8702C12.7576 14.4533 13.4646 14.6494 14.1465 14.6547C14.798 14.66 15.4343 14.4639 15.9192 14.0292C16.404 13.5946 16.702 12.9162 16.697 12.1317L16.4495 8.32606C16.3939 7.478 15.4949 7.478 15.5101 8.32606V12.1317C15.5101 12.614 15.3687 12.8844 15.1465 13.0858C14.9242 13.2872 14.5758 13.4091 14.1465 13.4091C13.7121 13.4091 13.3687 13.2872 13.1465 13.0858C12.9242 12.8844 12.798 12.6193 12.7828 12.1317L12.596 5.9462C12.5758 5.37376 11.7879 5.37906 11.7727 5.9462L11.596 12.1317C11.5859 12.5133 11.4949 12.9268 11.2475 13.1123C11.0101 13.2872 10.6111 13.4038 10.1212 13.4038C9.63131 13.4038 9.23232 13.2872 8.99495 13.1123C8.75758 12.9427 8.65656 12.7625 8.64646 12.3702L8.49495 6.16351C8.4798 5.55927 7.73232 5.59637 7.71212 6.16351L7.4596 12.3702C7.44444 12.7625 7.34848 12.9427 7.11111 13.1123C6.87374 13.2872 6.4697 13.4038 5.9798 13.4038C5.4899 13.4038 5.09091 13.2872 4.85353 13.1123C4.61616 12.9427 4.51515 12.7625 4.50505 12.3702L4.32323 7.20238C4.30303 6.60344 3.62121 6.65644 3.59596 7.20238L3.31818 12.3331H2.22727C1.95455 12.3331 1.73737 12.2165 1.5404 11.925C1.33838 11.6335 1.18687 11.1617 1.18687 10.5522V6.40733C1.18687 5.77129 1.27778 5.30485 1.41919 5.03984C1.56061 4.77482 1.71212 4.65291 2.11616 4.58401L3.74242 4.31899C3.89394 4.29249 4.02525 4.21298 4.11616 4.09107L5.30303 2.51687C5.43434 2.34726 5.87879 2.17235 6.21212 2.21475L7.81818 2.43736C7.9596 2.45856 8.09596 2.42146 8.21717 2.34196L9.62121 1.40379C10 1.14938 10.4596 1.22358 10.803 1.4144L12.1061 2.12994C12.202 2.18295 12.3131 2.20945 12.4242 2.20415L14.3384 2.07164C14.8737 2.03454 15.197 2.17235 15.4545 2.49567C15.7121 2.81899 15.9394 3.40203 15.9091 4.31369C15.8687 5.68118 16.3838 6.0522 16.9596 6.68825C17.404 7.18118 17.4596 7.20768 17.5202 8.17765L17.7778 12.0522C17.8687 13.3667 17.8788 13.6211 17.2727 14.3155Z" fill="#664500"/>
<path d="M17.2728 14.3165L15.4193 16.4526C15.2475 16.654 15.1213 16.707 14.8586 16.7388C14.596 16.7653 14.2071 16.7282 13.7021 16.6434L10.1516 16.0603C9.81319 16.002 9.63137 15.8748 9.51016 15.7317C9.38895 15.5833 9.32329 15.3925 9.31824 15.1381C9.31824 14.9738 9.34854 14.7882 9.40915 14.5921C9.63642 14.6345 9.8738 14.661 10.1162 14.6557C11.0354 14.6398 11.7071 14.4278 12.2172 13.8713C12.7576 14.4543 13.4647 14.6504 14.1465 14.6557C14.798 14.661 15.4344 14.4649 15.9193 14.0303C16.4041 13.5957 16.7021 12.9172 16.697 12.1328L16.4496 8.32711C16.394 7.47906 15.495 7.47906 15.5102 8.32711V12.1328C15.5102 12.6151 15.3687 12.8854 15.1465 13.0868C14.9243 13.2882 14.5758 13.4102 14.1465 13.4102C13.7122 13.4102 13.3687 13.2882 13.1465 13.0868C12.9243 12.8854 12.798 12.6204 12.7829 12.1328L12.596 5.94726C12.5758 5.37482 11.7879 5.38012 11.7728 5.94726L11.596 12.1328C11.5859 12.5144 11.495 12.9278 11.2475 13.1133C11.0102 13.2882 10.6112 13.4049 10.1213 13.4049C9.63137 13.4049 9.23238 13.2882 8.99501 13.1133C8.75764 12.9437 8.65663 12.7635 8.64652 12.3713L8.49501 6.16457C8.47986 5.56033 7.73238 5.59743 7.71218 6.16457L7.45966 12.3713C7.4445 12.7635 7.34854 12.9437 7.11117 13.1133C6.8738 13.2882 6.46976 13.4049 5.97986 13.4049C5.48996 13.4049 5.09097 13.2882 4.85359 13.1133C4.61622 12.9437 4.51521 12.7635 4.50511 12.3713L4.32329 7.20344C4.30309 6.6045 3.62127 6.6575 3.59602 7.20344L3.31824 12.3342H2.22733C1.9546 12.3342 1.73743 12.2176 1.54046 11.9261C1.33844 11.6345 1.18693 11.1628 1.18693 10.5533V6.40839C1.18693 5.77234 1.27784 5.30591 1.41925 5.04089C1.56067 4.77588 1.71218 4.65397 2.11622 4.58506L3.74248 4.32005C3.894 4.29354 4.02531 4.21404 4.11622 4.09213L5.30309 2.51793C5.4344 2.34832 5.87885 2.1734 6.21218 2.21581L7.81824 2.43842C7.95966 2.45962 8.09602 2.42252 8.21723 2.34301L9.62127 1.40485C10.0001 1.15044 10.4597 1.22464 10.8031 1.41545L12.1061 2.131C12.2021 2.184 12.3132 2.21051 12.4243 2.20521L14.3384 2.0727C14.8738 2.03559 15.197 2.1734 15.4546 2.49672C15.7122 2.82005 15.9395 3.40309 15.9092 4.31475C15.8687 5.68224 16.3839 6.05326 16.9597 6.6893C17.4041 7.18224 17.4597 7.20874 17.5203 8.1787L17.7778 12.0533C17.8687 13.3677 17.8788 13.6222 17.2728 14.3165Z" fill="#FFCC4D"/>
</g>
<defs>
<clipPath id="clip0_271_1399">
<rect width="19" height="18" fill="white"/>
</clipPath>
</defs>
</svg>
