<svg width="350" height="30" viewBox="0 0 350 30" fill="none" xmlns="http://www.w3.org/2000/svg">
<path d="M3.75 11.25L15 2.5L26.25 11.25V25C26.25 25.663 25.9866 26.2989 25.5178 26.7678C25.0489 27.2366 24.413 27.5 23.75 27.5H6.25C5.58696 27.5 4.95107 27.2366 4.48223 26.7678C4.01339 26.2989 3.75 25.663 3.75 25V11.25Z" fill="#956FE0" stroke="#717171" stroke-width="2" stroke-linecap="round" stroke-linejoin="round"/>
<path d="M95.0004 17.3857C98.1185 17.3857 100.646 14.7954 100.646 11.6C100.646 8.40471 98.1185 5.81438 95.0004 5.81438C91.8824 5.81438 89.3547 8.40471 89.3547 11.6C89.3547 14.7954 91.8824 17.3857 95.0004 17.3857Z" fill="#909090"/>
<path d="M95.0005 27.7134C100.031 27.7134 104.109 25.7509 104.109 23.3301C104.109 20.9093 100.031 18.9468 95.0005 18.9468C89.9701 18.9468 85.8921 20.9093 85.8921 23.3301C85.8921 25.7509 89.9701 27.7134 95.0005 27.7134Z" fill="#909090"/>
<path d="M87.8585 14.0716C87.8801 14.0716 87.9012 14.0683 87.9233 14.0683C87.6645 13.2934 87.5213 12.464 87.5213 11.6003C87.5213 8.4123 89.4318 5.67469 92.1403 4.52122C91.1047 3.28603 89.5727 2.50031 87.859 2.50031C84.7409 2.50031 82.2133 5.09091 82.2133 8.28596C82.2128 11.481 84.7405 14.0716 87.8585 14.0716Z" fill="#909090"/>
<path d="M102.479 11.6C102.479 12.4642 102.336 13.2931 102.077 14.068C102.099 14.0685 102.12 14.0713 102.142 14.0713C105.26 14.0713 107.788 11.4807 107.788 8.28565C107.788 5.09013 105.26 2.5 102.142 2.5C100.428 2.5 98.8957 3.28526 97.8606 4.52092C100.569 5.67438 102.479 8.41199 102.479 11.6Z" fill="#909090"/>
<path d="M102.142 15.6325C101.871 15.6325 101.605 15.6409 101.34 15.6517C100.885 16.3952 100.31 17.055 99.6411 17.5994C103.464 18.5434 105.942 20.6681 105.942 23.3301C105.942 23.5602 105.923 23.7866 105.886 24.0082C109.047 23.3207 111.25 21.7934 111.25 20.0157C111.25 17.5951 107.172 15.6325 102.142 15.6325Z" fill="#909090"/>
<path d="M90.3593 17.5994C89.6906 17.055 89.1157 16.3956 88.6601 15.6517C88.3957 15.6404 88.129 15.6325 87.8584 15.6325C82.828 15.6325 78.75 17.5951 78.75 20.0157C78.75 21.7934 80.9531 23.3207 84.1139 24.0082C84.0777 23.7866 84.0585 23.5602 84.0585 23.3301C84.059 20.6685 86.5373 18.5434 90.3593 17.5994Z" fill="#909090"/>
<path d="M185 15V27.5H165V15" stroke="#DCCFF5" stroke-width="2" stroke-linecap="round" stroke-linejoin="round"/>
<path d="M187.5 8.75H162.5V15H187.5V8.75Z" stroke="#DCCFF5" stroke-width="2" stroke-linecap="round" stroke-linejoin="round"/>
<path d="M175 27.5V8.75" stroke="#DCCFF5" stroke-width="2" stroke-linecap="round" stroke-linejoin="round"/>
<path d="M175 8.75H169.375C168.546 8.75 167.751 8.42076 167.165 7.83471C166.579 7.24866 166.25 6.4538 166.25 5.625C166.25 4.7962 166.579 4.00134 167.165 3.41529C167.751 2.82924 168.546 2.5 169.375 2.5C173.75 2.5 175 8.75 175 8.75Z" stroke="#DCCFF5" stroke-width="2" stroke-linecap="round" stroke-linejoin="round"/>
<path d="M175 8.75H180.625C181.454 8.75 182.249 8.42076 182.835 7.83471C183.421 7.24866 183.75 6.4538 183.75 5.625C183.75 4.7962 183.421 4.00134 182.835 3.41529C182.249 2.82924 181.454 2.5 180.625 2.5C176.25 2.5 175 8.75 175 8.75Z" stroke="#DCCFF5" stroke-width="2" stroke-linecap="round" stroke-linejoin="round"/>
<path d="M262.5 10C262.5 8.01088 261.71 6.10322 260.303 4.6967C258.897 3.29018 256.989 2.5 255 2.5C253.011 2.5 251.103 3.29018 249.697 4.6967C248.29 6.10322 247.5 8.01088 247.5 10C247.5 18.75 243.75 21.25 243.75 21.25H266.25C266.25 21.25 262.5 18.75 262.5 10Z" stroke="#DCCFF5" stroke-width="2" stroke-linecap="round" stroke-linejoin="round"/>
<path d="M257.163 26.25C256.943 26.6288 256.627 26.9433 256.248 27.1619C255.868 27.3805 255.438 27.4956 255 27.4956C254.562 27.4956 254.132 27.3805 253.752 27.1619C253.373 26.9433 253.057 26.6288 252.838 26.25" stroke="#DCCFF5" stroke-width="2" stroke-linecap="round" stroke-linejoin="round"/>
<path d="M339.594 9.95685C339.594 12.6944 337.375 14.9137 334.637 14.9137C331.9 14.9137 329.68 12.6944 329.68 9.95685C329.68 7.21926 331.9 5 334.637 5C337.375 5 339.594 7.21926 339.594 9.95685Z" stroke="#DCCFF5" stroke-width="2"/>
<path d="M325.158 20.8042C325.737 19.8255 327.1 18.2889 329.348 17.6931C330.384 18.3204 331.935 18.9738 333.689 19.183C335.558 19.4059 337.699 19.1259 339.657 17.729C340.332 17.9571 341.208 18.3365 342.012 18.8561C342.943 19.458 343.647 20.1625 343.95 20.9205C343.912 20.9801 343.858 21.0562 343.785 21.1488C343.526 21.4786 343.115 21.9029 342.599 22.3561C341.558 23.2698 340.223 24.1835 339.094 24.6273C336.826 25.5185 334.2 25.8999 331.69 25.3417C329.341 24.8192 327.032 23.462 325.158 20.8042ZM344.029 20.7731C344.03 20.7728 344.027 20.7804 344.02 20.7969C344.024 20.7817 344.028 20.7734 344.029 20.7731Z" stroke="#DCCFF5" stroke-width="2" stroke-linejoin="round"/>
</svg>
