<svg width="14" height="12" viewBox="0 0 14 12" fill="none" xmlns="http://www.w3.org/2000/svg">
<path fill-rule="evenodd" clip-rule="evenodd" d="M2.91667 2.5C2.47339 2.5 2.25 2.79339 2.25 3V10C2.25 10.2066 2.47339 10.5 2.91667 10.5H11.0833C11.5266 10.5 11.75 10.2066 11.75 10V3C11.75 2.79339 11.5266 2.5 11.0833 2.5H2.91667ZM1.25 3C1.25 2.10204 2.07128 1.5 2.91667 1.5H11.0833C11.9287 1.5 12.75 2.10204 12.75 3V10C12.75 10.898 11.9287 11.5 11.0833 11.5H2.91667C2.07128 11.5 1.25 10.898 1.25 10V3Z" fill="#F1F1F1"/>
<path fill-rule="evenodd" clip-rule="evenodd" d="M9.33337 0.5C9.60952 0.5 9.83337 0.723858 9.83337 1V3C9.83337 3.27614 9.60952 3.5 9.33337 3.5C9.05723 3.5 8.83337 3.27614 8.83337 3V1C8.83337 0.723858 9.05723 0.5 9.33337 0.5Z" fill="#F1F1F1"/>
<path fill-rule="evenodd" clip-rule="evenodd" d="M4.66663 0.5C4.94277 0.5 5.16663 0.723858 5.16663 1V3C5.16663 3.27614 4.94277 3.5 4.66663 3.5C4.39048 3.5 4.16663 3.27614 4.16663 3V1C4.16663 0.723858 4.39048 0.5 4.66663 0.5Z" fill="#F1F1F1"/>
<path fill-rule="evenodd" clip-rule="evenodd" d="M1.25 5C1.25 4.72386 1.47386 4.5 1.75 4.5H12.25C12.5261 4.5 12.75 4.72386 12.75 5C12.75 5.27614 12.5261 5.5 12.25 5.5H1.75C1.47386 5.5 1.25 5.27614 1.25 5Z" fill="#F1F1F1"/>
</svg>
