<svg width="27" height="22" viewBox="0 0 27 22" fill="none" xmlns="http://www.w3.org/2000/svg">
<path fill-rule="evenodd" clip-rule="evenodd" d="M15.1408 18.6179L14.854 21.2382C14.8427 21.3445 14.8555 21.4476 14.8874 21.5408C14.9102 21.6073 14.9428 21.6692 14.9833 21.7246C15.1201 21.9117 15.3474 22.0253 15.5964 21.9952L18.1655 21.703L23.9831 15.7778L20.9583 12.697L15.1408 18.6179ZM20.9579 14.6783L16.4514 19.265L16.3161 20.5005L17.5369 20.3617L22.0374 15.7778L20.9579 14.6783ZM24.958 14.7891L26.7041 13.0106C27.0964 12.6068 27.0964 11.9579 26.7041 11.554L25.1052 9.92556C24.7129 9.52596 24.0717 9.52596 23.6793 9.92556L21.9117 11.7259M22.8852 12.7161L24.9407 14.8067L24.958 14.7891M24.94 12.8257L25.4735 12.2823L24.3923 11.1811L23.858 11.7252L24.94 12.8257ZM13.7992 18.4676L13.8498 17.9906L17.4441 14.3298C17.4384 14.3232 17.4327 14.3166 17.427 14.3101C17.2852 14.1482 17.1347 13.9943 16.9763 13.8492C16.7989 13.6867 16.6115 13.5352 16.4152 13.3961C15.5107 12.7548 14.4163 12.3747 13.2297 12.3747H12.5252C11.5886 12.813 10.5466 13.0622 9.44979 13.0622C8.35294 13.0622 7.31515 12.813 6.37439 12.3747H5.66987C2.53963 12.3747 0 14.9614 0 18.1496V19.9371C0 21.0757 0.907011 21.9995 2.02496 21.9995H13.622C13.5214 21.7092 13.4791 21.4019 13.5117 21.0903L13.5122 21.0854L13.5124 21.0843L13.7992 18.4676ZM15.4209 14.4088C14.779 14.0087 14.0308 13.779 13.2297 13.779H12.8112C11.7775 14.2185 10.6412 14.4664 9.44979 14.4664C8.25676 14.4664 7.12403 14.2178 6.08927 13.779H5.66987C3.29233 13.779 1.37285 15.7425 1.37285 18.1496V19.9371C1.37285 20.2946 1.65971 20.5953 2.02496 20.5953H12.1845L12.4344 18.316L12.4349 18.3111L12.5374 17.3457L15.4209 14.4088ZM9.44979 9.59553C11.6797 9.59553 13.4768 7.75656 13.4768 5.49988C13.4768 3.2432 11.6797 1.40422 9.44979 1.40422C7.2199 1.40422 5.42276 3.2432 5.42276 5.49988C5.42276 7.75656 7.2199 9.59553 9.44979 9.59553ZM14.8497 5.49988C14.8497 8.5377 12.4324 10.9998 9.44979 10.9998C6.4672 10.9998 4.04991 8.5377 4.04991 5.49988C4.04991 2.46206 6.4672 0 9.44979 0C12.4324 0 14.8497 2.46206 14.8497 5.49988Z" fill="#717171"/>
</svg>
