<svg width="106" height="141" viewBox="0 0 106 141" fill="none" xmlns="http://www.w3.org/2000/svg">
<path d="M104.991 94.2258C104.288 91.1142 103.284 88.103 101.98 85.2925C99.5707 80.3742 96.2583 76.0581 92.143 72.6454C88.8307 69.835 85.0165 67.5264 81.0015 66.0208C82.1057 65.2178 83.2098 64.3144 84.3139 63.5114C91.8419 56.8868 96.5595 47.1505 96.5595 36.3102C96.5595 26.7747 92.8456 18.0422 86.7229 11.5179C86.1206 10.9156 85.5184 10.3134 84.8157 9.71115C80.9012 6.0977 76.284 3.38761 71.0646 1.68126C66.7485 0.276026 63.135 0.175654 60.0235 0.0752802C57.7149 -0.0250934 55.8078 -0.0250934 54.4025 0.0752802H0V9.71115C6.02242 9.71115 10.9407 14.6295 10.9407 20.6519V125.643C10.9407 126.747 10.74 127.851 10.4389 128.955C10.2381 129.457 10.0374 130.059 9.83662 130.561C8.0299 134.174 4.31607 136.583 0 136.684V141H67.0496C73.4735 141 79.4959 139.494 84.8157 136.784C88.0277 135.078 90.9385 133.07 93.5483 130.661C96.8606 127.55 99.6711 123.836 101.779 119.721C104.087 115.204 105.493 110.185 105.794 104.765C105.794 103.962 105.894 103.159 105.894 102.356C105.794 99.3448 105.593 96.7351 104.991 94.2258ZM31.7181 9.5104H54.6033C69.4586 9.5104 81.6038 21.5552 81.6038 36.4105C81.6038 51.2658 69.4586 63.3107 54.6033 63.3107H31.7181V9.5104ZM77.2877 119.42C71.9679 126.044 63.7373 130.36 54.6033 130.36H31.6177V72.5451H56.8115C65.9455 73.2477 73.7746 78.0656 78.5926 85.1921C80.3993 87.9022 81.8045 90.9134 82.6075 94.1254C83.2098 96.434 83.5109 98.843 83.5109 101.352C83.6113 108.278 81.3027 114.501 77.2877 119.42Z" fill="#FFA551"/>
</svg>
