<svg width="150" height="150" viewBox="0 0 150 150" fill="none" xmlns="http://www.w3.org/2000/svg">
<g clip-path="url(#clip0_204_806)">
<circle cx="75.0001" cy="75" r="54.5721" fill="#DCCFF5"/>
<path d="M124.512 131.066V118.685C124.512 112.117 121.903 105.818 117.259 101.174C112.615 96.5304 106.317 93.9214 99.7491 93.9214H50.2225C43.6548 93.9214 37.3562 96.5304 32.7121 101.174C28.0681 105.818 25.4591 112.117 25.4591 118.685V131.066" fill="#F1F1F1"/>
<path d="M74.6512 83.3802C85.7402 83.3802 94.7295 74.3909 94.7295 63.3019C94.7295 52.2129 85.7402 43.2235 74.6512 43.2235C63.5622 43.2235 54.5728 52.2129 54.5728 63.3019C54.5728 74.3909 63.5622 83.3802 74.6512 83.3802Z" fill="#F1F1F1"/>
</g>
<circle cx="75" cy="75" r="73.996" transform="rotate(0.5 75 75)" stroke="#B89EEE" stroke-width="2" stroke-linecap="round" stroke-dasharray="23 16"/>
<circle cx="75.0001" cy="75" r="62.8966" stroke="#2E2149" stroke-linecap="round" stroke-dasharray="11 11"/>
<circle cx="113.685" cy="113.684" r="15.5607" fill="#8357DB"/>
<path d="M117.93 107.668L119.701 109.439L117.93 107.668ZM119.069 106.107L114.278 110.899C114.03 111.146 113.861 111.461 113.793 111.804L113.35 114.019L115.565 113.576C115.908 113.507 116.223 113.339 116.47 113.091L121.262 108.3C121.406 108.156 121.52 107.985 121.598 107.797C121.676 107.609 121.716 107.407 121.716 107.204C121.716 107 121.676 106.798 121.598 106.61C121.52 106.422 121.406 106.251 121.262 106.107C121.118 105.963 120.947 105.849 120.759 105.771C120.571 105.693 120.369 105.653 120.165 105.653C119.962 105.653 119.76 105.693 119.572 105.771C119.384 105.849 119.213 105.963 119.069 106.107V106.107Z" stroke="white" stroke-width="1.5" stroke-linecap="round" stroke-linejoin="round"/>
<path d="M120.043 115.692V118.202C120.043 118.646 119.866 119.071 119.553 119.385C119.239 119.699 118.813 119.875 118.37 119.875H109.167C108.723 119.875 108.298 119.699 107.984 119.385C107.67 119.071 107.494 118.646 107.494 118.202V108.999C107.494 108.556 107.67 108.13 107.984 107.816C108.298 107.503 108.723 107.326 109.167 107.326H111.677" stroke="white" stroke-width="1.5" stroke-linecap="round" stroke-linejoin="round"/>
<defs>
<clipPath id="clip0_204_806">
<rect x="20.428" y="20.428" width="109.144" height="109.144" rx="54.359" fill="white"/>
</clipPath>
</defs>
</svg>
