<svg width="30" height="30" viewBox="0 0 30 30" fill="none" xmlns="http://www.w3.org/2000/svg">
<path d="M25 15V27.5H5V15" stroke="#DCCFF5" stroke-width="2" stroke-linecap="round" stroke-linejoin="round"/>
<path d="M27.5 8.75H2.5V15H27.5V8.75Z" stroke="#DCCFF5" stroke-width="2" stroke-linecap="round" stroke-linejoin="round"/>
<path d="M15 27.5V8.75" stroke="#DCCFF5" stroke-width="2" stroke-linecap="round" stroke-linejoin="round"/>
<path d="M15 8.75H9.375C8.5462 8.75 7.75134 8.42076 7.16529 7.83471C6.57924 7.24866 6.25 6.4538 6.25 5.625C6.25 4.7962 6.57924 4.00134 7.16529 3.41529C7.75134 2.82924 8.5462 2.5 9.375 2.5C13.75 2.5 15 8.75 15 8.75Z" stroke="#DCCFF5" stroke-width="2" stroke-linecap="round" stroke-linejoin="round"/>
<path d="M15 8.75H20.625C21.4538 8.75 22.2487 8.42076 22.8347 7.83471C23.4208 7.24866 23.75 6.4538 23.75 5.625C23.75 4.7962 23.4208 4.00134 22.8347 3.41529C22.2487 2.82924 21.4538 2.5 20.625 2.5C16.25 2.5 15 8.75 15 8.75Z" stroke="#DCCFF5" stroke-width="2" stroke-linecap="round" stroke-linejoin="round"/>
</svg>
