<svg width="262" height="30" viewBox="0 0 262 30" fill="none" xmlns="http://www.w3.org/2000/svg">
<path d="M28.75 3.74987C27.553 4.59422 26.2276 5.24001 24.825 5.66237C24.0722 4.79676 23.0717 4.18324 21.9588 3.90478C20.8459 3.62632 19.6744 3.69637 18.6026 4.10544C17.5308 4.51451 16.6106 5.24288 15.9662 6.19202C15.3219 7.14116 14.9846 8.26529 15 9.41237V10.6624C12.8033 10.7193 10.6266 10.2321 8.66376 9.24418C6.70093 8.25622 5.0129 6.79817 3.75 4.99987C3.75 4.99987 -1.25 16.2499 10 21.2499C7.42566 22.9973 4.35895 23.8735 1.25 23.7499C12.5 29.9999 26.25 23.7499 26.25 9.37487C26.2488 9.02669 26.2154 8.67937 26.15 8.33737C27.4258 7.07924 28.326 5.49077 28.75 3.74987V3.74987Z" stroke="#DCCFF5" stroke-width="2" stroke-linecap="round" stroke-linejoin="round"/>
<path d="M70.5 16.25C71.0368 16.9676 71.7217 17.5614 72.5082 17.9911C73.2947 18.4208 74.1644 18.6764 75.0583 18.7404C75.9522 18.8044 76.8495 18.6754 77.6892 18.3622C78.5289 18.049 79.2914 17.5588 79.925 16.925L83.675 13.175C84.8135 11.9962 85.4435 10.4174 85.4292 8.7787C85.415 7.13997 84.7577 5.57239 83.5989 4.41359C82.4401 3.25479 80.8725 2.59748 79.2338 2.58324C77.595 2.569 76.0163 3.19897 74.8375 4.33746L72.6875 6.47496" stroke="#DCCFF5" stroke-width="2" stroke-linecap="round" stroke-linejoin="round"/>
<path d="M75.5 13.75C74.9632 13.0324 74.2783 12.4386 73.4918 12.0089C72.7053 11.5792 71.8356 11.3236 70.9417 11.2596C70.0478 11.1956 69.1505 11.3246 68.3108 11.6378C67.4711 11.951 66.7086 12.4412 66.075 13.075L62.325 16.825C61.1865 18.0038 60.5566 19.5826 60.5708 21.2213C60.585 22.86 61.2423 24.4276 62.4011 25.5864C63.5599 26.7452 65.1275 27.4025 66.7662 27.4168C68.405 27.431 69.9837 26.801 71.1625 25.6625L73.3 23.525" stroke="#DCCFF5" stroke-width="2" stroke-linecap="round" stroke-linejoin="round"/>
<path d="M138.5 2.5H134.75C133.092 2.5 131.503 3.15848 130.331 4.33058C129.158 5.50269 128.5 7.0924 128.5 8.75V12.5H124.75V17.5H128.5V27.5H133.5V17.5H137.25L138.5 12.5H133.5V8.75C133.5 8.41848 133.632 8.10054 133.866 7.86612C134.101 7.6317 134.418 7.5 134.75 7.5H138.5V2.5Z" stroke="#DCCFF5" stroke-width="2" stroke-linecap="round" stroke-linejoin="round"/>
<path d="M194 10C195.989 10 197.897 10.7902 199.303 12.1967C200.71 13.6032 201.5 15.5109 201.5 17.5V26.25H196.5V17.5C196.5 16.837 196.237 16.2011 195.768 15.7322C195.299 15.2634 194.663 15 194 15C193.337 15 192.701 15.2634 192.232 15.7322C191.763 16.2011 191.5 16.837 191.5 17.5V26.25H186.5V17.5C186.5 15.5109 187.29 13.6032 188.697 12.1967C190.103 10.7902 192.011 10 194 10V10Z" stroke="#DCCFF5" stroke-width="2" stroke-linecap="round" stroke-linejoin="round"/>
<path d="M181.5 11.25H176.5V26.25H181.5V11.25Z" stroke="#DCCFF5" stroke-width="2" stroke-linecap="round" stroke-linejoin="round"/>
<path d="M179 7.5C180.381 7.5 181.5 6.38071 181.5 5C181.5 3.61929 180.381 2.5 179 2.5C177.619 2.5 176.5 3.61929 176.5 5C176.5 6.38071 177.619 7.5 179 7.5Z" stroke="#DCCFF5" stroke-width="2" stroke-linecap="round" stroke-linejoin="round"/>
<path d="M253.25 2.5H240.75C237.298 2.5 234.5 5.29822 234.5 8.75V21.25C234.5 24.7018 237.298 27.5 240.75 27.5H253.25C256.702 27.5 259.5 24.7018 259.5 21.25V8.75C259.5 5.29822 256.702 2.5 253.25 2.5Z" stroke="#DCCFF5" stroke-width="2" stroke-linecap="round" stroke-linejoin="round"/>
<path d="M252 14.2124C252.154 15.2527 251.976 16.3152 251.492 17.2487C251.008 18.1822 250.241 18.9392 249.302 19.412C248.363 19.8848 247.298 20.0494 246.26 19.8823C245.221 19.7152 244.262 19.225 243.518 18.4813C242.775 17.7377 242.285 16.7785 242.117 15.7402C241.95 14.7018 242.115 13.6373 242.588 12.6979C243.061 11.7585 243.818 10.9921 244.751 10.5077C245.685 10.0233 246.747 9.84562 247.787 9.99989C248.849 10.1572 249.831 10.6517 250.589 11.4103C251.348 12.1688 251.843 13.1512 252 14.2124Z" stroke="#DCCFF5" stroke-width="2" stroke-linecap="round" stroke-linejoin="round"/>
<path d="M253.875 8.125H253.885" stroke="#DCCFF5" stroke-width="2" stroke-linecap="round" stroke-linejoin="round"/>
</svg>
