<svg width="43" height="24" viewBox="0 0 43 24" fill="none" xmlns="http://www.w3.org/2000/svg">
<path d="M15.8727 22.2607C14.8363 22.2493 14.1132 20.6463 14.1132 20.6463L8.60576 8.23483H8.26833L7.82243 9.19661L6.53295 12.0361L6.41244 12.2995L6.12321 12.9407L4.5445 16.387C4.5445 16.387 2.74886 20.3028 2.25476 21.2875C1.77271 22.2722 0.531433 22.2607 0.531433 22.2607V22.6271H5.23142V22.2607C5.23142 22.2607 4.33962 22.3409 3.82142 21.9172C3.30322 21.4936 3.6045 20.9898 3.6045 20.9898L4.91808 17.9556L10.6665 17.9442C10.6665 17.9442 10.6665 18.0129 11.6668 20.2914C12.667 22.5699 10.4978 22.2722 10.4978 22.2722V22.6615H16.3547V22.2607H15.8727ZM5.23142 17.2114L7.82243 11.4408L10.3652 17.2114H5.23142Z" fill="#8357DB"/>
<path d="M28.8157 17.9099C28.6108 17.4977 28.0926 16.5817 26.996 15.9062C26.2126 15.4253 25.4534 15.2535 25.0075 15.1848C25.7547 14.7039 26.5019 14.2345 27.249 13.7536C27.3695 13.6277 28.4059 12.4712 28.0565 11.0171C27.7793 9.88361 26.8272 9.28822 26.5139 9.09358C25.839 8.66994 25.1883 8.55544 24.8147 8.50964C22.6334 8.48674 20.4401 8.45239 18.2588 8.42949H18.2468C17.8973 8.42949 17.5598 8.41805 17.2103 8.41805L16.8488 8.96763L17.3188 9.25388C18.6324 9.37982 18.7168 10.1126 18.7168 10.1126C18.7168 10.1126 18.8011 19.2953 18.7891 20.5319C18.777 21.7684 17.9937 21.8829 17.9937 21.8829L16.8488 22.0547C16.6078 22.8447 17.2103 22.8103 17.2103 22.8103H24.5978C26.8272 22.6615 28.2131 20.9898 28.2131 20.9898C28.418 20.7379 28.7795 20.1998 28.9121 19.4441C29.0326 18.7571 28.9 18.2076 28.8157 17.9099ZM21.0547 9.29967C21.9344 9.29967 22.8142 9.28822 23.6939 9.28822C23.9108 9.35692 24.8508 9.65462 25.3931 10.5706C25.4654 10.6965 25.8149 11.3034 25.7306 12.1278C25.6342 13.204 24.887 13.8681 24.658 14.0742C24.2121 14.452 23.7542 14.6467 23.477 14.7497C22.6696 14.7726 21.8621 14.7955 21.0667 14.8184V9.29967H21.0547ZM25.7306 20.7837C25.6101 20.944 25.116 21.5509 24.2362 21.86C24.1398 21.8944 22.5129 22.4325 21.5488 21.5967C21.3439 21.4135 21.2234 21.2188 21.1511 21.0814C21.1511 19.2724 21.1391 17.4519 21.1391 15.6428C22.2237 15.7115 23.3083 15.7802 24.3929 15.8375C24.7062 15.952 25.2485 16.2039 25.6944 16.7191C26.6706 17.8297 26.6224 19.6273 25.7306 20.7837Z" fill="#FFA551"/>
<path d="M43 19.3869C42.7951 19.7762 42.4697 20.2914 41.9756 20.841C41.831 21.0013 41.0356 21.8715 39.951 22.421C38.1675 23.337 35.8175 23.3256 33.8893 22.4897C31.8044 21.5852 30.8403 19.9594 30.5511 19.4785C28.5747 16.0665 30.3703 12.5628 30.4788 12.3453C30.6113 12.1048 30.9006 11.5782 31.4067 10.9713C31.949 10.3301 32.7564 9.60881 33.8772 9.07067C34.3954 8.81878 35.9259 8.12034 37.9626 8.34934C39.228 8.49819 40.168 8.95617 40.6982 9.26532C40.6982 9.26532 41.7949 9.56301 41.9515 8.42949H42.3613L42.6144 13.0437L42.289 13.0666C42.1926 12.6659 42.0239 12.1277 41.6864 11.5438C41.2044 10.7194 40.6018 10.1927 40.1921 9.8836C39.8667 9.68896 38.5049 8.88748 36.661 9.16227C34.9498 9.41416 33.9495 10.4332 33.6723 10.7194C33.5759 10.8683 33.4193 11.0973 33.2626 11.3835C33.0939 11.6812 32.9131 12.059 32.7444 12.4941C32.3829 13.433 32.0936 14.6581 32.19 16.1008C32.2744 17.3374 32.3708 19.5472 34.1785 20.9555C35.6246 22.0776 37.4082 22.1234 37.6734 22.1234C38.5892 22.1348 39.2882 21.9173 39.5051 21.8486C41.3972 21.2188 42.3613 19.7075 42.6505 19.1922L43 19.3869Z" fill="#8357DB"/>
<path d="M41.0477 13.4788C40.9031 13.7765 40.5777 13.891 40.4572 13.9254C40.1077 14.017 39.7582 14.0971 39.4087 14.1887C39.2159 14.2116 38.9508 14.2574 38.6495 14.3719C38.4085 14.4635 38.2157 14.578 38.0831 14.681C37.6493 15.0016 37.0105 15.5741 36.5405 16.4443C36.3357 16.8221 36.2031 17.1771 36.1187 17.4862C36.1187 17.4862 35.95 19.5357 35.9139 19.6846C35.8657 19.8334 35.6728 19.6846 35.6728 19.6846L35.239 18.0244L34.1303 18.8487C34.058 18.8258 33.9616 18.7686 33.9375 18.6884C33.9254 18.6312 33.9495 18.5739 33.9616 18.551C34.0339 18.4136 34.3231 17.7152 34.7087 16.7305C34.7087 16.7305 34.7811 15.8833 34.7931 15.597C34.8052 15.1276 34.7087 14.4406 34.1544 13.5246C33.6844 13.1697 33.2023 12.8147 32.7323 12.4598L33.2505 11.3492C33.3349 11.3492 33.4434 11.3606 33.5759 11.4179C33.6964 11.4637 33.7929 11.5209 33.8531 11.5667C34.3954 12.0705 34.9257 12.5743 35.468 13.0666C35.5403 12.1163 36.2272 11.8186 36.2272 11.8186C36.2272 11.8186 36.8057 11.6011 37.4926 12.1392C38.1916 12.6773 37.3841 13.9826 37.3841 13.9826L38.7339 13.2956C39.6016 12.9636 40.2041 12.9407 40.2041 12.9407C40.6862 12.9292 41.0356 13.0437 41.0718 13.2384C41.12 13.33 41.0839 13.4101 41.0477 13.4788Z" fill="#8FE3DD"/>
<path d="M31.467 6.0365C30.6595 7.65091 30.78 8.56689 31.0572 9.09358C31.238 9.43707 31.8406 10.3645 31.8406 10.3645L31.4188 10.9599L30.2859 9.86071V11.6125C30.2859 11.6125 29.7075 11.9331 29.6352 11.3606C29.5629 10.7996 29.587 10.1241 29.4303 9.65461C29.2736 9.18518 28.8277 7.83411 27.7311 7.17002C26.6344 6.50594 24.4411 5.93345 24.4411 5.93345C23.7783 5.86476 23.0552 5.80751 22.2839 5.78461C21.7175 5.77316 21.1873 5.77316 20.6691 5.79606L18.8734 7.11278L18.2588 8.28065V8.41804H18.2468L17.3309 8.40659L17.8611 6.97538L16.198 7.46772V7.05553L18.1142 5.67011C18.1142 5.67011 19.1988 4.51369 19.247 3.63206C19.2952 2.75043 19.1988 1.14747 19.1988 1.14747C19.1988 1.14747 19.7291 0.151344 20.0665 0.73528C20.4039 1.31922 20.2834 3.19697 20.2834 3.19697L20.5606 3.26567C20.5606 3.26567 21.4283 2.54434 21.5247 2.54434C21.6091 2.54434 23.3083 2.18939 22.8744 3.71221L21.9344 4.71978C21.9344 4.71978 21.8019 4.90298 22.4285 4.92588L24.6942 5.20067L27.9842 6.25405L28.0324 4.58239C28.0324 4.58239 28.4301 3.78091 29.5508 4.50224L30.2739 5.97925L32.2262 3.32292C32.2262 3.32292 32.7685 3.20842 32.7564 3.62061L32.3467 4.54804C32.0575 5.06328 31.7682 5.55561 31.467 6.0365Z" fill="#8357DB"/>
<path d="M16.1619 7.08987V7.45626L15.2942 7.46771L14.2457 7.18147L14.547 8.09744C14.5109 8.28064 14.4627 8.46384 14.4265 8.64703C14.2819 8.57833 14.1373 8.49819 13.9927 8.42949C13.8239 8.09745 13.6432 7.7654 13.4745 7.43336C13.4745 7.43336 12.2211 6.0136 11.1365 5.65865C10.0519 5.30371 7.71396 5.6472 7.71396 5.6472L7.21986 5.13197L7.66576 4.78848C8.06345 4.66253 10.076 4.41063 10.076 4.41063C10.076 4.41063 10.076 4.41063 9.61806 3.36871C9.49755 3.10537 9.56986 2.97942 9.58191 2.92217C9.65421 2.56723 9.99165 2.24664 10.4134 2.18939C10.787 2.13214 11.0763 2.30389 11.1606 2.34969C11.1606 2.34969 11.7511 2.95652 11.9198 2.97942C12.0886 3.00232 12.3416 0.838322 12.3416 0.838322C12.655 -0.0891056 12.8598 0.00249219 12.8598 0.00249219C12.8598 0.00249219 13.125 -0.0433067 13.3178 0.449031C13.5106 0.941369 13.2455 2.50998 13.2455 2.50998C13.1129 3.25421 13.2816 4.79993 13.2816 4.79993C13.5709 5.75025 16.1619 7.08987 16.1619 7.08987Z" fill="#DAFF7C"/>
<path d="M7.73807 5.81896C7.73807 5.81896 7.73807 5.86476 6.83423 6.68914C6.37628 7.10133 6.11115 7.63947 5.96654 8.07456C5.82192 8.50965 5.78577 8.85314 5.78577 8.85314C5.78577 8.85314 5.73757 9.45997 5.73757 9.94086C5.73757 10.4446 5.73757 11.0057 6.00269 11.624C6.13526 11.9331 6.29192 12.1621 6.41244 12.311L6.12321 12.9521C5.95449 13.0437 4.93013 11.8415 4.93013 11.8415L4.74936 12.6315C4.74936 12.6315 4.74936 12.6315 4.43603 13.1697C4.1227 13.7078 3.73706 13.0094 3.73706 13.0094C3.94193 12.517 3.77321 10.5591 3.77321 10.5591C3.68886 9.49432 2.51989 8.32645 2.51989 8.32645L1.00143 7.52497L0.0975866 6.87234C-0.276002 6.20825 0.543482 6.20825 0.543482 6.20825L2.97783 7.36467C2.97783 7.36467 2.96578 6.84944 3.05014 6.25405C3.1345 5.65866 3.49604 5.56707 3.49604 5.56707C3.59245 5.50982 3.86962 5.36097 4.20706 5.41822C4.65295 5.48692 5.05065 5.89911 5.07475 6.27695C5.07475 6.3571 5.07475 6.80364 5.0627 7.08988C5.0627 7.11278 5.0627 7.14713 5.0868 7.18148C5.19526 7.29597 5.605 7.08988 5.605 7.08988L7.07525 5.26937L7.21987 5.15488L7.71397 5.67011L7.73807 5.81896Z" fill="#FFA551"/>
</svg>
