<svg width="15" height="13" viewBox="0 0 15 13" fill="none" xmlns="http://www.w3.org/2000/svg">
<path d="M13.1701 1.58098C12.8353 1.24602 12.4377 0.980299 12.0002 0.799009C11.5627 0.61772 11.0937 0.524409 10.6201 0.524409C10.1465 0.524409 9.67758 0.61772 9.24005 0.799009C8.80252 0.980299 8.405 1.24602 8.0702 1.58098L7.37535 2.27582L6.68051 1.58098C6.00422 0.904694 5.08698 0.52476 4.13057 0.52476C3.17416 0.52476 2.25692 0.904694 1.58063 1.58098C0.904343 2.25727 0.524409 3.17451 0.524409 4.13092C0.524409 5.08733 0.904343 6.00457 1.58063 6.68086L2.27547 7.3757L7.37535 12.4756L12.4752 7.3757L13.1701 6.68086C13.505 6.34605 13.7708 5.94853 13.952 5.511C14.1333 5.07348 14.2266 4.60452 14.2266 4.13092C14.2266 3.65732 14.1333 3.18836 13.952 2.75084C13.7708 2.31331 13.505 1.91579 13.1701 1.58098V1.58098Z" stroke="#717171" stroke-linecap="round" stroke-linejoin="round"/>
</svg>
