<svg width="386" height="30" viewBox="0 0 386 30" fill="none" xmlns="http://www.w3.org/2000/svg">
<path d="M28.75 3.75C27.553 4.59434 26.2276 5.24013 24.825 5.6625C24.0722 4.79688 23.0717 4.18336 21.9588 3.9049C20.8459 3.62645 19.6744 3.69649 18.6026 4.10556C17.5308 4.51464 16.6106 5.243 15.9662 6.19214C15.3219 7.14129 14.9846 8.26542 15 9.4125V10.6625C12.8033 10.7195 10.6266 10.2323 8.66376 9.2443C6.70093 8.25635 5.0129 6.79829 3.75 5C3.75 5 -1.25 16.25 10 21.25C7.42566 22.9975 4.35895 23.8737 1.25 23.75C12.5 30 26.25 23.75 26.25 9.375C26.2488 9.02681 26.2154 8.67949 26.15 8.3375C27.4258 7.07936 28.326 5.49089 28.75 3.75V3.75Z" stroke="#717171" stroke-width="2" stroke-linecap="round" stroke-linejoin="round"/>
<path d="M101.5 16.25C102.037 16.9677 102.722 17.5615 103.508 17.9912C104.295 18.4209 105.164 18.6764 106.058 18.7404C106.952 18.8045 107.849 18.6755 108.689 18.3622C109.529 18.049 110.291 17.5589 110.925 16.925L114.675 13.175C115.813 11.9963 116.443 10.4175 116.429 8.77876C116.415 7.14003 115.758 5.57245 114.599 4.41365C113.44 3.25485 111.872 2.59755 110.234 2.58331C108.595 2.56906 107.016 3.19903 105.837 4.33752L103.687 6.47502" stroke="#717171" stroke-width="2" stroke-linecap="round" stroke-linejoin="round"/>
<path d="M106.5 13.75C105.963 13.0323 105.278 12.4385 104.492 12.0088C103.705 11.5791 102.836 11.3236 101.942 11.2596C101.048 11.1955 100.151 11.3245 99.3108 11.6377C98.4711 11.951 97.7086 12.4411 97.075 13.075L93.325 16.825C92.1865 18.0037 91.5566 19.5825 91.5708 21.2212C91.585 22.86 92.2423 24.4275 93.4011 25.5863C94.5599 26.7451 96.1275 27.4025 97.7662 27.4167C99.405 27.4309 100.984 26.801 102.163 25.6625L104.3 23.525" stroke="#717171" stroke-width="2" stroke-linecap="round" stroke-linejoin="round"/>
<path d="M200.5 2.5H196.75C195.092 2.5 193.503 3.15848 192.331 4.33058C191.158 5.50269 190.5 7.0924 190.5 8.75V12.5H186.75V17.5H190.5V27.5H195.5V17.5H199.25L200.5 12.5H195.5V8.75C195.5 8.41848 195.632 8.10054 195.866 7.86612C196.101 7.6317 196.418 7.5 196.75 7.5H200.5V2.5Z" stroke="#717171" stroke-width="2" stroke-linecap="round" stroke-linejoin="round"/>
<path d="M287 10C288.989 10 290.897 10.7902 292.303 12.1967C293.71 13.6032 294.5 15.5109 294.5 17.5V26.25H289.5V17.5C289.5 16.837 289.237 16.2011 288.768 15.7322C288.299 15.2634 287.663 15 287 15C286.337 15 285.701 15.2634 285.232 15.7322C284.763 16.2011 284.5 16.837 284.5 17.5V26.25H279.5V17.5C279.5 15.5109 280.29 13.6032 281.697 12.1967C283.103 10.7902 285.011 10 287 10V10Z" stroke="#717171" stroke-width="2" stroke-linecap="round" stroke-linejoin="round"/>
<path d="M274.5 11.25H269.5V26.25H274.5V11.25Z" stroke="#717171" stroke-width="2" stroke-linecap="round" stroke-linejoin="round"/>
<path d="M272 7.5C273.381 7.5 274.5 6.38071 274.5 5C274.5 3.61929 273.381 2.5 272 2.5C270.619 2.5 269.5 3.61929 269.5 5C269.5 6.38071 270.619 7.5 272 7.5Z" stroke="#717171" stroke-width="2" stroke-linecap="round" stroke-linejoin="round"/>
<path d="M377.25 2.5H364.75C361.298 2.5 358.5 5.29822 358.5 8.75V21.25C358.5 24.7018 361.298 27.5 364.75 27.5H377.25C380.702 27.5 383.5 24.7018 383.5 21.25V8.75C383.5 5.29822 380.702 2.5 377.25 2.5Z" stroke="#717171" stroke-width="2" stroke-linecap="round" stroke-linejoin="round"/>
<path d="M376 14.2125C376.154 15.2528 375.977 16.3153 375.492 17.2488C375.008 18.1823 374.241 18.9393 373.302 19.4121C372.363 19.8849 371.298 20.0495 370.26 19.8824C369.221 19.7153 368.262 19.2251 367.519 18.4815C366.775 17.7378 366.285 16.7786 366.118 15.7403C365.951 14.702 366.115 13.6374 366.588 12.698C367.061 11.7586 367.818 10.9922 368.751 10.5078C369.685 10.0234 370.747 9.84575 371.787 10C372.849 10.1574 373.831 10.6518 374.59 11.4104C375.348 12.1689 375.843 13.1514 376 14.2125Z" stroke="#717171" stroke-width="2" stroke-linecap="round" stroke-linejoin="round"/>
<path d="M377.875 8.125H377.885" stroke="#717171" stroke-width="2" stroke-linecap="round" stroke-linejoin="round"/>
</svg>
