<svg width="15" height="13" viewBox="0 0 15 13" fill="none" xmlns="http://www.w3.org/2000/svg">
<path d="M13.1702 1.581C12.8354 1.24603 12.4379 0.980309 12.0003 0.799017C11.5628 0.617726 11.0938 0.524415 10.6202 0.524415C10.1466 0.524415 9.67767 0.617726 9.24014 0.799017C8.80261 0.980309 8.40508 1.24603 8.07027 1.581L7.37543 2.27584L6.68058 1.581C6.00428 0.904703 5.08703 0.524765 4.13061 0.524765C3.17419 0.524765 2.25694 0.904703 1.58064 1.581C0.904352 2.25729 0.524415 3.17454 0.524415 4.13096C0.524414 5.08738 0.904352 6.00463 1.58064 6.68093L2.27549 7.37577L7.37543 12.4757L12.4754 7.37577L13.1702 6.68093C13.5052 6.34612 13.7709 5.94859 13.9522 5.51106C14.1335 5.07353 14.2268 4.60456 14.2268 4.13096C14.2268 3.65736 14.1335 3.18839 13.9522 2.75086C13.7709 2.31333 13.5052 1.91581 13.1702 1.581V1.581Z" stroke="white" stroke-linecap="round" stroke-linejoin="round"/>
</svg>
