<svg width="150" height="150" viewBox="0 0 150 150" fill="none" xmlns="http://www.w3.org/2000/svg">
<g clip-path="url(#clip0_142_484)">
<circle cx="75" cy="75" r="54.5721" fill="#C4C4C4"/>
<path d="M124.512 131.066V118.685C124.512 112.117 121.903 105.818 117.259 101.174C112.615 96.5304 106.317 93.9214 99.7491 93.9214H50.2224C43.6547 93.9214 37.3561 96.5304 32.712 101.174C28.068 105.818 25.459 112.117 25.459 118.685V131.066" fill="#F1F1F1"/>
<path d="M74.6511 83.3802C85.7401 83.3802 94.7295 74.3908 94.7295 63.3018C94.7295 52.2128 85.7401 43.2234 74.6511 43.2234C63.5621 43.2234 54.5727 52.2128 54.5727 63.3018C54.5727 74.3908 63.5621 83.3802 74.6511 83.3802Z" fill="#F1F1F1"/>
</g>
<circle cx="75" cy="75" r="73.996" transform="rotate(0.5 75 75)" stroke="#C4C4C4" stroke-width="2" stroke-linecap="round" stroke-dasharray="23 16"/>
<circle cx="75" cy="75" r="62.8966" stroke="#515151" stroke-linecap="round" stroke-dasharray="11 11"/>
<circle cx="113.684" cy="113.685" r="15.5608" fill="#515151"/>
<path d="M117.929 107.668L119.701 109.439L117.929 107.668ZM119.069 106.108L114.278 110.899C114.03 111.146 113.861 111.461 113.792 111.804L113.35 114.019L115.565 113.576C115.908 113.507 116.223 113.339 116.47 113.092L121.261 108.3C121.405 108.156 121.52 107.985 121.598 107.797C121.676 107.609 121.716 107.408 121.716 107.204C121.716 107 121.676 106.799 121.598 106.611C121.52 106.422 121.405 106.252 121.261 106.108C121.118 105.964 120.947 105.849 120.758 105.771C120.57 105.694 120.369 105.653 120.165 105.653C119.962 105.653 119.76 105.694 119.572 105.771C119.384 105.849 119.213 105.964 119.069 106.108V106.108Z" stroke="white" stroke-linecap="round" stroke-linejoin="round"/>
<path d="M120.043 115.692V118.202C120.043 118.646 119.866 119.072 119.553 119.385C119.239 119.699 118.813 119.875 118.369 119.875H109.167C108.723 119.875 108.297 119.699 107.984 119.385C107.67 119.072 107.494 118.646 107.494 118.202V109C107.494 108.556 107.67 108.13 107.984 107.817C108.297 107.503 108.723 107.326 109.167 107.326H111.677" stroke="white" stroke-linecap="round" stroke-linejoin="round"/>
<defs>
<clipPath id="clip0_142_484">
<rect x="20.428" y="20.4279" width="109.144" height="109.144" rx="54.359" fill="white"/>
</clipPath>
</defs>
</svg>
