<svg width="74" height="74" viewBox="0 0 74 74" fill="none" xmlns="http://www.w3.org/2000/svg">
<circle cx="37" cy="37" r="37" fill="#F9F9F9"/>
<circle cx="37" cy="37" r="28.3667" fill="#8357DB" fill-opacity="0.85"/>
<path d="M41.7253 51.3032C40.3488 51.3032 38.9664 51.3032 37.5899 51.3032C35.1414 51.3032 32.6929 51.3032 30.2444 51.3032C29.4127 51.3032 28.5809 51.3032 27.7491 51.3032C27.0286 51.3032 26.3023 51.2975 25.8805 50.5889C25.5642 50.0689 25.6814 49.3032 25.6814 48.7203C25.6814 47.646 25.6814 46.5717 25.6814 45.4973C25.6814 44.303 25.6814 43.1144 25.6814 41.9201C25.6814 41.2 25.7224 40.4743 25.6814 39.7543C25.6814 39.72 25.6814 39.6857 25.6814 39.6514C25.5818 39.7486 25.4881 39.84 25.3885 39.9371C27.4269 39.9371 29.4654 39.9371 31.5038 39.9371C34.7548 39.9371 38.0058 39.9371 41.2567 39.9371C42.0065 39.9371 42.7504 39.9371 43.5002 39.9371C43.4006 39.84 43.3069 39.7486 43.2073 39.6514C43.2073 41.0115 43.2073 42.3772 43.2073 43.7373C43.2073 45.6116 43.2073 47.486 43.2073 49.3603C43.2073 49.526 43.2132 49.6918 43.2073 49.8575C43.1897 50.6575 42.5454 51.2804 41.7253 51.3032C41.3504 51.309 41.3504 51.8804 41.7253 51.8747C42.9613 51.8461 43.7872 50.8804 43.7872 49.7146C43.7872 49.046 43.7872 48.3774 43.7872 47.7088C43.7872 45.5716 43.7872 43.4344 43.7872 41.2972C43.7872 40.7486 43.7872 40.2 43.7872 39.6457C43.7872 39.4914 43.6525 39.36 43.4943 39.36C41.4559 39.36 39.4174 39.36 37.379 39.36C34.128 39.36 30.8771 39.36 27.6261 39.36C26.8763 39.36 26.1324 39.36 25.3826 39.36C25.2245 39.36 25.0897 39.4914 25.0897 39.6457C25.0897 41.3372 25.0897 43.0287 25.0897 44.7259C25.0897 46.4345 25.0546 48.1488 25.0897 49.8575C25.1073 50.6746 25.5994 51.4175 26.3843 51.7261C26.683 51.8461 26.9935 51.8747 27.3098 51.8747C27.9658 51.8747 28.6219 51.8747 29.2779 51.8747C31.7088 51.8747 34.1397 51.8747 36.5706 51.8747C38.2576 51.8747 39.9505 51.9147 41.6375 51.8747C41.6668 51.8747 41.6902 51.8747 41.7195 51.8747C42.1061 51.8747 42.1061 51.3032 41.7253 51.3032Z" fill="#F1F1F1"/>
<path d="M36.6028 39.8483H35.7674V51.2414H36.6028V39.8483Z" fill="#F1F1F1"/>
<path fill-rule="evenodd" clip-rule="evenodd" d="M35.7674 39.8483H36.6028V51.2414H35.7674V39.8483ZM35.825 39.9053V51.1844H36.5452V39.9053H35.825Z" fill="#F1F1F1"/>
<path d="M31.7574 39.8483H31.0891V51.2414H31.7574V39.8483Z" fill="#F1F1F1"/>
<path fill-rule="evenodd" clip-rule="evenodd" d="M30.922 39.8483H31.9245V51.2414H30.922V39.8483ZM30.9912 39.9053V51.1844H31.8554V39.9053H30.9912Z" fill="#F1F1F1"/>
<path d="M34.1836 26.8851C34.172 27.2411 34.0558 27.6029 33.9802 27.9474C33.9105 28.2575 33.8407 28.5618 33.771 28.8719C33.8175 28.8145 33.8582 28.7571 33.9047 28.6997C32.8353 29.3715 31.7659 30.0433 30.7023 30.7152C30.3769 30.9219 30.0572 31.1229 29.7317 31.3296C29.8712 31.4387 30.0165 31.5478 30.156 31.6512C30.371 30.6922 30.5919 29.739 30.8069 28.78C30.9406 28.1943 31.0743 27.6144 31.208 27.0287C31.3126 26.5635 31.3997 26.1099 31.7891 25.7826C32.7249 25.0016 34.1546 25.6965 34.1836 26.8851C34.1895 27.2526 34.7706 27.2526 34.7648 26.8851C34.7416 25.7711 33.8175 24.8409 32.6725 24.8753C31.731 24.904 30.9522 25.5701 30.7372 26.4717C30.4524 27.6833 30.1851 28.8949 29.9119 30.1065C29.8073 30.5716 29.6969 31.0367 29.5922 31.5076C29.5399 31.7373 29.7957 31.9727 30.0165 31.8292C30.7895 31.3411 31.5567 30.8587 32.3296 30.3706C32.7423 30.1065 33.1607 29.8481 33.5734 29.584C33.771 29.4634 33.9744 29.3485 34.1662 29.2107C34.3231 29.0959 34.3347 28.9753 34.3754 28.7973C34.5149 28.1771 34.7416 27.5168 34.759 26.8794C34.7765 26.5176 34.1953 26.5176 34.1836 26.8851Z" fill="#F1F1F1"/>
<path d="M29.5036 31.3186C29.4857 31.4151 29.4679 31.506 29.45 31.6025C29.4976 31.5457 29.5393 31.4889 29.587 31.4322C28.2825 32.2214 26.9841 33.0163 25.6796 33.8055C25.7571 33.7941 25.8345 33.7885 25.9119 33.7771C25.2508 33.6636 24.5598 33.6068 24.1846 32.9879C23.6843 32.1589 24.2561 31.0801 25.2508 30.9723C25.6498 30.9268 26.1025 31.0574 26.4897 31.1256C27.133 31.2334 27.7703 31.3413 28.4136 31.4492C28.8484 31.523 29.2773 31.5968 29.7121 31.6706C30.0873 31.7331 30.2481 31.188 29.8729 31.1256C28.9437 30.9666 28.0205 30.8133 27.0913 30.6543C26.6743 30.5862 26.2574 30.5124 25.8405 30.4442C25.1078 30.3193 24.3692 30.518 23.8808 31.0688C23.3031 31.7217 23.2375 32.6926 23.7498 33.3967C24.1905 34.0099 24.8398 34.1689 25.5545 34.2881C25.7511 34.3222 25.8941 34.3392 26.0668 34.237C26.2931 34.1064 26.5076 33.9702 26.7279 33.8339C27.0734 33.6238 27.4189 33.4137 27.7643 33.2036C28.1753 32.9538 28.5863 32.704 28.9973 32.4542C29.2534 32.3009 29.5096 32.1419 29.7657 31.9886C29.992 31.8523 30.0278 31.7104 30.0695 31.4662C30.1469 31.1085 29.5691 30.9552 29.5036 31.3186Z" fill="#F1F1F1"/>
<path d="M36.6596 35.0465C36.6474 35.2191 36.3785 35.2251 36.3785 35.0465C36.3785 34.868 36.6474 34.868 36.6596 35.0465C36.6779 35.4275 37.289 35.4275 37.2707 35.0465C37.2462 34.6478 36.9468 34.3145 36.519 34.3145C36.1096 34.3145 35.7735 34.6478 35.7674 35.0465C35.7613 35.4334 36.0974 35.7608 36.4946 35.7786C36.9285 35.7965 37.2462 35.4513 37.2707 35.0465C37.289 34.6597 36.6779 34.6656 36.6596 35.0465Z" fill="#F1F1F1"/>
<path d="M51.5298 36.1045C51.5176 36.258 51.2487 36.2633 51.2487 36.1045C51.2487 35.9458 51.5176 35.9511 51.5298 36.1045C51.5482 36.4431 52.1592 36.4431 52.1409 36.1045C52.1165 35.7501 51.817 35.4538 51.3893 35.4538C50.9799 35.4538 50.6438 35.7501 50.6377 36.1045C50.6315 36.4484 50.9676 36.7394 51.3648 36.7553C51.7987 36.7712 52.1165 36.4643 52.1409 36.1045C52.1592 35.7659 51.5482 35.7659 51.5298 36.1045Z" fill="#F1F1F1"/>
<path d="M47.3118 34.6551C47.2589 34.8757 47.2001 35.102 47.1472 35.3226C47.1002 35.5149 46.9533 35.8316 47.0121 36.0352C47.065 36.2275 47.3412 36.4255 47.4705 36.5669C47.6351 36.7422 47.8055 36.9176 47.9701 37.0986C48.0406 36.9402 48.1111 36.7762 48.1758 36.6178C47.9407 36.6348 47.6997 36.6574 47.4646 36.6744C47.2589 36.6913 46.9063 36.6574 46.7182 36.7592C46.536 36.861 46.4243 37.1721 46.3303 37.3361C46.2069 37.5454 46.0835 37.749 45.96 37.9583C46.1364 37.9809 46.3185 38.0035 46.4949 38.0262C46.4008 37.8169 46.3127 37.602 46.2186 37.3927C46.1364 37.206 46.0658 36.8836 45.913 36.7366C45.7661 36.5952 45.4134 36.5895 45.2254 36.5499C44.9844 36.499 44.7376 36.4538 44.4966 36.4029C44.5377 36.5612 44.5847 36.7196 44.6259 36.878C44.7963 36.7366 44.9726 36.5895 45.1431 36.4481C45.3018 36.318 45.5956 36.154 45.6779 35.9617C45.7602 35.775 45.6603 35.4696 45.6368 35.2773C45.6133 35.0511 45.5839 34.8192 45.5604 34.5929C45.4134 34.6721 45.2665 34.757 45.1196 34.8361C45.3253 34.9549 45.5251 35.0737 45.7308 35.1925C45.9013 35.2943 46.1775 35.5318 46.3891 35.5318C46.6007 35.5318 46.8769 35.3452 47.0591 35.266C47.2824 35.1698 47.5116 35.068 47.735 34.9719C48.0817 34.8248 47.782 34.3328 47.4411 34.4855C47.0415 34.6608 46.6418 34.8305 46.2421 35.0058C46.3421 35.0058 46.442 35.0058 46.536 35.0058C46.1599 34.7852 45.7896 34.5703 45.4134 34.3497C45.2371 34.2479 44.9491 34.378 44.9726 34.5929C45.0197 35.0115 45.0667 35.43 45.1137 35.8486C45.1431 35.7807 45.1725 35.7128 45.2019 35.6506C44.8727 35.9278 44.5377 36.1993 44.2086 36.4764C44.044 36.6121 44.1263 36.9063 44.3379 36.9515C44.7669 37.0363 45.196 37.1212 45.625 37.2117C45.5545 37.1438 45.4898 37.0816 45.4193 37.0137C45.5898 37.404 45.7602 37.7886 45.9306 38.1789C46.0247 38.3881 46.3303 38.4786 46.4655 38.2467C46.6829 37.8791 46.9004 37.5171 47.1179 37.1495C47.0356 37.1947 46.9474 37.2456 46.8651 37.2909C47.3001 37.2569 47.7409 37.223 48.1758 37.1834C48.4285 37.1608 48.5637 36.8893 48.3815 36.7026C48.0876 36.3916 47.7938 36.0805 47.4999 35.7637C47.5234 35.8542 47.5528 35.9447 47.5763 36.0409C47.6762 35.628 47.7761 35.2208 47.876 34.8079C47.9642 34.4515 47.4 34.3045 47.3118 34.6551Z" fill="#F1F1F1"/>
<path d="M52.6994 26.8272C52.6872 26.9806 52.4183 26.9859 52.4183 26.8272C52.4183 26.6685 52.6872 26.6685 52.6994 26.8272C52.7177 27.1658 53.3288 27.1658 53.3105 26.8272C53.286 26.4727 52.9866 26.1765 52.5588 26.1765C52.1494 26.1765 51.8133 26.4727 51.8072 26.8272C51.8011 27.1711 52.1372 27.4621 52.5344 27.4779C52.9683 27.4938 53.286 27.187 53.3105 26.8272C53.3288 26.4886 52.7177 26.4886 52.6994 26.8272Z" fill="#F1F1F1"/>
<path d="M43.0086 25.932C42.9964 26.1046 42.7276 26.1105 42.7276 25.932C42.7276 25.7534 42.9964 25.7594 43.0086 25.932C43.027 26.3129 43.6381 26.3129 43.6197 25.932C43.5953 25.5332 43.2958 25.1999 42.8681 25.1999C42.4587 25.1999 42.1226 25.5332 42.1165 25.932C42.1104 26.3189 42.4465 26.6462 42.8437 26.6641C43.2775 26.6819 43.5953 26.3367 43.6197 25.932C43.6381 25.5511 43.027 25.5511 43.0086 25.932Z" fill="#F1F1F1"/>
<path d="M37.6618 38.1389C37.6496 38.3116 37.3808 38.3175 37.3808 38.1389C37.3869 37.9604 37.6557 37.9663 37.6618 38.1389C37.6802 38.5199 38.2911 38.5199 38.2728 38.1389C38.2484 37.7402 37.949 37.4069 37.5213 37.4069C37.112 37.4069 36.776 37.7402 36.7699 38.1389C36.7637 38.5258 37.0998 38.8532 37.4969 38.871C37.9307 38.8889 38.2484 38.5437 38.2728 38.1389C38.2972 37.758 37.6863 37.758 37.6618 38.1389Z" fill="#F1F1F1"/>
<path d="M42.6563 29.5328C44.0855 29.9314 45.9912 29.8696 47.0718 28.7637C47.5831 28.2415 47.8561 27.5566 47.9607 26.8548C48.013 26.5012 47.4553 26.3496 47.403 26.7033C47.2403 27.7475 46.7 28.6514 45.6193 28.9938C44.8873 29.2296 44.0565 29.2184 43.3361 29.1005C43.1618 29.0724 42.9817 29.0388 42.8132 28.9882C42.4472 28.8928 42.2961 29.4317 42.6563 29.5328Z" fill="#F1F1F1"/>
<path d="M43.413 35.4502C42.811 35.2813 42.1389 35.258 41.5253 35.3279C40.222 35.4735 39.1057 36.0966 38.3284 37.1506C38.1063 37.4534 38.6148 37.7446 38.831 37.4418C39.8246 36.1024 41.6655 35.5667 43.2552 36.0092C43.6234 36.1141 43.7753 35.5492 43.413 35.4502Z" fill="#F1F1F1"/>
<path d="M46.988 31.3157C45.3586 30.3884 43.1899 30.6173 41.6764 31.662C40.7776 32.2783 40.0702 33.1234 39.4903 34.0449C39.2874 34.3618 39.7918 34.6611 39.989 34.3383C40.8356 33.0002 42.0127 31.8029 43.5842 31.439C44.4598 31.2336 45.3876 31.3157 46.2342 31.6209C46.4314 31.6914 46.5009 31.7148 46.6923 31.8205C47.017 32.0083 47.3128 31.4977 46.988 31.3157Z" fill="#F1F1F1"/>
<path d="M50.0767 29.6175C50.1563 29.8303 50.2302 30.0431 50.3098 30.2616C50.3781 30.4464 50.4293 30.7769 50.5771 30.9225C50.7192 31.0626 51.0547 31.085 51.2367 31.1354C51.4698 31.197 51.703 31.2586 51.9304 31.3146C51.8906 31.1578 51.8451 31.001 51.8053 30.8441C51.629 30.9786 51.4528 31.113 51.2822 31.2418C51.123 31.365 50.8273 31.5107 50.742 31.6955C50.6624 31.8804 50.7363 32.1828 50.7477 32.3733C50.7591 32.5973 50.7761 32.827 50.7875 33.051C50.9296 32.9726 51.0718 32.8886 51.214 32.8102C51.032 32.6869 50.85 32.5637 50.6681 32.4405C50.4975 32.3285 50.27 32.0988 50.0596 32.0708C49.8549 32.0428 49.5877 32.2108 49.4057 32.2836C49.1897 32.3677 48.9736 32.4461 48.7632 32.5301C48.8826 32.6477 48.9963 32.7597 49.1157 32.8774C49.1783 32.6589 49.2465 32.4405 49.3091 32.222C49.3659 32.0372 49.5251 31.7235 49.474 31.5275C49.4228 31.337 49.1726 31.1298 49.0532 30.9842C48.8997 30.7993 48.7518 30.6201 48.5983 30.4352C48.53 30.5921 48.4618 30.7545 48.3993 30.9113C48.6324 30.9057 48.8599 30.9001 49.093 30.8889C49.292 30.8833 49.6332 30.9393 49.8151 30.8329C49.9914 30.7321 50.1108 30.4352 50.2189 30.2728C50.3496 30.0768 50.4804 29.8751 50.6112 29.6791C50.8102 29.3766 50.3155 29.0965 50.1222 29.399C49.8947 29.7519 49.6616 30.0992 49.4342 30.452C49.5138 30.4072 49.5991 30.3568 49.6787 30.312C49.2522 30.3232 48.8314 30.3344 48.405 30.3512C48.1434 30.3568 48.0524 30.6425 48.2059 30.8273C48.4732 31.1522 48.7404 31.4771 49.0077 31.7963C48.9849 31.7067 48.9565 31.6171 48.9338 31.5219C48.8144 31.9252 48.6949 32.3228 48.5755 32.7261C48.5187 32.9166 48.7177 33.1518 48.9281 33.0734C49.3204 32.9222 49.7185 32.7709 50.1108 32.6197C50.0369 32.6085 49.963 32.6029 49.8891 32.5917C50.2416 32.827 50.5885 33.0622 50.941 33.2975C51.1173 33.4151 51.3789 33.2583 51.3675 33.0566C51.3447 32.6421 51.322 32.222 51.2992 31.8075C51.2708 31.8748 51.2424 31.942 51.214 32.0036C51.5494 31.7459 51.8849 31.4939 52.2204 31.2362C52.3967 31.1018 52.283 30.8161 52.0953 30.7657C51.6859 30.6593 51.2765 30.5529 50.8671 30.4464C50.9353 30.5136 50.9979 30.5753 51.0661 30.6425C50.924 30.2504 50.7818 29.8583 50.6396 29.4662C50.5032 29.1301 49.9516 29.2758 50.0767 29.6175Z" fill="#F1F1F1"/>
<path d="M47.8155 22.47C47.8983 22.6913 47.9751 22.9127 48.0579 23.1399C48.1289 23.3321 48.1821 23.6758 48.3359 23.8272C48.4837 23.9729 48.8326 23.9962 49.0219 24.0486C49.2643 24.1127 49.5068 24.1768 49.7433 24.235C49.7019 24.0719 49.6546 23.9088 49.6132 23.7457C49.4299 23.8855 49.2466 24.0253 49.0692 24.1593C48.9036 24.2874 48.5961 24.4389 48.5074 24.6311C48.4246 24.8234 48.5015 25.1379 48.5133 25.336C48.5251 25.569 48.5429 25.8078 48.5547 26.0409C48.7025 25.9593 48.8504 25.8719 48.9982 25.7904C48.809 25.6622 48.6197 25.5341 48.4305 25.4059C48.2531 25.2894 48.0165 25.0506 47.7977 25.0214C47.5848 24.9923 47.3069 25.1671 47.1177 25.2428C46.8929 25.3302 46.6682 25.4117 46.4494 25.4991C46.5736 25.6214 46.6919 25.7379 46.8161 25.8603C46.8811 25.6331 46.9521 25.4059 47.0171 25.1787C47.0763 24.9865 47.2418 24.6603 47.1886 24.4564C47.1354 24.2583 46.8752 24.0428 46.751 23.8913C46.5913 23.6991 46.4376 23.5127 46.2779 23.3204C46.207 23.4836 46.136 23.6525 46.0709 23.8156C46.3134 23.8098 46.5499 23.8039 46.7924 23.7923C46.9994 23.7865 47.3542 23.8447 47.5434 23.734C47.7268 23.6292 47.851 23.3204 47.9633 23.1515C48.0993 22.9476 48.2353 22.7379 48.3714 22.534C48.5783 22.2195 48.0638 21.9282 47.8628 22.2428C47.6262 22.6098 47.3838 22.9709 47.1472 23.3379C47.23 23.2913 47.3187 23.2389 47.4015 23.1923C46.958 23.2039 46.5204 23.2156 46.0769 23.2331C45.8048 23.2389 45.7102 23.536 45.8699 23.7282C46.1478 24.0661 46.4258 24.404 46.7037 24.736C46.68 24.6428 46.6505 24.5496 46.6268 24.4506C46.5026 24.87 46.3785 25.2836 46.2543 25.703C46.1951 25.9011 46.4021 26.1457 46.6209 26.0642C47.029 25.9069 47.4429 25.7496 47.851 25.5923C47.7741 25.5807 47.6972 25.5748 47.6203 25.5632C47.987 25.8078 48.3477 26.0525 48.7144 26.2972C48.8977 26.4195 49.1697 26.2564 49.1579 26.0467C49.1342 25.6156 49.1106 25.1787 49.0869 24.7476C49.0573 24.8175 49.0278 24.8874 48.9982 24.9515C49.3471 24.6836 49.696 24.4214 50.0449 24.1535C50.2283 24.0137 50.11 23.7166 49.9148 23.6641C49.489 23.5535 49.0633 23.4428 48.6375 23.3321C48.7084 23.402 48.7735 23.4661 48.8445 23.536C48.6966 23.1282 48.5488 22.7204 48.4009 22.3127C48.259 21.9632 47.6854 22.1146 47.8155 22.47Z" fill="#F1F1F1"/>
<path d="M40.8408 29.5745C39.6519 30.3092 38.4688 31.0439 37.2798 31.7786C36.167 32.4678 35.0483 33.1626 33.9355 33.8518C32.7583 34.5808 31.5811 35.3098 30.4038 36.0388C29.4257 36.6482 28.4418 37.2519 27.4637 37.8613C26.6261 38.3796 25.7886 38.8979 24.951 39.4162C24.4239 39.7408 23.8499 40.037 23.358 40.4015C23.3345 40.4185 23.3053 40.4356 23.276 40.4527C23.4107 40.4869 23.5454 40.5211 23.6742 40.5552C23.1998 39.8376 22.7254 39.12 22.2569 38.3967C21.8937 37.8328 21.8762 37.1152 22.3213 36.5855C22.5204 36.3463 22.8016 36.1983 23.0593 36.0388C24.5645 35.1047 26.0756 34.1707 27.5808 33.2367C28.9337 32.3994 30.2925 31.5565 31.6455 30.7193C33.18 29.7682 34.7086 28.8227 36.2432 27.8716C36.5243 27.695 36.8054 27.5185 37.0924 27.3476C37.6078 27.0287 38.2286 26.9717 38.7675 27.2793C39.1716 27.5071 39.3883 27.9171 39.6284 28.2874C39.933 28.7487 40.2376 29.2157 40.5421 29.677C40.6065 29.7738 40.6651 29.865 40.7295 29.9618C40.9287 30.2693 41.4382 29.9846 41.2332 29.677C40.7588 28.948 40.2903 28.2133 39.8041 27.49C39.3824 26.8635 38.6738 26.4648 37.8948 26.5047C37.4321 26.5275 37.0397 26.7097 36.659 26.9432C35.0952 27.9115 33.5314 28.8797 31.9735 29.8479C30.5912 30.7022 29.209 31.5622 27.8268 32.4165C26.2278 33.4075 24.6348 34.3985 23.0358 35.3838C22.8191 35.5148 22.6024 35.6458 22.3916 35.7825C21.7122 36.221 21.3139 36.9785 21.4135 37.7759C21.4779 38.2885 21.7532 38.6871 22.0343 39.1086C22.3506 39.587 22.661 40.0654 22.9773 40.5438C23.0417 40.6464 23.1061 40.7432 23.1764 40.8457C23.2584 40.971 23.44 41.0337 23.5747 40.9482C24.7636 40.2135 25.9467 39.4788 27.1357 38.7441C28.2485 38.055 29.3671 37.3601 30.48 36.671C31.6572 35.942 32.8344 35.213 34.0117 34.4839C34.9898 33.8745 35.9737 33.2708 36.9518 32.6614C38.3224 31.8128 39.7046 30.987 41.0575 30.1156C41.0868 30.0985 41.1102 30.0814 41.1395 30.0643C41.4499 29.8707 41.1571 29.3809 40.8408 29.5745Z" fill="#F1F1F1"/>
<path d="M34.5978 33.7419L33.9196 34.1516L31.4232 30.4923L32.1073 30.0826L34.5978 33.7419Z" fill="#F1F1F1"/>
<path d="M28.1145 32.5898L27.4458 33.0045L29.8832 36.7345L30.5519 36.3199L28.1145 32.5898Z" fill="#F1F1F1"/>
</svg>
