<svg width="77" height="88" viewBox="0 0 77 88" fill="none" xmlns="http://www.w3.org/2000/svg">
<path d="M76.7891 74.8018C76.4872 75.9088 74.575 76.9152 73.2667 77.5191C72.2603 78.0223 71.3545 78.3242 70.65 78.5255C69.543 78.4248 68.2346 78.1229 67.027 77.6197C62.1962 75.8082 59.2776 72.487 57.8686 70.5748C57.3654 73.7954 56.7616 77.0159 56.2584 80.1357C56.1577 80.5383 55.5539 85.671 51.7295 87.3819C49.5154 88.2877 46.3955 88.2877 45.3891 86.7781C44.584 85.3691 45.8923 83.4569 46.7981 81.5447C49.2135 75.9088 46.9994 70.0716 43.9801 62.2216C42.5712 58.4979 40.2564 52.862 35.0231 47.1255C29.991 41.5902 24.1538 38.8729 20.4301 37.0614C17.2096 35.4511 14.3917 34.5453 12.2782 33.8409C11.5737 33.8409 3.42178 33.8409 0.805116 28.9094C0.503193 28.205 0.100641 27.2992 0 26.3934C0.603846 25.9908 1.30833 25.2864 1.7109 24.28C1.81154 23.8774 1.91217 23.3742 1.91217 22.871C3.01923 22.7703 4.52884 23.0723 6.44102 23.3742C10.0641 24.0787 12.6808 25.387 13.0833 25.4876C13.0833 25.4876 19.7256 28.5069 28.6827 31.6267C29.7898 32.0293 30.7962 32.3312 31.6013 32.6332C30.1923 31.3248 29.0853 29.5133 28.5821 27.5005C26.9718 21.462 30.5949 15.3229 36.734 13.7126C42.8731 12.1024 49.1128 15.6248 50.7231 21.5626C51.2263 23.4748 51.2263 25.2864 50.7231 27.0979C51.2263 26.3934 51.8301 25.6889 52.5346 24.6825C54.3462 22.1665 56.8622 18.6441 59.4789 13.612C60.4853 11.4985 61.693 9.08315 62.8 6.16456C64.209 2.54148 64.8128 0.629301 66.4231 0.126096C67.7314 -0.276468 69.3417 0.327377 70.2475 1.33379C71.3545 2.54148 71.4552 4.0511 71.4552 4.65494C71.6564 9.88828 65.0141 18.5434 62.4981 22.871C59.9821 27.3998 57.9692 34.2434 60.0827 45.3139C60.284 47.3268 60.8879 50.1447 61.9949 53.3652C63.0013 56.3845 64.8128 61.8191 69.3417 66.7505C73.3673 71.1787 77.393 72.7889 76.7891 74.8018Z" fill="#8357DB"/>
</svg>
